<svg xmlns="http://www.w3.org/2000/svg" width="537.666" height="776.138" viewBox="0 0 537.666 776.138">
  <path id="Path_755" data-name="Path 755" d="M353.675,359.747s-27.3,51.277-62.977,78.582c0,0,7.237,5.02,20.625,4.462,0,0-33.456,44.054-88.623,71.359,0,0,12.816,7.223,25.631,5.005,0,0-5.564,8.353-23.414,15.048,0,0,23.972,6.679,55.74-5.021,0,0-20.611,39-66.882,65.487,0,0,8.367,2.51,26.2,0,0,0-16.163,33.162-56.3,53.229a78.556,78.556,0,0,0,37.346-5.02s-10.6,23.414-67.439,45.155c0,0,38.447,4.448,88.065-13.373,0,0-13.946,60.745-98.664,89.723,0,0,18.394,5.579,32.883,3.9a210.187,210.187,0,0,1-65.208,36.23s17.278,7.237,32.883,5.005c0,0-3.89,11.157-18.952,17.851,0,0,35.114,3.891,88.622-22.856,0,0-12.815,14.885-31.209,23.047,0,0,23.517,13.521,66.984-12.125,0,0-24.853,46.476-71.109,74.912-46.271,28.42-70.786,36.229-70.786,36.229s33.661,10.585,53.17,5.564c0,0-16.163,24.53-49.6,39.577,0,0,21.183,13.931,54.624,0A77.6,77.6,0,0,1,136.31,991.79s41.794,1.115,85.275-31.209A108.205,108.205,0,0,1,206.539,985.1s31.767-2.232,65.766-37.346c0,0-31.209,69.113-115.369,97.548,0,0,25.631,2.774,49.6-2.79,0,0-32.325,41.794-95.874,66.882,0,0,85.276-3.905,143.246-32.325,0,0-10.041,28.978-39.019,45.7,0,0,61.318-2.789,107.574-38.461a64.454,64.454,0,0,1,20.068,26.2s10.584-10.6,11.142-29.536c0,0,7.237,20.61,25.073,32.882a113.172,113.172,0,0,1,6.136-30.108s3.347,25.646,33.441,50.719c0,0-3.347-28.42,7.252-54.609,0,0,11.7,22.842,45.141,34.556a107.933,107.933,0,0,1,0-38.461s70.229,49.6,169.993,14.489c0,0-54.066-8.925-80.255-37.9,0,0,18.394,6.693,45.141-3.348,0,0-67.439-12.815-100.88-65.766,0,0,18.394,18.394,51.835,15.605,0,0-12.816-1.659-24.53-28.978,0,0,22.857,22.3,93.643,15.605,0,0-13.373-3.347-26.761-23.958,0,0,13.388,6.679,44.04-3.9,0,0-37.228,0-72.9-33.441,0,0,11.142,2.789,26.2-5.579,0,0-82.163-19.51-125.631-96.418,0,0,23.077,20.068,67.1,20.625,0,0-12.816-11.157-27.3-30.109,0,0,22.167,18.952,65.091,17.836,0,0-6.694-3.9-13.931-18.394,0,0,21.726,10.6,56.283,1.116,0,0-29.536-6.121-49.045-27.862,0,0,10.041,1.674,27.877-4.463,0,0-62.433-22.842-118.158-85.833,0,0,45.7,7.252,84.717-9.468,0,0-35.672-2.79-64.107-28.421,0,0,14.489,6.121,28.993-1.115,0,0-29.551-.558-56.3-40.135,0,0,15.6,2.231,33.441-8.926,0,0-47.93-9.865-82.486-52.3,0,0,29.536,4.933,59.072-10.115,0,0-22.842-8.353-37.331-24.515a36.668,36.668,0,0,0,30.652-.558s-51.277-15.62-80.27-76.365a35.088,35.088,0,0,0,24.53,0s-44.583-18.951-65.766-83.6" transform="translate(-105.44 -359.512)" fill="none" stroke="#144277" stroke-width="1" opacity="0.138"/>
</svg>
