<svg xmlns="http://www.w3.org/2000/svg" xmlns:xlink="http://www.w3.org/1999/xlink" width="180.133" height="183.058" viewBox="0 0 180.133 183.058">
  <defs>
    <clipPath id="clip-path">
      <rect id="Rectangle_5" data-name="Rectangle 5" width="180.133" height="183.058" fill="none"/>
    </clipPath>
    <clipPath id="clip-path-2">
      <path id="Path_3" data-name="Path 3" d="M1.9,83.747c0,45.976,37.007,83.247,82.657,83.247s82.657-37.271,82.657-83.247S130.206.5,84.556.5,1.9,37.771,1.9,83.747" transform="translate(-1.899 -0.5)" fill="none"/>
    </clipPath>
    <clipPath id="clip-path-3">
      <path id="Path_6" data-name="Path 6" d="M95.779,207.217a39.45,39.45,0,0,0-12.51,3.128c-15.82,7.206-25.452,27.551-28.321,54.029a82.246,82.246,0,0,0,115.38,8.161A78.1,78.1,0,0,0,158.177,241.5c-11.047-16.434-32.592-34.57-57.083-34.57a49.171,49.171,0,0,0-5.315.287" transform="translate(-54.948 -206.93)" fill="none"/>
    </clipPath>
    <clipPath id="clip-path-4">
      <rect id="Rectangle_7" data-name="Rectangle 7" width="100.992" height="105.415" fill="none"/>
    </clipPath>
    <clipPath id="clip-path-5">
      <rect id="Rectangle_8" data-name="Rectangle 8" width="32.155" height="89.104" fill="none"/>
    </clipPath>
    <clipPath id="clip-path-7">
      <path id="Path_11" data-name="Path 11" d="M259.937,262.483a41.069,41.069,0,0,0,5.849,5.5,83.166,83.166,0,0,0,36.5-31.518c-2.171-3.989-4.5-7.649-6.41-10.637-7.471-11.717-22.283-30.881-50.283-47.523l14.345,84.176" transform="translate(-245.592 -178.307)" fill="none"/>
    </clipPath>
    <clipPath id="clip-path-8">
      <rect id="Rectangle_9" data-name="Rectangle 9" width="40.054" height="52.077" fill="none"/>
    </clipPath>
    <clipPath id="clip-path-9">
      <rect id="Rectangle_10" data-name="Rectangle 10" width="55.154" height="82.67" fill="none"/>
    </clipPath>
    <clipPath id="clip-path-11">
      <path id="Path_16" data-name="Path 16" d="M144.17,135.106c-4.357,13.726.056,27.423,9.7,33.45.572.358,9.122,5.517,18.2,2.291,11.087-3.941,18.478-18.808,15.062-35.741Z" transform="translate(-142.488 -135.106)" fill="#3e312f"/>
    </clipPath>
    <clipPath id="clip-path-12">
      <rect id="Rectangle_11" data-name="Rectangle 11" width="53.755" height="12.756" fill="#3e312f"/>
    </clipPath>
    <clipPath id="clip-path-13">
      <rect id="Rectangle_12" data-name="Rectangle 12" width="52.693" height="27.483" fill="#3e312f"/>
    </clipPath>
    <clipPath id="clip-path-15">
      <path id="Path_22" data-name="Path 22" d="M177.965,143.655a25.67,25.67,0,0,1-3.009,15.07,22.975,22.975,0,0,1-6.066,7.025,20.683,20.683,0,0,1-10.311,4.073c-6.2.532-15.423-3.131-20.016-11.3a23.485,23.485,0,0,1-2.325-15.882l-3.841.814a121.035,121.035,0,0,1,.152,12.981c-.859,20.5-6.878,28.076-2.174,36.5,4.084,7.313,11.581,10.12,14.254,11.1,10.889,3.983,26.247,2.355,33.966-8.043,4.815-6.486,4.8-14.712,4.756-16.312,0-.018,0-.055-.005-.181-.519-16.8-3.563-20.276-2.224-29.424.605-4.134,1.815-7.44.606-8.145a.972.972,0,0,0-.5-.125c-.914,0-2.22.957-3.264,1.853" transform="translate(-128.596 -141.802)" fill="none"/>
    </clipPath>
    <clipPath id="clip-path-16">
      <rect id="Rectangle_13" data-name="Rectangle 13" width="61.412" height="59.662" fill="none"/>
    </clipPath>
    <clipPath id="clip-path-17">
      <path id="Path_25" data-name="Path 25" d="M1.9,83.747c0,45.976,37.007,83.247,82.657,83.247s82.657-37.271,82.657-83.247S130.206.5,84.556.5,1.9,37.771,1.9,83.747" transform="translate(-1.899 -0.5)" fill="#a77969"/>
    </clipPath>
    <clipPath id="clip-path-18">
      <path id="Path_28" data-name="Path 28" d="M223.864,265.171c-8.352,1.21-12.791,8.865-13.5,10.079-2.394,4.129-2.506,8.658-2.73,17.715s-.28,13.658,2.427,16.494c.89.932,4.334,2.3,11.221,5.04a85.018,85.018,0,0,0,8.036,2.9c5.392,1.567,8.088,2.351,10.008,1.679,2.082-.728,3.7-2.713,7.127-15.577,3.036-11.4,4.524-17.186,3.033-21.38-1.95-5.485-6.147-8.589-9.4-11-3.645-2.7-8.264-6.112-14.072-6.112a15.006,15.006,0,0,0-2.153.156" transform="translate(-207.543 -265.015)" fill="none"/>
    </clipPath>
    <clipPath id="clip-path-19">
      <rect id="Rectangle_14" data-name="Rectangle 14" width="8.974" height="31.328" fill="none"/>
    </clipPath>
    <clipPath id="clip-path-20">
      <rect id="Rectangle_15" data-name="Rectangle 15" width="47.252" height="59.15" fill="none"/>
    </clipPath>
    <clipPath id="clip-path-22">
      <path id="Path_33" data-name="Path 33" d="M202.529,193c-.809.965-.3,2.9.607,4.072,1.475,1.908,4.166,1.981,6.167,2.036a12.29,12.29,0,0,0,8.188-2.749c1.38-1.112,2.631-2.6,2.426-2.851s-1.593,1.252-3.943,1.629c-1.749.281-3.176-.206-5.257-.916-2.678-.914-3.395-1.729-5.56-1.833-.234-.011-.473-.022-.71-.022a2.385,2.385,0,0,0-1.918.633" transform="translate(-202.126 -192.366)" fill="none"/>
    </clipPath>
    <clipPath id="clip-path-23">
      <rect id="Rectangle_16" data-name="Rectangle 16" width="19.615" height="12.358" fill="none"/>
    </clipPath>
    <clipPath id="clip-path-25">
      <path id="Path_37" data-name="Path 37" d="M171.541,192.388c-2.165.1-2.882.919-5.56,1.833-2.081.71-3.508,1.2-5.257.916-2.35-.377-3.731-1.891-3.942-1.629s1.046,1.739,2.426,2.851a12.29,12.29,0,0,0,8.188,2.749c2-.055,4.692-.129,6.166-2.036.9-1.168,1.416-3.107.607-4.072a2.385,2.385,0,0,0-1.918-.633c-.237,0-.477.011-.71.022" transform="translate(-156.76 -192.366)" fill="none"/>
    </clipPath>
    <clipPath id="clip-path-28">
      <path id="Path_41" data-name="Path 41" d="M189.986,167.534c-2.942.929-3.276,2.057-3.336,2.444-.316,2.05,3.72,5.046,7.3,4.607,1.394-.17,3.8-.994,3.917-2.57.1-1.337-1.5-2.406-1.719-2.546l-6.065-9.978q-.051,4.022-.1,8.043" transform="translate(-186.632 -159.491)" fill="none"/>
    </clipPath>
    <clipPath id="clip-path-29">
      <rect id="Rectangle_18" data-name="Rectangle 18" width="14.686" height="6.567" fill="none"/>
    </clipPath>
    <clipPath id="clip-path-30">
      <rect id="Rectangle_20" data-name="Rectangle 20" width="50.343" height="11.206" fill="none"/>
    </clipPath>
    <clipPath id="clip-path-32">
      <path id="Path_45" data-name="Path 45" d="M214.467,154.953a5.026,5.026,0,0,0,.09,3.8,5.234,5.234,0,0,0,6.356,2.438c2.776-1.055,3.233-4.289,3.261-4.519.279-2.234-.725-5.057-2.966-5.884a3.658,3.658,0,0,0-1.271-.225c-2.368,0-4.707,2.192-5.47,4.389" transform="translate(-214.129 -150.564)" fill="none"/>
    </clipPath>
    <clipPath id="clip-path-33">
      <rect id="Rectangle_21" data-name="Rectangle 21" width="12.718" height="9.591" fill="none"/>
    </clipPath>
    <clipPath id="clip-path-35">
      <rect id="Rectangle_22" data-name="Rectangle 22" width="2.639" height="3.036" fill="none"/>
    </clipPath>
    <clipPath id="clip-path-36">
      <path id="Path_52" data-name="Path 52" d="M166.37,150.017c-2.241.827-3.245,3.65-2.966,5.884.029.231.486,3.464,3.261,4.519a5.234,5.234,0,0,0,6.356-2.437,5.025,5.025,0,0,0,.09-3.8c-.763-2.2-3.1-4.389-5.469-4.389a3.656,3.656,0,0,0-1.271.225" transform="translate(-163.358 -149.792)" fill="none"/>
    </clipPath>
    <clipPath id="clip-path-40">
      <rect id="Rectangle_25" data-name="Rectangle 25" width="12.015" height="15.622" fill="#5f4c49"/>
    </clipPath>
    <clipPath id="clip-path-41">
      <path id="Path_62" data-name="Path 62" d="M126.482,152.621c-2.1.047-3.37,2.253-3.538,2.545-1.893,3.295.441,7.588.91,8.451a12.764,12.764,0,0,0,5.012,4.983,41.139,41.139,0,0,0-.367-15.353,3.574,3.574,0,0,0-1.947-.626h-.07" transform="translate(-122.214 -152.62)" fill="none"/>
    </clipPath>
    <clipPath id="clip-path-42">
      <rect id="Rectangle_26" data-name="Rectangle 26" width="5.106" height="20.594" fill="#64504e"/>
    </clipPath>
    <clipPath id="clip-path-43">
      <rect id="Rectangle_27" data-name="Rectangle 27" width="6.93" height="9.531" fill="#64504e"/>
    </clipPath>
    <clipPath id="clip-path-45">
      <path id="Path_73" data-name="Path 73" d="M155,45.765c-4.047.8-20.073,3.963-26.182,16.544a22.847,22.847,0,0,0-1.314,3.36,9.257,9.257,0,0,0-2.123,5.091c-.057.835.073.945.708,5.4a21.04,21.04,0,0,1,.4,4.073c-.09,1.913-.527,2.044-.708,4.072-.126,1.41-.371,4.168,1.011,5.091a2.633,2.633,0,0,0,2.022.2c4.723-1.032,13.415-5.041,16.365-6.192,3.523-1.374,6.246-1.552,10.828-1.851a49.618,49.618,0,0,1,23.559,4.494,62.681,62.681,0,0,0,9.7,12.712c1.5,1.515,2.995,2.867,4.448,4.073-.147-.851-.349-2.1-.545-3.616a88.178,88.178,0,0,1-.719-10.078c-.188-11.534,1.075-12.485.3-18.174A30.985,30.985,0,0,0,187,55.844a28.856,28.856,0,0,0-12.586-9.469,26.892,26.892,0,0,0-9.8-1.8A48.414,48.414,0,0,0,155,45.765" transform="translate(-125.372 -44.573)" fill="none"/>
    </clipPath>
    <clipPath id="clip-path-46">
      <rect id="Rectangle_28" data-name="Rectangle 28" width="55.696" height="12.397" fill="none"/>
    </clipPath>
    <clipPath id="clip-path-47">
      <rect id="Rectangle_29" data-name="Rectangle 29" width="19.883" height="44.483" fill="none"/>
    </clipPath>
    <clipPath id="clip-path-48">
      <rect id="Rectangle_30" data-name="Rectangle 30" width="66.113" height="30.747" fill="none"/>
    </clipPath>
    <clipPath id="clip-path-49">
      <rect id="Rectangle_31" data-name="Rectangle 31" width="11.944" height="4.669" fill="none"/>
    </clipPath>
    <clipPath id="clip-path-50">
      <rect id="Rectangle_32" data-name="Rectangle 32" width="3.63" height="3.892" fill="none"/>
    </clipPath>
    <clipPath id="clip-path-51">
      <rect id="Rectangle_33" data-name="Rectangle 33" width="62.151" height="28.703" fill="none"/>
    </clipPath>
    <clipPath id="clip-path-52">
      <rect id="Rectangle_34" data-name="Rectangle 34" width="23.985" height="5.539" fill="none"/>
    </clipPath>
    <clipPath id="clip-path-54">
      <path id="Path_78" data-name="Path 78" d="M261.991,149.225a41.141,41.141,0,0,0-.367,15.353,12.764,12.764,0,0,0,5.012-4.983c.469-.862,2.8-5.156.91-8.45-.168-.293-1.435-2.5-3.539-2.546h-.068a3.583,3.583,0,0,0-1.948.626" transform="translate(-261.073 -148.599)" fill="none"/>
    </clipPath>
    <clipPath id="clip-path-55">
      <rect id="Rectangle_35" data-name="Rectangle 35" width="5.106" height="20.595" fill="#64504e"/>
    </clipPath>
    <clipPath id="clip-path-58">
      <path id="Path_82" data-name="Path 82" d="M279.091,192.833a8.988,8.988,0,0,0,4.246,9.01c4.224,2.35,8.971-.242,11.221-2.443a8.963,8.963,0,0,0,3.032-6.872,8.54,8.54,0,0,0-3.488-6.109,8.451,8.451,0,0,0-4.549-1.527q-.172-.007-.347-.007c-4.085,0-9.368,2.849-10.116,7.949" transform="translate(-279.001 -184.884)" fill="none"/>
    </clipPath>
    <clipPath id="clip-path-59">
      <rect id="Rectangle_37" data-name="Rectangle 37" width="22.139" height="15.742" fill="none"/>
    </clipPath>
    <clipPath id="clip-path-61">
      <path id="Path_89" data-name="Path 89" d="M182.575,191.464c-.957.85-1.5,2.35-1.011,7.941.135,1.543.371,3.633.809,6.109-6.286,2-10.519,5.437-10.412,8.756a4.206,4.206,0,0,0,.505,1.833c-.735.63-1.659,1.612-1.516,2.647.185,1.339,2,1.63,4.246,3.258,1.21.876.976,1,4.954,5.7,3.474,4.1,4.27,4.736,4.751,5.091a15.564,15.564,0,0,0,5.964,2.647l6.975,6.618.909-9.774a6.688,6.688,0,0,0,1.011-7.534c-4.894-11.408-5.014-12.429-6.975-14.152a15.511,15.511,0,0,1-3.134-3.054,14.07,14.07,0,0,1-2.123-4.989c-2.081-7.857-2.359-11.514-3.741-11.708a.832.832,0,0,0-.112-.008,1.838,1.838,0,0,0-1.1.618" transform="translate(-170.935 -190.846)" fill="none"/>
    </clipPath>
    <clipPath id="clip-path-62">
      <rect id="Rectangle_38" data-name="Rectangle 38" width="16.111" height="14.678" fill="none"/>
    </clipPath>
    <clipPath id="clip-path-64">
      <rect id="Rectangle_39" data-name="Rectangle 39" width="151.153" height="111.935" fill="none"/>
    </clipPath>
    <clipPath id="clip-path-65">
      <path id="Path_112" data-name="Path 112" d="M401.434,242.6c-.783.84-1.029,1.434-1.37,1.366-.423-.086-.31-1.051-.9-1.283a1.413,1.413,0,0,0-1.345.5c-.33.351-.393.724-.576,2.029-.2,1.445-.307,2.273-.46,2.279-.176.006-.123-1.086-.773-1.4a1,1,0,0,0-.939.072c-.572.369-.522,1.31-.5,1.809a12.292,12.292,0,0,0,.595,2.456c.128.434.3,1.01.191,1.065-.068.033-.186-.149-.349-.331a.817.817,0,0,0-.568-.336c-.385,0-.668.5-.706.571-.487.885.274,2.237.94,3.329a48.514,48.514,0,0,0,3.718,5.256,18.585,18.585,0,0,1,2.036-2.283c2.082-1.973,3.59-2.467,4.063-4.2.063-.23.318-1.163-.1-1.531-.376-.327-1.087-.155-1.671.017-.47.138-.857.277-.922.155-.1-.188.677-.844,1.373-1.315,1.238-.836,1.758-.77,2.105-1.394a1.625,1.625,0,0,0-.047-1.8,1.693,1.693,0,0,0-1.263-.152c-.521.057-1.033.113-1.275-.223a.2.2,0,0,1-.013-.019c-.239-.386.4-1.073,1.122-2.161.9-1.355,1.7-2.575,1.3-3.338a1.562,1.562,0,0,0-1.336-.655h-.016c-.91,0-1.63.772-2.319,1.51" transform="translate(-393.586 -241.09)" fill="none"/>
    </clipPath>
    <clipPath id="clip-path-66">
      <rect id="Rectangle_41" data-name="Rectangle 41" width="3.406" height="17.502" fill="none"/>
    </clipPath>
    <clipPath id="clip-path-67">
      <rect id="Rectangle_42" data-name="Rectangle 42" width="17.049" height="21.382" fill="none"/>
    </clipPath>
    <clipPath id="clip-path-69">
      <path id="Path_116" data-name="Path 116" d="M387.773,291.256c-2.421,1.539-4,1.736-4.79,3.342-.106.214-.535,1.081-.19,1.522.325.417,1.127.355,1.751.293.438-.044.789-.088.826.034.062.2-.826.7-1.6,1.028-1.375.584-1.873.421-2.333.966a1.625,1.625,0,0,0-.3,1.776c.5.64,2.086.13,2.419.853a.225.225,0,0,1,.009.021c.161.425-.6.976-1.514,1.906-1.138,1.159-2.162,2.2-1.917,3.028a1.563,1.563,0,0,0,1.187.9,3.55,3.55,0,0,0,2.581-1.036c.929-.675,1.284-1.211,1.606-1.078.4.165.1,1.092.638,1.431a1.412,1.412,0,0,0,1.416-.237c.391-.282.524-.635.953-1.881.475-1.381.735-2.173.887-2.149.174.027-.086,1.089.49,1.524a1,1,0,0,0,.935.109c.631-.253.763-1.187.832-1.681a12.25,12.25,0,0,0-.114-2.525c-.043-.45-.106-1.05.016-1.082.141-.037.31.744.773.83.379.07.751-.364.8-.426.647-.777.159-2.249-.286-3.447a48.558,48.558,0,0,0-2.645-5.871,18.63,18.63,0,0,1-2.435,1.851" transform="translate(-380.101 -289.405)" fill="none"/>
    </clipPath>
    <clipPath id="clip-path-70">
      <rect id="Rectangle_44" data-name="Rectangle 44" width="6.511" height="16.562" fill="none"/>
    </clipPath>
    <clipPath id="clip-path-71">
      <rect id="Rectangle_45" data-name="Rectangle 45" width="19.384" height="19.842" fill="none"/>
    </clipPath>
    <clipPath id="clip-path-73">
      <path id="Path_120" data-name="Path 120" d="M410.446,279.364a48.573,48.573,0,0,0-5.416,3.482,18.592,18.592,0,0,1,2.19,2.136c1.88,2.167,2.306,3.695,4.012,4.245.227.073,1.148.37,1.534-.036.619-.652-.336-2.465-.057-2.6.192-.091.814.713,1.252,1.43.781,1.274.692,1.79,1.3,2.165a1.626,1.626,0,0,0,1.8.033c.56-.586-.18-2.083.486-2.519l.02-.012c.4-.222,1.054.45,2.109,1.216,1.314.954,2.5,1.814,3.277,1.45a1.563,1.563,0,0,0,.713-1.307c.05-.916-.694-1.675-1.406-2.4-.8-.82-1.387-1.091-1.3-1.428.1-.419,1.064-.263,1.321-.842a1.412,1.412,0,0,0-.443-1.366c-.336-.345-.706-.424-2-.665-1.435-.267-2.257-.406-2.256-.56,0-.176,1.09-.075,1.435-.71a1,1,0,0,0-.03-.941c-.344-.588-1.286-.58-1.786-.575a12.26,12.26,0,0,0-2.48.485c-.439.109-1.022.26-1.072.144-.058-.134.69-.417.707-.887.013-.385-.47-.689-.539-.731a1.368,1.368,0,0,0-.722-.184,6.31,6.31,0,0,0-2.645.976" transform="translate(-405.03 -278.388)" fill="none"/>
    </clipPath>
    <clipPath id="clip-path-74">
      <rect id="Rectangle_47" data-name="Rectangle 47" width="17.342" height="4.066" fill="none"/>
    </clipPath>
    <clipPath id="clip-path-75">
      <rect id="Rectangle_48" data-name="Rectangle 48" width="21.096" height="17.645" fill="none"/>
    </clipPath>
    <clipPath id="clip-path-77">
      <path id="Path_123" data-name="Path 123" d="M402.789,292.088a3.631,3.631,0,0,0,1.414,4.764,3.145,3.145,0,0,0,2.809.117,3.106,3.106,0,0,0,1.464-2.013c.367-1.342.166-3.656-1.6-4.409a2.794,2.794,0,0,0-1.1-.22,3.53,3.53,0,0,0-2.982,1.762" transform="translate(-402.381 -290.326)" fill="none"/>
    </clipPath>
    <clipPath id="clip-path-78">
      <rect id="Rectangle_50" data-name="Rectangle 50" width="13.48" height="11.451" fill="none"/>
    </clipPath>
    <clipPath id="clip-path-80">
      <path id="Path_126" data-name="Path 126" d="M392.046,284.514a2.552,2.552,0,0,0-.429,2.241,2.524,2.524,0,0,0,1.441,1.415c1.033.455,2.914.569,3.729-.761a2.739,2.739,0,0,0-.749-3.46,2.625,2.625,0,0,0-1.632-.546,3.042,3.042,0,0,0-2.36,1.111" transform="translate(-391.503 -283.403)" fill="none"/>
    </clipPath>
    <clipPath id="clip-path-81">
      <rect id="Rectangle_52" data-name="Rectangle 52" width="8.469" height="10.769" fill="none"/>
    </clipPath>
    <clipPath id="clip-path-83">
      <path id="Path_129" data-name="Path 129" d="M403.413,278.066a2.739,2.739,0,0,0,1.864,3.01,2.947,2.947,0,0,0,3.573-1.869,2.551,2.551,0,0,0-.345-2.255,2.52,2.52,0,0,0-1.831-.852q-.114-.008-.236-.008c-1.127,0-2.721.549-3.024,1.973" transform="translate(-403.365 -276.093)" fill="none"/>
    </clipPath>
    <clipPath id="clip-path-84">
      <rect id="Rectangle_54" data-name="Rectangle 54" width="10.059" height="10.795" fill="none"/>
    </clipPath>
    <clipPath id="clip-path-86">
      <path id="Path_133" data-name="Path 133" d="M26.012,74.939c-4.328,1.4-6.824,1.08-8.682,3.231-.247.286-1.251,1.447-.9,2.262.568,1.308,3.807,1.035,3.828,1.524.014.338-1.545.746-2.864.944-2.343.351-3.043-.1-3.966.559-.823.585-1.5,1.82-1.162,2.609.509,1.181,3.152,1.027,3.378,2.27,0,.012,0,.022.006.037.078.717-1.309,1.26-3.082,2.327-2.206,1.328-4.194,2.525-4.145,3.889a2.48,2.48,0,0,0,1.466,1.849c1.308.64,2.875.023,4.374-.567,1.7-.668,2.452-1.35,2.893-1.019.547.411-.274,1.717.412,2.451a2.239,2.239,0,0,0,2.269.2c.712-.277,1.056-.768,2.21-2.511,1.278-1.931,1.992-3.045,2.214-2.948.256.112-.565,1.639.149,2.535a1.586,1.586,0,0,0,1.392.538c1.07-.138,1.642-1.519,1.945-2.252a19.5,19.5,0,0,0,.826-3.923c.113-.708.254-1.654.454-1.655.232,0,.181,1.266.858,1.581.554.258,1.3-.26,1.4-.335,1.3-.936,1.136-3.391.928-5.407a76.963,76.963,0,0,0-1.732-10.064,29.554,29.554,0,0,1-4.474,1.876" transform="translate(-8.427 -73.063)" fill="none"/>
    </clipPath>
    <clipPath id="clip-path-87">
      <rect id="Rectangle_56" data-name="Rectangle 56" width="16.569" height="22.852" fill="none"/>
    </clipPath>
    <clipPath id="clip-path-88">
      <rect id="Rectangle_57" data-name="Rectangle 57" width="33.87" height="26.912" fill="none"/>
    </clipPath>
    <clipPath id="clip-path-90">
      <path id="Path_137" data-name="Path 137" d="M79.744,16.791c-.752.136-1.183.552-2.649,2.043-1.623,1.651-2.537,2.608-2.737,2.47-.23-.159.867-1.5.338-2.517a1.584,1.584,0,0,0-1.264-.794c-1.077-.069-1.9,1.177-2.339,1.838a19.5,19.5,0,0,0-1.561,3.693c-.246.673-.565,1.575-.762,1.538-.227-.042.065-1.277-.54-1.716-.494-.358-1.323.008-1.439.061-1.456.67-1.763,3.111-1.945,5.13a77.033,77.033,0,0,0-.223,10.21,29.508,29.508,0,0,1,4.751-.987c4.516-.55,6.9.244,9.139-1.512.3-.234,1.5-1.181,1.313-2.049-.307-1.392-3.54-1.744-3.466-2.228.051-.334,1.659-.437,2.991-.379,2.367.1,2.968.677,4,.21.92-.417,1.822-1.5,1.639-2.339-.274-1.256-2.9-1.61-2.882-2.873,0-.012,0-.022,0-.037.06-.718,1.526-.987,3.469-1.7,2.42-.883,4.6-1.677,4.812-3.025a2.478,2.478,0,0,0-1.086-2.1c-1.161-.878-2.818-.572-4.4-.279-1.792.331-2.665.856-3.034.447-.459-.508.6-1.633.064-2.484a1.924,1.924,0,0,0-1.644-.675,3.079,3.079,0,0,0-.546.047" transform="translate(-64.55 -16.744)" fill="none"/>
    </clipPath>
    <clipPath id="clip-path-91">
      <rect id="Rectangle_59" data-name="Rectangle 59" width="20.632" height="19.263" fill="none"/>
    </clipPath>
    <clipPath id="clip-path-92">
      <rect id="Rectangle_60" data-name="Rectangle 60" width="34.812" height="22.445" fill="none"/>
    </clipPath>
    <clipPath id="clip-path-94">
      <path id="Path_141" data-name="Path 141" d="M6.4,15.688c-.7,1.278-.15,2.871.373,4.395.592,1.723,1.241,2.509.89,2.935-.208.254-.608.184-1.052.115a1.683,1.683,0,0,0-1.415.189,2.241,2.241,0,0,0-.3,2.259c.245.723.72,1.088,2.411,2.318,1.873,1.362,2.954,2.124,2.847,2.342-.052.106-.347.009-.74-.087a2.178,2.178,0,0,0-1.8.124,1.585,1.585,0,0,0-.6,1.367c.09,1.075,1.445,1.707,2.164,2.043a19.461,19.461,0,0,0,3.882,1c.7.144,1.641.327,1.634.527-.008.231-1.273.124-1.618.787-.282.542.2,1.307.273,1.415.877,1.341,3.336,1.285,5.361,1.167a77.094,77.094,0,0,0,10.131-1.286,29.467,29.467,0,0,1-1.677-4.553c-1.211-4.386-.777-6.864-2.844-8.816-.275-.26-1.39-1.313-2.22-1-1.332.509-1.2,3.758-1.692,3.757-.338,0-.678-1.577-.816-2.9-.247-2.356.232-3.036-.383-3.987-.548-.849-1.752-1.582-2.555-1.277-1.2.456-1.165,3.1-2.416,3.274l-.037,0c-.719.046-1.2-1.364-2.189-3.181-1.23-2.264-2.337-4.3-3.7-4.314H8.3a2.487,2.487,0,0,0-1.9,1.383" transform="translate(-4.735 -14.305)" fill="none"/>
    </clipPath>
    <clipPath id="clip-path-95">
      <rect id="Rectangle_62" data-name="Rectangle 62" width="22.097" height="17.563" fill="none"/>
    </clipPath>
    <clipPath id="clip-path-96">
      <rect id="Rectangle_63" data-name="Rectangle 63" width="25.967" height="34.2" fill="none"/>
    </clipPath>
    <clipPath id="clip-path-98">
      <path id="Path_144" data-name="Path 144" d="M56.91,41.55a4.928,4.928,0,0,0-3.47,1.882c-1.442,1.67-2.733,5.12-.714,7.407a5.354,5.354,0,0,0,6.9.582,5.761,5.761,0,0,0,1.23-7.786,5.033,5.033,0,0,0-3.8-2.088c-.049,0-.1,0-.147,0" transform="translate(-51.684 -41.547)" fill="none"/>
    </clipPath>
    <clipPath id="clip-path-99">
      <rect id="Rectangle_65" data-name="Rectangle 65" width="19.119" height="12.465" fill="none"/>
    </clipPath>
    <clipPath id="clip-path-101">
      <path id="Path_147" data-name="Path 147" d="M66.165,66.537A4.344,4.344,0,0,0,64.874,72a4.674,4.674,0,0,0,6.1,1.917,4.049,4.049,0,0,0,2.145-2.914,4,4,0,0,0-1.1-3.01,5.768,5.768,0,0,0-4.018-2,3.326,3.326,0,0,0-1.84.537" transform="translate(-64.416 -66)" fill="none"/>
    </clipPath>
    <clipPath id="clip-path-102">
      <rect id="Rectangle_67" data-name="Rectangle 67" width="10.321" height="15.32" fill="none"/>
    </clipPath>
    <clipPath id="clip-path-104">
      <path id="Path_150" data-name="Path 150" d="M42.868,70.483a4.045,4.045,0,0,0-1.046,3.464,4,4,0,0,0,2.039,2.47c1.555.888,4.5,1.378,6.009-.586a4.344,4.344,0,0,0-.613-5.582,4.238,4.238,0,0,0-2.979-1.156,4.783,4.783,0,0,0-3.411,1.39" transform="translate(-41.736 -69.093)" fill="none"/>
    </clipPath>
    <clipPath id="clip-path-105">
      <rect id="Rectangle_69" data-name="Rectangle 69" width="12.337" height="16.67" fill="none"/>
    </clipPath>
  </defs>
  <g id="Group_373" data-name="Group 373" transform="translate(-62.569 -107.432)">
    <g id="Group_2" data-name="Group 2" transform="translate(62.569 107.432)">
      <g id="Group_1" data-name="Group 1" clip-path="url(#clip-path)">
        <path id="Path_1" data-name="Path 1" d="M167.213,83.747c0,45.976-37.007,83.247-82.657,83.247S1.9,129.723,1.9,83.747,38.907.5,84.557.5s82.657,37.271,82.657,83.247" transform="translate(-1.154 -0.304)" fill="#aabee5"/>
        <ellipse id="Ellipse_1" data-name="Ellipse 1" cx="82.657" cy="83.247" rx="82.657" ry="83.247" transform="translate(0.746 0.196)" fill="none"/>
      </g>
    </g>
    <g id="Group_4" data-name="Group 4" transform="translate(63.315 107.628)">
      <g id="Group_3" data-name="Group 3" clip-path="url(#clip-path-2)">
        <path id="Path_2" data-name="Path 2" d="M94.375,207.217a39.462,39.462,0,0,0-12.51,3.128c-21.771,9.916-31.821,44.71-28.659,86.133l116,3.207c1.11-7.76,3.859-33.947-12.434-58.186-11.839-17.613-35.737-37.181-62.4-34.282" transform="translate(-32.714 -125.874)" fill="#d5415e"/>
      </g>
    </g>
    <g id="Group_12" data-name="Group 12" transform="translate(84.145 188.684)">
      <g id="Group_11" data-name="Group 11" clip-path="url(#clip-path-3)">
        <rect id="Rectangle_6" data-name="Rectangle 6" width="28.824" height="73.919" transform="translate(43.766 22.807)" fill="#efefee"/>
        <g id="Group_7" data-name="Group 7" transform="translate(25.74 -3.61)" opacity="0.09">
          <g id="Group_6" data-name="Group 6">
            <g id="Group_5" data-name="Group 5" clip-path="url(#clip-path-4)">
              <path id="Path_4" data-name="Path 4" d="M221.5,295.629c-17.356,9.713-37.393,10.185-51.253.458-12.5-8.775-16.754-23.589-17.741-27.031a55.821,55.821,0,0,1-1.648-22.533c-.776-.01-17.944-.542-26.4-15.493a31.292,31.292,0,0,1,1.82-33.292l41.193,2.138L221.5,295.629" transform="translate(-120.503 -197.737)" fill="#422025"/>
            </g>
          </g>
        </g>
        <g id="Group_10" data-name="Group 10" transform="translate(-6.908 5.026)" opacity="0.14">
          <g id="Group_9" data-name="Group 9">
            <g id="Group_8" data-name="Group 8" clip-path="url(#clip-path-5)">
              <path id="Path_5" data-name="Path 5" d="M52.114,307.765l-11.828,1.069c-1.28-5.886-11.87-57.811,17.135-81.857a47.159,47.159,0,0,1,12.089-7.247A78.494,78.494,0,0,0,56.36,237.82c-15.537,29.538-7.216,60.441-4.246,69.945" transform="translate(-37.356 -219.73)" fill="#fff"/>
            </g>
          </g>
        </g>
      </g>
    </g>
    <g id="Group_14" data-name="Group 14" transform="translate(63.315 107.628)">
      <g id="Group_13" data-name="Group 13" clip-path="url(#clip-path-2)">
        <path id="Path_7" data-name="Path 7" d="M259.937,262.482a39.544,39.544,0,0,0,12.965,9.85c4.192,1.969,14.2,6.667,24.11,2.291,1.637-.722,7.105-3.385,10.008-8.7,6.647-12.183-4.7-29.982-11.145-40.088-7.471-11.717-22.283-30.881-50.283-47.524q7.172,42.088,14.345,84.176" transform="translate(-149.905 -108.49)" fill="#d5415e"/>
      </g>
    </g>
    <g id="Group_22" data-name="Group 22" transform="translate(159.002 177.445)">
      <g id="Group_21" data-name="Group 21" clip-path="url(#clip-path-7)">
        <g id="Group_17" data-name="Group 17" transform="translate(0.146 2.437)" opacity="0.09">
          <g id="Group_16" data-name="Group 16">
            <g id="Group_15" data-name="Group 15" clip-path="url(#clip-path-8)">
              <path id="Path_9" data-name="Path 9" d="M286.017,236.591,245.963,222.9l6.846-38.386,23.048,15.424c-.712.757-4.928,5.1-11.069,4.734a13.012,13.012,0,0,1-5.611-1.68c-1.43,2.79-3.009,7.067-1.668,11.3,1.394,4.4,5.152,6.262,12.889,11.3,3.83,2.495,9.234,6.157,15.618,11" transform="translate(-245.963 -184.514)" fill="#422025"/>
            </g>
          </g>
        </g>
        <g id="Group_20" data-name="Group 20" transform="translate(16.848 21.746)" opacity="0.1">
          <g id="Group_19" data-name="Group 19">
            <g id="Group_18" data-name="Group 18" clip-path="url(#clip-path-9)">
              <path id="Path_10" data-name="Path 10" d="M325.2,315.326c-11.319,3.774-25.787-3.124-36.7-15.272a43.878,43.878,0,0,0,19.864,7.483c5.425.592,15.183,1.659,20.623-4.276,3.654-3.987,3.747-9.373,3.791-11.912.371-21.493-27.648-52.667-32.2-57.661,2.993.362,26.711,3.609,37.508,23.6,11.052,20.465,5.092,52.037-12.889,58.033" transform="translate(-288.5 -233.689)" fill="#fff"/>
            </g>
          </g>
        </g>
      </g>
    </g>
    <g id="Group_24" data-name="Group 24" transform="translate(63.315 107.628)">
      <g id="Group_23" data-name="Group 23" clip-path="url(#clip-path-2)">
        <path id="Path_12" data-name="Path 12" d="M172.071,170.847c-9.075,3.226-17.624-1.933-18.2-2.291-9.648-6.027-14.061-19.724-9.7-33.449h42.963c3.416,16.932-3.975,31.8-15.062,35.74" transform="translate(-87.285 -82.253)" fill="#7d6662"/>
      </g>
    </g>
    <g id="Group_32" data-name="Group 32" transform="translate(118.518 160.482)">
      <g id="Group_31" data-name="Group 31" clip-path="url(#clip-path-11)">
        <g id="Group_27" data-name="Group 27" transform="translate(-1.123 -1.217)" opacity="0.1">
          <g id="Group_26" data-name="Group 26">
            <g id="Group_25" data-name="Group 25" clip-path="url(#clip-path-12)">
              <path id="Path_14" data-name="Path 14" d="M187.822,144.122a41.42,41.42,0,0,0-48.195.64V132.007h53.755l-5.56,12.115" transform="translate(-139.627 -132.007)" fill="#3e312f"/>
            </g>
          </g>
        </g>
        <g id="Group_30" data-name="Group 30" transform="translate(0.545 7.259)" opacity="0.05">
          <g id="Group_29" data-name="Group 29">
            <g id="Group_28" data-name="Group 28" clip-path="url(#clip-path-13)">
              <path id="Path_15" data-name="Path 15" d="M196.569,181.076H143.876q.592-12.751,1.185-25.5c.459,2.689,1.781,8.2,5.942,11.917a8.038,8.038,0,0,0,3.639,2.062c3.517.8,6.557-1.431,7.29-2l9.5,1.146c.92.534,4.46,2.444,7.925,1.084,2.974-1.167,4.222-4.086,5.61-7.33a24.922,24.922,0,0,0,1.972-8.858l9.629,27.483" transform="translate(-143.876 -153.593)" fill="#3e312f"/>
            </g>
          </g>
        </g>
      </g>
    </g>
    <g id="Group_34" data-name="Group 34" transform="translate(63.315 107.628)">
      <g id="Group_33" data-name="Group 33" clip-path="url(#clip-path-2)">
        <path id="Path_17" data-name="Path 17" d="M212.524,137.452c1.781-2.027,4.886-2.943,7.177-1.935.128.057,1.805.81,1.719,1.629-.083.79-1.691.941-4.448,1.935-3.975,1.432-5.284,2.793-5.863,2.24s.284-2.582,1.415-3.869" transform="translate(-128.85 -82.252)" fill="#efefee"/>
        <path id="Path_18" data-name="Path 18" d="M230.959,125.525a12.138,12.138,0,0,0,2.628,7.839c.559.661,1.981,2.341,3.032,1.935.792-.306.969-1.639,1.011-2.036-.6,2.526.452,4.737,2.022,5.294a3.506,3.506,0,0,0,3.336-.916c1.524-1.4,1.821-4.078.607-6.618l-12.636-5.5" transform="translate(-141.017 -76.433)" fill="#efefee"/>
        <path id="Path_19" data-name="Path 19" d="M158.58,169.823a20.683,20.683,0,0,0,10.311-4.073,22.976,22.976,0,0,0,6.065-7.025,25.668,25.668,0,0,0,3.01-15.07c1.254-1.077,2.886-2.241,3.764-1.729,1.208.706,0,4.011-.607,8.145-1.339,9.148,1.705,12.621,2.224,29.424,0,.126,0,.163.005.181.04,1.6.059,9.826-4.756,16.312-7.72,10.4-23.077,12.026-33.967,8.043-2.673-.978-10.169-3.784-14.253-11.1-4.7-8.423,1.315-16,2.173-36.5a121.021,121.021,0,0,0-.152-12.981l3.841-.815a23.486,23.486,0,0,0,2.325,15.883c4.593,8.17,13.812,11.833,20.016,11.3" transform="translate(-78.848 -86.319)" fill="#efefee"/>
      </g>
    </g>
    <g id="Group_39" data-name="Group 39" transform="translate(113.063 163.111)">
      <g id="Group_38" data-name="Group 38" clip-path="url(#clip-path-15)">
        <g id="Group_37" data-name="Group 37" transform="translate(-1.658 10.815)" opacity="0.03">
          <g id="Group_36" data-name="Group 36">
            <g id="Group_35" data-name="Group 35" clip-path="url(#clip-path-16)">
              <path id="Path_21" data-name="Path 21" d="M185.785,229.007H124.373V188.587c3.722,16.25,18.034,26.713,31.692,25.351,17.09-1.7,25.485-21.161,25.778-34.069a32.791,32.791,0,0,0-1.516-10.525l5.459,59.662" transform="translate(-124.373 -169.345)" fill="#422025"/>
            </g>
          </g>
        </g>
      </g>
    </g>
    <g id="Group_41" data-name="Group 41" transform="translate(63.315 107.628)">
      <g id="Group_40" data-name="Group 40" clip-path="url(#clip-path-17)">
        <path id="Path_23" data-name="Path 23" d="M187.707,208.894a6.74,6.74,0,0,0,7.076,4.161,6.659,6.659,0,0,0,5.168-4.429l-12.245.267" transform="translate(-114.749 -126.905)" fill="#7d6662"/>
        <path id="Path_24" data-name="Path 24" d="M210.368,275.25c-2.394,4.129-2.506,8.658-2.729,17.715s-.28,13.657,2.426,16.493c.89.932,4.334,2.3,11.221,5.04a84.652,84.652,0,0,0,8.036,2.9c5.392,1.568,8.088,2.352,10.008,1.68,2.082-.728,3.7-2.714,7.127-15.577,3.036-11.4,4.524-17.186,3.032-21.38-1.95-5.484-6.147-8.589-9.4-11-4.085-3.021-9.392-6.946-16.225-5.956-8.352,1.21-12.791,8.865-13.5,10.079" transform="translate(-126.796 -161.152)" fill="#efefee"/>
      </g>
    </g>
    <g id="Group_49" data-name="Group 49" transform="translate(144.062 211.491)">
      <g id="Group_48" data-name="Group 48" clip-path="url(#clip-path-18)">
        <g id="Group_44" data-name="Group 44" transform="translate(4.456 7.162)" opacity="0.19">
          <g id="Group_43" data-name="Group 43">
            <g id="Group_42" data-name="Group 42" clip-path="url(#clip-path-19)">
              <path id="Path_26" data-name="Path 26" d="M226.813,300.073c-.9,5.5-3.14,14.648-5.156,14.508-1.619-.113-2.765-6.2-2.767-11-.007-10.711,5.675-20.828,7.771-20.312,2.056.507,1.041,11.334.152,16.8" transform="translate(-218.89 -283.255)" fill="#422025"/>
            </g>
          </g>
        </g>
        <g id="Group_47" data-name="Group 47" transform="translate(-2.937 11.762)" opacity="0.03">
          <g id="Group_46" data-name="Group 46">
            <g id="Group_45" data-name="Group 45" clip-path="url(#clip-path-20)">
              <path id="Path_27" data-name="Path 27" d="M246.313,294.971c2.781,47.4-.7,58.292-4.549,59.1-4.018.846-6.917-9.628-20.572-14.813-6.344-2.41-10.169-1.839-14.456-5.651-4.611-4.1-6.125-10.04-6.672-14.508,1.147,1.506,9.6,12.29,21.077,11.759,12.982-.6,26.007-15.512,25.172-35.889" transform="translate(-200.064 -294.971)" fill="#422025"/>
            </g>
          </g>
        </g>
      </g>
    </g>
    <g id="Group_51" data-name="Group 51" transform="translate(63.315 107.628)">
      <g id="Group_50" data-name="Group 50" clip-path="url(#clip-path-2)">
        <path id="Path_29" data-name="Path 29" d="M192.307,207.022a9.443,9.443,0,0,0,1.252-.267c1.916-.548,2.081-1.26,3.165-1.308,1-.044,1.128.55,2.867.849a8.4,8.4,0,0,0,1.745.115,6.549,6.549,0,0,1-1.593,1.337,6.482,6.482,0,0,1-2.957.9,5.868,5.868,0,0,1-2.809-.485,5.747,5.747,0,0,1-1.669-1.146" transform="translate(-117.542 -124.972)" fill="#422025"/>
        <path id="Path_30" data-name="Path 30" d="M202.53,193c.582-.694,1.657-.657,2.628-.611,2.165.1,2.882.919,5.56,1.833,2.081.71,3.508,1.2,5.256.916,2.35-.377,3.732-1.891,3.943-1.629s-1.046,1.739-2.426,2.851a12.287,12.287,0,0,1-8.188,2.749c-2-.055-4.691-.128-6.166-2.036-.9-1.168-1.416-3.107-.607-4.073" transform="translate(-123.506 -117.029)" fill="#efefee"/>
      </g>
    </g>
    <g id="Group_56" data-name="Group 56" transform="translate(141.935 182.965)">
      <g id="Group_55" data-name="Group 55" clip-path="url(#clip-path-22)">
        <g id="Group_54" data-name="Group 54" transform="translate(-0.674 -0.831)" opacity="0.03">
          <g id="Group_53" data-name="Group 53">
            <g id="Group_52" data-name="Group 52" clip-path="url(#clip-path-23)">
              <path id="Path_32" data-name="Path 32" d="M219.1,202.607h-18.69v-9.568q8.848,5.25,10.092,3.816a1.238,1.238,0,0,0,.16-1.069,1.448,1.448,0,0,0,1.9.8,1.39,1.39,0,0,0,.455-1.145,1.836,1.836,0,0,0,1.024.5c.421.051,1.142-.027,1.251-.42.078-.281-.2-.587-.288-.681a7.675,7.675,0,0,0,1.463-.617,8.582,8.582,0,0,0,3.563-3.971l-.926,12.357" transform="translate(-200.408 -190.25)" fill="#422025"/>
            </g>
          </g>
        </g>
      </g>
    </g>
    <g id="Group_58" data-name="Group 58" transform="translate(63.315 107.628)">
      <g id="Group_57" data-name="Group 57" clip-path="url(#clip-path-2)">
        <path id="Path_34" data-name="Path 34" d="M174.169,193c-.582-.694-1.657-.657-2.628-.611-2.165.1-2.882.919-5.56,1.833-2.081.71-3.508,1.2-5.256.916-2.35-.377-3.732-1.891-3.943-1.629s1.046,1.739,2.426,2.851a12.287,12.287,0,0,0,8.188,2.749c2-.055,4.692-.128,6.167-2.036.9-1.168,1.416-3.107.607-4.073" transform="translate(-95.953 -117.029)" fill="#efefee"/>
      </g>
    </g>
    <g id="Group_63" data-name="Group 63" transform="translate(124.122 182.965)">
      <g id="Group_62" data-name="Group 62" clip-path="url(#clip-path-25)">
        <g id="Group_61" data-name="Group 61" transform="translate(-1.128 -0.831)" opacity="0.03">
          <g id="Group_60" data-name="Group 60">
            <g id="Group_59" data-name="Group 59" clip-path="url(#clip-path-23)">
              <path id="Path_36" data-name="Path 36" d="M154.813,202.607H173.5v-9.568q-8.848,5.25-10.092,3.816a1.238,1.238,0,0,1-.16-1.069,1.448,1.448,0,0,1-1.9.8,1.39,1.39,0,0,1-.455-1.145,1.836,1.836,0,0,1-1.024.5c-.421.051-1.142-.027-1.251-.42-.078-.281.2-.587.288-.681a7.674,7.674,0,0,1-1.463-.617,8.581,8.581,0,0,1-3.563-3.971l.926,12.357" transform="translate(-153.887 -190.25)" fill="#422025"/>
            </g>
          </g>
        </g>
      </g>
    </g>
    <g id="Group_65" data-name="Group 65" transform="translate(63.315 107.628)">
      <g id="Group_64" data-name="Group 64" clip-path="url(#clip-path-2)">
        <path id="Path_38" data-name="Path 38" d="M190.087,159.492q-.051,4.022-.1,8.043c-2.942.929-3.276,2.057-3.336,2.443-.317,2.05,3.72,5.046,7.3,4.607,1.394-.171,3.8-.994,3.917-2.571.1-1.337-1.5-2.406-1.719-2.546" transform="translate(-114.096 -97.063)" fill="#7d6662"/>
      </g>
    </g>
    <g id="Group_73" data-name="Group 73" transform="translate(135.851 170.056)">
      <g id="Group_72" data-name="Group 72" clip-path="url(#clip-path-28)">
        <g id="Group_68" data-name="Group 68" transform="translate(-0.465 10.818)" opacity="0.1">
          <g id="Group_67" data-name="Group 67">
            <g id="Group_66" data-name="Group 66" clip-path="url(#clip-path-29)">
              <path id="Path_40" data-name="Path 40" d="M200.134,193.609H185.448v-6.567a15.056,15.056,0,0,0,14.686,0Z" transform="translate(-185.448 -187.042)" fill="#a73e2b"/>
            </g>
          </g>
        </g>
        <g id="Group_71" data-name="Group 71" transform="translate(-17.774 -10.116)" opacity="0.1">
          <g id="Group_70" data-name="Group 70">
            <g id="Group_69" data-name="Group 69" clip-path="url(#clip-path-30)">
              <rect id="Rectangle_19" data-name="Rectangle 19" width="50.343" height="11.206" transform="translate(0)" fill="#a73e2b"/>
            </g>
          </g>
        </g>
      </g>
    </g>
    <g id="Group_75" data-name="Group 75" transform="translate(63.315 107.628)">
      <g id="Group_74" data-name="Group 74" clip-path="url(#clip-path-2)">
        <path id="Path_42" data-name="Path 42" d="M214.557,158.755a5.028,5.028,0,0,1-.09-3.8c.9-2.593,3.993-5.178,6.741-4.164,2.241.827,3.245,3.649,2.966,5.884-.029.23-.486,3.464-3.261,4.519a5.235,5.235,0,0,1-6.356-2.437" transform="translate(-130.796 -91.641)" fill="#fff"/>
      </g>
    </g>
    <g id="Group_80" data-name="Group 80" transform="translate(146.648 166.551)">
      <g id="Group_79" data-name="Group 79" clip-path="url(#clip-path-32)">
        <g id="Group_78" data-name="Group 78" transform="translate(-2.182 -0.614)" opacity="0.03">
          <g id="Group_77" data-name="Group 77">
            <g id="Group_76" data-name="Group 76" clip-path="url(#clip-path-33)">
              <path id="Path_44" data-name="Path 44" d="M221.29,155.513c-.131-.413-1.15-3.5-3.415-4.051-2.549-.624-6.321,2.043-7.28,7.128l-2.022-7.821a11,11,0,0,1,8.763-1.344,9.532,9.532,0,0,1,3.258,1.81q.348,2.139.7,4.277" transform="translate(-208.572 -149)" fill="#422025"/>
            </g>
          </g>
        </g>
      </g>
    </g>
    <g id="Group_85" data-name="Group 85" transform="translate(63.315 107.628)">
      <g id="Group_84" data-name="Group 84" clip-path="url(#clip-path-2)">
        <path id="Path_46" data-name="Path 46" d="M225.553,159.173c0,1.9-1.167,3.44-2.606,3.44s-2.606-1.54-2.606-3.44,1.167-3.439,2.606-3.439,2.606,1.54,2.606,3.439" transform="translate(-134.568 -94.781)" fill="#422025"/>
        <g id="Group_83" data-name="Group 83" transform="translate(83.105 58.781)" opacity="0.09">
          <g id="Group_82" data-name="Group 82">
            <g id="Group_81" data-name="Group 81" clip-path="url(#clip-path-35)">
              <path id="Path_47" data-name="Path 47" d="M213.612,153.238a2.438,2.438,0,0,1,.006-1.13,2.548,2.548,0,0,1,.5-1.047,2.375,2.375,0,0,1,.939-.7,2.119,2.119,0,0,1,1.126-.139,3.466,3.466,0,0,0-1.739,1.1,4.52,4.52,0,0,0-.836,1.911" transform="translate(-213.549 -150.201)" fill="#a73e2b"/>
            </g>
          </g>
        </g>
        <path id="Path_48" data-name="Path 48" d="M214.428,158.119a5.992,5.992,0,0,1-.463-3.149,6.214,6.214,0,0,1,1.318-2.978,6.859,6.859,0,0,1,2.584-2.052,5.307,5.307,0,0,1,1.657-.415,4.508,4.508,0,0,1,1.724.244,4.725,4.725,0,0,1,2.457,2.319,6.752,6.752,0,0,1,.708,3.224,5.9,5.9,0,0,1-.975,3.112,6.6,6.6,0,0,1-2.359,2.14,7.407,7.407,0,0,0,2-2.352,5.753,5.753,0,0,0,.673-2.9,6.439,6.439,0,0,0-.756-2.853,3.968,3.968,0,0,0-2.048-1.9,3.683,3.683,0,0,0-1.378-.211,4.854,4.854,0,0,0-1.4.327,6.561,6.561,0,0,0-2.39,1.737,7.405,7.405,0,0,0-.472.588c-.132.212-.285.417-.4.641a5.188,5.188,0,0,0-.549,1.4,6.6,6.6,0,0,0,.059,3.076" transform="translate(-130.667 -91.005)" fill="#422025"/>
        <path id="Path_49" data-name="Path 49" d="M173.021,157.983a5.025,5.025,0,0,0,.09-3.8c-.9-2.593-3.993-5.178-6.74-4.164-2.242.827-3.245,3.649-2.966,5.884.029.231.486,3.464,3.261,4.519a5.235,5.235,0,0,0,6.355-2.437" transform="translate(-99.961 -91.172)" fill="#fff"/>
      </g>
    </g>
    <g id="Group_90" data-name="Group 90" transform="translate(126.713 166.248)">
      <g id="Group_89" data-name="Group 89" clip-path="url(#clip-path-36)">
        <g id="Group_88" data-name="Group 88" transform="translate(-0.445 -0.614)" opacity="0.03">
          <g id="Group_87" data-name="Group 87">
            <g id="Group_86" data-name="Group 86" clip-path="url(#clip-path-33)">
              <path id="Path_51" data-name="Path 51" d="M162.224,154.741c.131-.413,1.15-3.5,3.415-4.051,2.549-.624,6.321,2.043,7.28,7.128L174.942,150a11,11,0,0,0-8.763-1.344,9.532,9.532,0,0,0-3.258,1.81q-.348,2.139-.7,4.277" transform="translate(-162.224 -148.228)" fill="#422025"/>
            </g>
          </g>
        </g>
      </g>
    </g>
    <g id="Group_98" data-name="Group 98" transform="translate(63.315 107.628)">
      <g id="Group_97" data-name="Group 97" clip-path="url(#clip-path-2)">
        <path id="Path_53" data-name="Path 53" d="M170.59,158.135c0,1.9,1.167,3.44,2.606,3.44s2.606-1.54,2.606-3.44-1.167-3.44-2.606-3.44-2.606,1.54-2.606,3.44" transform="translate(-104.353 -94.15)" fill="#422025"/>
        <g id="Group_93" data-name="Group 93" transform="translate(71.076 58.478)" opacity="0.09">
          <g id="Group_92" data-name="Group 92">
            <g id="Group_91" data-name="Group 91" clip-path="url(#clip-path-35)">
              <path id="Path_54" data-name="Path 54" d="M185.49,152.465a4.52,4.52,0,0,0-.836-1.911,3.469,3.469,0,0,0-1.739-1.1,2.119,2.119,0,0,1,1.126.139,2.375,2.375,0,0,1,.939.7,2.548,2.548,0,0,1,.5,1.047,2.438,2.438,0,0,1,.005,1.13" transform="translate(-182.915 -149.429)" fill="#a73e2b"/>
            </g>
          </g>
        </g>
        <path id="Path_55" data-name="Path 55" d="M172.518,157.347a6.6,6.6,0,0,0,.059-3.076,5.187,5.187,0,0,0-.549-1.4c-.112-.225-.264-.429-.4-.641a7.328,7.328,0,0,0-.472-.588,6.562,6.562,0,0,0-2.39-1.737,4.869,4.869,0,0,0-1.4-.327,3.692,3.692,0,0,0-1.378.211,3.968,3.968,0,0,0-2.048,1.9,6.439,6.439,0,0,0-.756,2.853,5.754,5.754,0,0,0,.673,2.9,7.4,7.4,0,0,0,2,2.351,6.6,6.6,0,0,1-2.359-2.139,5.9,5.9,0,0,1-.975-3.112,6.753,6.753,0,0,1,.708-3.225A4.729,4.729,0,0,1,165.7,149a4.515,4.515,0,0,1,1.724-.244,5.318,5.318,0,0,1,1.657.415,6.86,6.86,0,0,1,2.584,2.052,6.214,6.214,0,0,1,1.318,2.978,5.993,5.993,0,0,1-.463,3.149" transform="translate(-99.457 -90.536)" fill="#422025"/>
        <path id="Path_56" data-name="Path 56" d="M175.309,136.073c-1.781-2.027-4.886-2.943-7.177-1.935-.128.057-1.805.81-1.719,1.629.083.79,1.691.941,4.448,1.935,3.975,1.432,5.284,2.793,5.863,2.24s-.284-2.582-1.415-3.869" transform="translate(-101.814 -81.414)" fill="#efefee"/>
        <g id="Group_96" data-name="Group 96" transform="translate(72.092 62.006)" opacity="0.788">
          <g id="Group_95" data-name="Group 95">
            <g id="Group_94" data-name="Group 94" clip-path="url(#clip-path-40)">
              <path id="Path_57" data-name="Path 57" d="M189.495,158.414q.082,1.007.138,2.013l.1,2.012.071,2.012.044,2.012.007.31-.324.119a7.993,7.993,0,0,0-2.283,1.16,1.866,1.866,0,0,0-.63.822,1.374,1.374,0,0,0,.154.942,5.3,5.3,0,0,0,1.673,1.783,8.469,8.469,0,0,0,2.3,1.135,6.532,6.532,0,0,0,2.515.315,6.985,6.985,0,0,0,2.475-.682,2.965,2.965,0,0,0,.978-.741,1.423,1.423,0,0,0,.326-1.1,2.572,2.572,0,0,0-.527-1.164,5.668,5.668,0,0,0-.952-.975,4.8,4.8,0,0,1,1.128.818,2.709,2.709,0,0,1,.769,1.237,1.9,1.9,0,0,1-.264,1.522,3.6,3.6,0,0,1-1.1,1.03,6.337,6.337,0,0,1-1.317.622,7.7,7.7,0,0,1-1.411.355,7.287,7.287,0,0,1-2.915-.228,8.862,8.862,0,0,1-2.634-1.236,5.862,5.862,0,0,1-2.036-2.217,2.443,2.443,0,0,1-.2-1.737,2.729,2.729,0,0,1,1.025-1.33,6.4,6.4,0,0,1,1.3-.732,10.378,10.378,0,0,1,1.351-.474l-.317.429.1-2.01.121-2.01.149-2.009q.082-1,.189-2.009" transform="translate(-185.5 -158.414)" fill="#5f4c49"/>
            </g>
          </g>
        </g>
        <path id="Path_58" data-name="Path 58" d="M128.5,153.245a3.556,3.556,0,0,0-2.017-.625c-2.1.048-3.37,2.253-3.538,2.545-1.893,3.294.441,7.588.91,8.45a12.764,12.764,0,0,0,5.012,4.983,41.139,41.139,0,0,0-.367-15.353" transform="translate(-74.972 -92.889)" fill="#7d6662"/>
      </g>
    </g>
    <g id="Group_106" data-name="Group 106" transform="translate(110.557 167.359)">
      <g id="Group_105" data-name="Group 105" clip-path="url(#clip-path-41)">
        <g id="Group_101" data-name="Group 101" transform="translate(3.601 -0.384)" opacity="0.533">
          <g id="Group_100" data-name="Group 100">
            <g id="Group_99" data-name="Group 99" clip-path="url(#clip-path-42)">
              <path id="Path_60" data-name="Path 60" d="M131.386,172.236h5.106V151.642h-5.106a39.573,39.573,0,0,1,0,20.594" transform="translate(-131.386 -151.642)" fill="#64504e"/>
            </g>
          </g>
        </g>
        <g id="Group_104" data-name="Group 104" transform="translate(1.589 3.12)" opacity="0.853">
          <g id="Group_103" data-name="Group 103">
            <g id="Group_102" data-name="Group 102" clip-path="url(#clip-path-43)">
              <path id="Path_61" data-name="Path 61" d="M126.261,161.926a3.857,3.857,0,0,1,1.372-1.1,2.918,2.918,0,0,1,.925-.246,1.771,1.771,0,0,1,.5.018,2.162,2.162,0,0,1,.491.106,3.761,3.761,0,0,1,1.606,1.059,6.452,6.452,0,0,1,1.034,1.513,9.63,9.63,0,0,1,.945,3.388,10.593,10.593,0,0,1-.2,3.437c-.265-1.121-.481-2.207-.775-3.258a15.946,15.946,0,0,0-1.1-3,4.9,4.9,0,0,0-1.872-2.218,3.249,3.249,0,0,0-2.929.3" transform="translate(-126.261 -160.565)" fill="#64504e"/>
            </g>
          </g>
        </g>
      </g>
    </g>
    <g id="Group_108" data-name="Group 108" transform="translate(63.315 107.628)">
      <g id="Group_107" data-name="Group 107" clip-path="url(#clip-path-2)">
        <path id="Path_63" data-name="Path 63" d="M193.721,102.83c-1.454-1.206-2.948-2.558-4.448-4.073a62.692,62.692,0,0,1-9.7-12.712,49.615,49.615,0,0,0-23.559-4.494c-4.581.3-7.3.477-10.828,1.851-2.95,1.15-11.642,5.16-16.365,6.192a2.634,2.634,0,0,1-2.022-.2c-1.382-.923-1.136-3.68-1.011-5.091.18-2.028.617-2.159.708-4.073a21.114,21.114,0,0,0-.4-4.072c-.634-4.452-.765-4.561-.708-5.4a9.256,9.256,0,0,1,2.123-5.09,22.918,22.918,0,0,1,1.314-3.36c6.11-12.581,22.135-15.745,26.182-16.545,5.2-1.026,11.779-2.326,19.409.611A28.858,28.858,0,0,1,187,55.843a30.989,30.989,0,0,1,5.762,15.119c.772,5.688-.491,6.639-.3,18.173a88.243,88.243,0,0,0,.719,10.079c.2,1.516.4,2.765.545,3.615" transform="translate(-76.89 -27.267)" fill="#d5415e"/>
      </g>
    </g>
    <g id="Group_131" data-name="Group 131" transform="translate(111.797 124.933)">
      <g id="Group_130" data-name="Group 130" clip-path="url(#clip-path-45)">
        <g id="Group_111" data-name="Group 111" transform="translate(0 15.825)" opacity="0.08">
          <g id="Group_110" data-name="Group 110">
            <g id="Group_109" data-name="Group 109" clip-path="url(#clip-path-46)">
              <path id="Path_65" data-name="Path 65" d="M177.578,97.273H125.372V89.434a121.335,121.335,0,0,1,28.014-4.48c10.226-.4,15.7.761,20.42,2.749a37.81,37.81,0,0,1,7.261,4.061l-3.49,5.509" transform="translate(-125.372 -84.876)" fill="#422025"/>
            </g>
          </g>
        </g>
        <g id="Group_114" data-name="Group 114" transform="translate(52.206 16.921)" opacity="0.15">
          <g id="Group_113" data-name="Group 113">
            <g id="Group_112" data-name="Group 112" clip-path="url(#clip-path-47)">
              <path id="Path_66" data-name="Path 66" d="M278.212,131.244l-19.883.908c3.835-14.693,4.2-25.986,3.709-33.895,0,0-.656-10.536.1-10.589.347-.024.3,5.73,3.134,6.923a3.733,3.733,0,0,0,2.729-.1,27.6,27.6,0,0,0-3.032,12.319c-.048,14.281,11.635,23.242,13.243,24.435" transform="translate(-258.329 -87.668)" fill="#422025"/>
            </g>
          </g>
        </g>
        <path id="Path_67" data-name="Path 67" d="M178.177,117.071c-.627,3.963-13.687,7.151-60.755,5.953l2.761-27.365a196.814,196.814,0,0,1,22.107-2.106c7.46-.289,34.211-1.326,36.191,6.007.5,1.847-1.023,2.565-1.416,7.33-.468,5.681,1.38,8.488,1.112,10.181" transform="translate(-120.544 -74.188)" fill="#efefee"/>
        <g id="Group_117" data-name="Group 117" transform="translate(2.843 -4.459)" opacity="0.05">
          <g id="Group_116" data-name="Group 116">
            <g id="Group_115" data-name="Group 115" clip-path="url(#clip-path-48)">
              <path id="Path_68" data-name="Path 68" d="M198.725,63.964c-1.064-2.281-8.519-17.585-25.98-22.3-14.2-3.83-29.612.794-40.133,11.912V33.217h58.531l7.582,30.747" transform="translate(-132.612 -33.217)" fill="#fff"/>
            </g>
          </g>
        </g>
        <g id="Group_120" data-name="Group 120" transform="translate(14.67 7.241)" opacity="0.05">
          <g id="Group_119" data-name="Group 119">
            <g id="Group_118" data-name="Group 118" clip-path="url(#clip-path-49)">
              <path id="Path_69" data-name="Path 69" d="M169.709,63.022c-3.082.112-7,1.3-6.975,2.546.02,1.16,3.44,2.449,6.47,2.036,2.891-.394,5.709-2.376,5.459-3.462-.291-1.263-4.7-1.129-4.953-1.12" transform="translate(-162.734 -63.014)" fill="#fff"/>
            </g>
          </g>
        </g>
        <g id="Group_123" data-name="Group 123" transform="translate(31.551 5.5)" opacity="0.05">
          <g id="Group_122" data-name="Group 122">
            <g id="Group_121" data-name="Group 121" clip-path="url(#clip-path-50)">
              <path id="Path_70" data-name="Path 70" d="M207.04,58.6c-1.035.219-1.831,2.552-.91,3.462a2.215,2.215,0,0,0,3.134-.611c.5-1.176-1.168-3.074-2.224-2.851" transform="translate(-205.725 -58.581)" fill="#fff"/>
            </g>
          </g>
        </g>
        <g id="Group_126" data-name="Group 126" transform="translate(-3.507 20.133)" opacity="0.03">
          <g id="Group_125" data-name="Group 125">
            <g id="Group_124" data-name="Group 124" clip-path="url(#clip-path-51)">
              <path id="Path_71" data-name="Path 71" d="M172.628,124.549h-55.2a45.225,45.225,0,0,1,.606-21.326,43.07,43.07,0,0,1,2.818-7.377c3.2,8.585,3.129,12.369,2.944,14.3a28.189,28.189,0,0,0-.686,3.988c-.179,2.039-.269,3.059.08,3.546,1.534,2.144,11.985-3.609,17.145-5.474,7.6-2.747,19.637-3.88,38.252,4.863l-5.964,7.48" transform="translate(-116.441 -95.846)" fill="#422025"/>
            </g>
          </g>
        </g>
        <g id="Group_129" data-name="Group 129" transform="translate(27.306 25.428)" opacity="0.03">
          <g id="Group_128" data-name="Group 128">
            <g id="Group_127" data-name="Group 127" clip-path="url(#clip-path-52)">
              <path id="Path_72" data-name="Path 72" d="M215.335,111.211c-4.351-2.645-9.43-1.937-14.557-1.222-2.533.353-5.9,1.03-5.863,1.425.065.68,10-1.866,19.713,2.036,1.545.621,3.974,1.762,4.246,1.324s-1.506-2.328-3.538-3.563" transform="translate(-194.915 -109.333)" fill="#422025"/>
            </g>
          </g>
        </g>
      </g>
    </g>
    <g id="Group_133" data-name="Group 133" transform="translate(63.315 107.628)">
      <g id="Group_132" data-name="Group 132" clip-path="url(#clip-path-2)">
        <path id="Path_74" data-name="Path 74" d="M261.991,149.226a3.553,3.553,0,0,1,2.017-.626c2.1.048,3.37,2.253,3.538,2.545,1.893,3.294-.441,7.588-.91,8.45a12.764,12.764,0,0,1-5.012,4.983,41.139,41.139,0,0,1,.367-15.353" transform="translate(-159.307 -90.448)" fill="#7d6662"/>
      </g>
    </g>
    <g id="Group_141" data-name="Group 141" transform="translate(165.081 165.78)">
      <g id="Group_140" data-name="Group 140" clip-path="url(#clip-path-54)">
        <g id="Group_136" data-name="Group 136" transform="translate(-1.505 -0.384)" opacity="0.1">
          <g id="Group_135" data-name="Group 135">
            <g id="Group_134" data-name="Group 134" clip-path="url(#clip-path-55)">
              <path id="Path_76" data-name="Path 76" d="M262.346,168.216H257.24V147.622h5.106a39.575,39.575,0,0,0,0,20.594" transform="translate(-257.24 -147.622)" fill="#64504e"/>
            </g>
          </g>
        </g>
        <g id="Group_139" data-name="Group 139" transform="translate(-1.316 3.12)" opacity="0.83">
          <g id="Group_138" data-name="Group 138">
            <g id="Group_137" data-name="Group 137" clip-path="url(#clip-path-43)">
              <path id="Path_77" data-name="Path 77" d="M264.65,157.906a3.249,3.249,0,0,0-2.929-.3,4.9,4.9,0,0,0-1.872,2.218,15.945,15.945,0,0,0-1.1,3c-.293,1.051-.51,2.136-.775,3.258a10.593,10.593,0,0,1-.2-3.437,9.63,9.63,0,0,1,.945-3.388,6.472,6.472,0,0,1,1.034-1.513,3.768,3.768,0,0,1,1.607-1.059,2.164,2.164,0,0,1,.491-.106,1.771,1.771,0,0,1,.5-.018,2.919,2.919,0,0,1,.925.246,3.857,3.857,0,0,1,1.372,1.1" transform="translate(-257.72 -156.545)" fill="#64504e"/>
            </g>
          </g>
        </g>
      </g>
    </g>
    <g id="Group_143" data-name="Group 143" transform="translate(63.315 107.628)">
      <g id="Group_142" data-name="Group 142" clip-path="url(#clip-path-2)">
        <path id="Path_79" data-name="Path 79" d="M289.555,184.891a8.329,8.329,0,0,1,8.037,7.636,8.963,8.963,0,0,1-3.033,6.872c-2.25,2.2-7,4.794-11.221,2.443a8.988,8.988,0,0,1-4.246-9.01c.77-5.245,6.336-8.11,10.463-7.941" transform="translate(-170.196 -112.485)" fill="#efefee"/>
      </g>
    </g>
    <g id="Group_148" data-name="Group 148" transform="translate(172.12 180.027)">
      <g id="Group_147" data-name="Group 147" clip-path="url(#clip-path-58)">
        <g id="Group_146" data-name="Group 146" transform="translate(-1.072 2.145)" opacity="0.03">
          <g id="Group_145" data-name="Group 145">
            <g id="Group_144" data-name="Group 144" clip-path="url(#clip-path-59)">
              <path id="Path_81" data-name="Path 81" d="M298.41,206.089H276.271q.75-6.453,1.5-12.906c-.114,5.233.985,8.911,2.745,9.279.4.084,1.128.055,2.224-.916-.508,1.886.3,3.508,1.213,3.767.966.274,2.655-.815,3.033-2.953.1.4.45,1.808,1.314,2.036,1.052.278,2.7-1.244,3.746-4.066a2.5,2.5,0,0,0,1.41.3c2.335-.246,4.265-4.4,4.953-10.283Z" transform="translate(-276.271 -190.347)" fill="#422025"/>
            </g>
          </g>
        </g>
      </g>
    </g>
    <g id="Group_150" data-name="Group 150" transform="translate(63.315 107.628)">
      <g id="Group_149" data-name="Group 149" clip-path="url(#clip-path-2)">
        <path id="Path_83" data-name="Path 83" d="M183.789,190.854c1.382.194,1.659,3.851,3.74,11.708a14.075,14.075,0,0,0,2.123,4.989,15.53,15.53,0,0,0,3.134,3.054c1.961,1.723,2.081,2.745,6.975,14.152a6.687,6.687,0,0,1-1.011,7.534q-.455,4.887-.91,9.774l-6.975-6.618A15.56,15.56,0,0,1,184.9,232.8c-.481-.355-1.277-.987-4.751-5.091-3.978-4.7-3.744-4.825-4.954-5.7-2.248-1.629-4.061-1.919-4.245-3.258-.143-1.035.781-2.017,1.516-2.647a4.22,4.22,0,0,1-.505-1.833c-.107-3.319,4.126-6.755,10.412-8.756-.438-2.476-.673-4.566-.809-6.109-.492-5.591.054-7.091,1.011-7.941.381-.338.76-.675,1.213-.611" transform="translate(-104.563 -116.106)" fill="#1d2031"/>
      </g>
    </g>
    <g id="Group_155" data-name="Group 155" transform="translate(129.687 182.368)">
      <g id="Group_154" data-name="Group 154" clip-path="url(#clip-path-61)">
        <g id="Group_153" data-name="Group 153" transform="translate(1.566 15.988)" opacity="0.671">
          <g id="Group_152" data-name="Group 152">
            <g id="Group_151" data-name="Group 151" clip-path="url(#clip-path-62)">
              <path id="Path_85" data-name="Path 85" d="M189.624,231.887a9.7,9.7,0,0,0-5.217.483,13.809,13.809,0,0,0-4.3,3.008,10.137,10.137,0,0,0-1.649,2.035,7.252,7.252,0,0,0-.571,1.171,6.48,6.48,0,0,0-.313,1.258,4.6,4.6,0,0,0-.031,1.293,1.412,1.412,0,0,0,.611,1.033,1.927,1.927,0,0,0,1.236.248,4.173,4.173,0,0,0,1.276-.353,3.77,3.77,0,0,1-1.262.464,2.084,2.084,0,0,1-1.357-.181,1.641,1.641,0,0,1-.766-1.164,4.865,4.865,0,0,1-.029-1.377,6.147,6.147,0,0,1,.875-2.587,10.453,10.453,0,0,1,1.684-2.14,21.526,21.526,0,0,1,2.085-1.726,8.893,8.893,0,0,1,5.059-1.785,9.078,9.078,0,0,1,2.667.32" transform="translate(-176.318 -231.564)" fill="#fff"/>
              <path id="Path_86" data-name="Path 86" d="M176.142,255.311a.51.51,0,0,1-.217.356.661.661,0,0,1-.424.123.588.588,0,0,1-.576-.555,2.09,2.09,0,0,0,.6.134,2.067,2.067,0,0,0,.615-.059" transform="translate(-174.924 -245.941)" fill="#fff"/>
              <path id="Path_87" data-name="Path 87" d="M196.767,260.217a2.85,2.85,0,0,0,1.192.76,1.3,1.3,0,0,0,1.216-.183,2.153,2.153,0,0,0,.672-1.131,2.823,2.823,0,0,0-.058-1.413,2.119,2.119,0,0,1,.382,1.469,2.153,2.153,0,0,1-.735,1.406,1.539,1.539,0,0,1-1.59.16,2.137,2.137,0,0,1-1.079-1.068" transform="translate(-188.19 -247.772)" fill="#fff"/>
              <path id="Path_88" data-name="Path 88" d="M197.315,245.427a9.028,9.028,0,0,0-2.8-.611,8.093,8.093,0,0,0-2.816.361,12.96,12.96,0,0,0-4.672,3.206,7.092,7.092,0,0,0-.946,1.039,1.759,1.759,0,0,0-.391,1.208,1.718,1.718,0,0,0,.635,1.086,2.126,2.126,0,0,0,1.191.532,4.458,4.458,0,0,0,2.628-.719,10.757,10.757,0,0,0,2.211-1.777l.106-.109.1.1a2.272,2.272,0,0,0,2.179.5l.21-.062-.069.206a3.326,3.326,0,0,0,1.182,3.783,3.323,3.323,0,0,1-1.341-1.674,3.44,3.44,0,0,1-.055-2.18l.14.143a2.585,2.585,0,0,1-1.282.078,2.53,2.53,0,0,1-1.163-.569l.211-.01a9.954,9.954,0,0,1-2.246,1.888,4.821,4.821,0,0,1-2.859.8,2.541,2.541,0,0,1-1.414-.614,2.06,2.06,0,0,1-.781-1.356,2.163,2.163,0,0,1,.477-1.483,7.484,7.484,0,0,1,1.009-1.09,27.219,27.219,0,0,1,2.23-1.879,8.608,8.608,0,0,1,2.628-1.3,8.112,8.112,0,0,1,5.7.509" transform="translate(-181.204 -239.492)" fill="#fff"/>
            </g>
          </g>
        </g>
      </g>
    </g>
    <g id="Group_160" data-name="Group 160" transform="translate(62.569 107.432)">
      <g id="Group_159" data-name="Group 159" clip-path="url(#clip-path)">
        <g id="Group_158" data-name="Group 158" transform="translate(7.826 6.984)" opacity="0.17">
          <g id="Group_157" data-name="Group 157">
            <g id="Group_156" data-name="Group 156" clip-path="url(#clip-path-64)">
              <path id="Path_94" data-name="Path 94" d="M23.393,221.506c-4.61,0-4.618,7.164,0,7.164s4.618-7.164,0-7.164" transform="translate(-19.932 -141.515)" fill="#fff"/>
              <path id="Path_95" data-name="Path 95" d="M95.441,204.075c-4.61,0-4.618,7.164,0,7.164s4.618-7.164,0-7.164" transform="translate(-63.69 -130.928)" fill="#fff"/>
              <path id="Path_99" data-name="Path 99" d="M46.828,293.2a1.9,1.9,0,0,0,0,3.793,1.9,1.9,0,0,0,0-3.793" transform="translate(-35.155 -185.057)" fill="#fff"/>
              <path id="Path_100" data-name="Path 100" d="M354.778,207.206a1.9,1.9,0,0,0,0,3.793,1.9,1.9,0,0,0,0-3.793" transform="translate(-222.186 -132.83)" fill="#fff"/>
              <path id="Path_101" data-name="Path 101" d="M387.317,153.75a1.9,1.9,0,0,0,0,3.793,1.9,1.9,0,0,0,0-3.793" transform="translate(-241.949 -100.363)" fill="#fff"/>
              <path id="Path_102" data-name="Path 102" d="M295.512,51.487a1.9,1.9,0,0,0,0,3.793,1.9,1.9,0,0,0,0-3.793" transform="translate(-186.192 -38.255)" fill="#fff"/>
              <path id="Path_103" data-name="Path 103" d="M228.112,17.787a1.9,1.9,0,0,0,0,3.793,1.9,1.9,0,0,0,0-3.793" transform="translate(-145.257 -17.787)" fill="#fff"/>
              <path id="Path_104" data-name="Path 104" d="M370.83,270.406a1.265,1.265,0,0,0,0,2.529,1.265,1.265,0,0,0,0-2.529" transform="translate(-232.306 -171.214)" fill="#fff"/>
              <path id="Path_105" data-name="Path 105" d="M399.882,199.519a1.265,1.265,0,0,0,0,2.529,1.265,1.265,0,0,0,0-2.529" transform="translate(-249.951 -128.161)" fill="#fff"/>
              <path id="Path_106" data-name="Path 106" d="M86.121,105.391a1.265,1.265,0,0,0,0,2.529,1.265,1.265,0,0,0,0-2.529" transform="translate(-59.39 -70.993)" fill="#fff"/>
              <path id="Path_107" data-name="Path 107" d="M79.149,236.706a1.265,1.265,0,0,0,0,2.529,1.265,1.265,0,0,0,0-2.529" transform="translate(-55.155 -150.746)" fill="#fff"/>
            </g>
          </g>
        </g>
        <path id="Path_109" data-name="Path 109" d="M400.434,257.7c2.082-1.973,3.59-2.467,4.063-4.2.063-.23.318-1.163-.1-1.531-.678-.59-2.448.444-2.592.172-.1-.188.677-.844,1.373-1.315,1.238-.836,1.758-.771,2.105-1.395a1.625,1.625,0,0,0-.047-1.8c-.61-.533-2.073.272-2.539-.374l-.013-.019c-.239-.386.4-1.073,1.121-2.161.9-1.355,1.7-2.575,1.3-3.339a1.562,1.562,0,0,0-1.337-.654c-.918-.009-1.642.767-2.335,1.51-.784.84-1.029,1.434-1.37,1.365-.423-.085-.31-1.052-.9-1.283a1.412,1.412,0,0,0-1.345.5c-.33.351-.393.723-.576,2.028-.2,1.446-.306,2.273-.459,2.279-.176.006-.124-1.086-.773-1.4a1,1,0,0,0-.938.072c-.572.369-.522,1.31-.5,1.809a12.236,12.236,0,0,0,.595,2.456c.128.433.3,1.01.191,1.065-.131.064-.446-.671-.917-.667-.385,0-.667.5-.706.571-.487.886.274,2.238.939,3.329a48.537,48.537,0,0,0,3.718,5.257,18.6,18.6,0,0,1,2.037-2.283" transform="translate(-239.042 -146.425)" fill="#64b895"/>
      </g>
    </g>
    <g id="Group_168" data-name="Group 168" transform="translate(217.113 202.097)">
      <g id="Group_167" data-name="Group 167" clip-path="url(#clip-path-65)">
        <g id="Group_163" data-name="Group 163" transform="translate(4.591 4.297)" opacity="0.3">
          <g id="Group_162" data-name="Group 162">
            <g id="Group_161" data-name="Group 161" clip-path="url(#clip-path-66)">
              <path id="Path_110" data-name="Path 110" d="M405.459,269.536a27.674,27.674,0,0,1-.151-4.5l.026-.563c.009-.188.029-.375.042-.563.027-.375.069-.749.1-1.124.09-.747.2-1.493.332-2.234.065-.371.145-.739.221-1.108s.169-.733.26-1.1c.2-.726.394-1.453.637-2.165a26.778,26.778,0,0,1,1.752-4.147c-.431,1.438-.85,2.865-1.219,4.3s-.686,2.886-.951,4.344-.48,2.924-.654,4.4-.285,2.959-.4,4.456" transform="translate(-405.277 -252.034)" fill="#422025"/>
            </g>
          </g>
        </g>
        <g id="Group_166" data-name="Group 166" transform="translate(-6.245 -2.488)" opacity="0.07">
          <g id="Group_165" data-name="Group 165">
            <g id="Group_164" data-name="Group 164" clip-path="url(#clip-path-67)">
              <path id="Path_111" data-name="Path 111" d="M377.681,248.612l11.057,7.523a52.961,52.961,0,0,1,5.992-21.382l-1.479.429-15.571,13.43" transform="translate(-377.681 -234.753)" fill="#422025"/>
            </g>
          </g>
        </g>
      </g>
    </g>
    <g id="Group_170" data-name="Group 170" transform="translate(62.569 107.432)">
      <g id="Group_169" data-name="Group 169" clip-path="url(#clip-path)">
        <path id="Path_113" data-name="Path 113" d="M387.773,291.257c-2.421,1.539-3.995,1.736-4.79,3.342-.106.214-.535,1.081-.19,1.522.553.709,2.487.031,2.577.327.062.2-.825.7-1.6,1.028-1.375.583-1.873.42-2.333.966a1.625,1.625,0,0,0-.3,1.776c.5.64,2.086.13,2.42.853l.009.021c.161.426-.6.976-1.514,1.907-1.138,1.159-2.162,2.2-1.917,3.028a1.562,1.562,0,0,0,1.187.9,3.547,3.547,0,0,0,2.581-1.036c.93-.675,1.284-1.211,1.606-1.078.4.165.1,1.092.638,1.431a1.411,1.411,0,0,0,1.416-.238c.391-.281.524-.635.953-1.881.476-1.38.735-2.173.887-2.149.174.028-.086,1.09.491,1.525a1,1,0,0,0,.935.108c.632-.253.763-1.186.832-1.681a12.28,12.28,0,0,0-.114-2.525c-.043-.45-.106-1.05.016-1.082.141-.038.31.744.773.83.379.07.751-.363.8-.426.647-.776.159-2.249-.285-3.447a48.6,48.6,0,0,0-2.645-5.871,18.536,18.536,0,0,1-2.436,1.851" transform="translate(-230.852 -175.769)" fill="#4ca07d"/>
      </g>
    </g>
    <g id="Group_178" data-name="Group 178" transform="translate(211.818 221.068)">
      <g id="Group_177" data-name="Group 177" clip-path="url(#clip-path-69)">
        <g id="Group_173" data-name="Group 173" transform="translate(4.191 -2.844)" opacity="0.3">
          <g id="Group_172" data-name="Group 172">
            <g id="Group_171" data-name="Group 171" clip-path="url(#clip-path-70)">
              <path id="Path_114" data-name="Path 114" d="M397.286,282.163a27.683,27.683,0,0,1-.711,4.445l-.134.548c-.045.183-.1.363-.149.544-.1.363-.211.722-.318,1.083-.231.716-.48,1.427-.752,2.129-.135.351-.284.7-.429,1.045s-.307.688-.465,1.029c-.333.676-.664,1.351-1.039,2a26.75,26.75,0,0,1-2.513,3.735c.7-1.329,1.383-2.65,2.019-3.991s1.224-2.7,1.764-4.082,1.03-2.778,1.483-4.193.845-2.85,1.245-4.3" transform="translate(-390.775 -282.163)" fill="#422025"/>
            </g>
          </g>
        </g>
        <g id="Group_176" data-name="Group 176" transform="translate(0.139 0)" opacity="0.07">
          <g id="Group_175" data-name="Group 175">
            <g id="Group_174" data-name="Group 174" clip-path="url(#clip-path-71)">
              <path id="Path_115" data-name="Path 115" d="M386.958,298.9a53.03,53.03,0,0,1-6.5,10.347l1.533-.138L399.838,298.9l-9.415-9.5a53.024,53.024,0,0,1-3.466,9.495" transform="translate(-380.454 -289.405)" fill="#422025"/>
            </g>
          </g>
        </g>
      </g>
    </g>
    <g id="Group_180" data-name="Group 180" transform="translate(62.569 107.432)">
      <g id="Group_179" data-name="Group 179" clip-path="url(#clip-path)">
        <path id="Path_117" data-name="Path 117" d="M407.219,284.981c1.879,2.167,2.306,3.7,4.012,4.245.227.073,1.148.37,1.534-.036.62-.651-.336-2.465-.057-2.6.193-.091.814.713,1.253,1.43.78,1.273.692,1.79,1.3,2.165a1.624,1.624,0,0,0,1.8.033c.56-.586-.179-2.083.487-2.519l.02-.012c.4-.222,1.054.45,2.109,1.216,1.314.954,2.5,1.814,3.277,1.45a1.563,1.563,0,0,0,.713-1.306c.05-.917-.694-1.675-1.405-2.4-.8-.82-1.387-1.091-1.3-1.429.1-.419,1.064-.263,1.321-.842a1.412,1.412,0,0,0-.443-1.366c-.336-.345-.706-.424-2-.665-1.435-.267-2.258-.406-2.256-.56,0-.176,1.09-.076,1.435-.71a1,1,0,0,0-.03-.941c-.343-.587-1.286-.579-1.785-.575a12.268,12.268,0,0,0-2.48.486c-.439.109-1.022.26-1.073.144-.058-.134.691-.416.707-.887.013-.385-.47-.689-.539-.731-.863-.525-2.248.175-3.367.791a48.591,48.591,0,0,0-5.416,3.482,18.573,18.573,0,0,1,2.19,2.136" transform="translate(-245.992 -169.078)" fill="#68c49f"/>
      </g>
    </g>
    <g id="Group_188" data-name="Group 188" transform="translate(221.606 216.742)">
      <g id="Group_187" data-name="Group 187" clip-path="url(#clip-path-73)">
        <g id="Group_183" data-name="Group 183" transform="translate(-2.901 4.219)" opacity="0.3">
          <g id="Group_182" data-name="Group 182">
            <g id="Group_181" data-name="Group 181" clip-path="url(#clip-path-74)">
              <path id="Path_118" data-name="Path 118" d="M408.784,290.533c-.361-.107-.723-.211-1.086-.309s-.729-.188-1.1-.27c-.734-.166-1.474-.307-2.217-.43-.373-.053-.744-.112-1.118-.155-.187-.022-.373-.049-.56-.067l-.562-.051a27.665,27.665,0,0,0-4.5-.047c1.49.182,2.967.364,4.434.6s2.924.507,4.366.848,2.875.713,4.3,1.142,2.828.914,4.245,1.408a26.773,26.773,0,0,0-4.065-1.935c-.7-.274-1.418-.5-2.135-.732" transform="translate(-397.642 -289.134)" fill="#422025"/>
            </g>
          </g>
        </g>
        <g id="Group_186" data-name="Group 186" transform="translate(0 -6.256)" opacity="0.07">
          <g id="Group_185" data-name="Group 185">
            <g id="Group_184" data-name="Group 184" clip-path="url(#clip-path-75)">
              <path id="Path_119" data-name="Path 119" d="M413.034,262.456l-8.005,10.714a52.975,52.975,0,0,1,21.1,6.932q-.181-.748-.363-1.5l-12.728-16.149" transform="translate(-405.029 -262.456)" fill="#422025"/>
            </g>
          </g>
        </g>
      </g>
    </g>
    <g id="Group_190" data-name="Group 190" transform="translate(62.569 107.432)">
      <g id="Group_189" data-name="Group 189" clip-path="url(#clip-path)">
        <path id="Path_121" data-name="Path 121" d="M407.011,296.968a3.106,3.106,0,0,0,1.464-2.013c.367-1.342.166-3.656-1.6-4.409a3.376,3.376,0,0,0-4.082,1.542,3.631,3.631,0,0,0,1.414,4.764,3.145,3.145,0,0,0,2.809.117" transform="translate(-244.384 -176.328)" fill="#f7a22f"/>
      </g>
    </g>
    <g id="Group_195" data-name="Group 195" transform="translate(220.566 221.43)">
      <g id="Group_194" data-name="Group 194" clip-path="url(#clip-path-77)">
        <g id="Group_193" data-name="Group 193" transform="translate(-5.325 -4.249)" opacity="0.07">
          <g id="Group_192" data-name="Group 192">
            <g id="Group_191" data-name="Group 191" clip-path="url(#clip-path-78)">
              <path id="Path_122" data-name="Path 122" d="M388.818,284.584l4.9,6.372a6.653,6.653,0,0,1,2.88-5.468,6.546,6.546,0,0,1,5.7-.5l-2.547-5.481Z" transform="translate(-388.818 -279.504)" fill="#422025"/>
            </g>
          </g>
        </g>
      </g>
    </g>
    <g id="Group_197" data-name="Group 197" transform="translate(62.569 107.432)">
      <g id="Group_196" data-name="Group 196" clip-path="url(#clip-path)">
        <path id="Path_124" data-name="Path 124" d="M391.617,286.754a2.522,2.522,0,0,0,1.441,1.416c1.033.455,2.914.569,3.73-.761a2.739,2.739,0,0,0-.749-3.46,2.947,2.947,0,0,0-3.992.565,2.552,2.552,0,0,0-.429,2.24" transform="translate(-237.778 -172.123)" fill="#f0526a"/>
      </g>
    </g>
    <g id="Group_202" data-name="Group 202" transform="translate(216.295 218.711)">
      <g id="Group_201" data-name="Group 201" clip-path="url(#clip-path-80)">
        <g id="Group_200" data-name="Group 200" transform="translate(0.269 -3.944)" opacity="0.07">
          <g id="Group_199" data-name="Group 199">
            <g id="Group_198" data-name="Group 198" clip-path="url(#clip-path-81)">
              <path id="Path_125" data-name="Path 125" d="M397.887,273.359l2.77,9.38-4.7,1.389a5.312,5.312,0,0,0,.279-4.637,5.4,5.4,0,0,0-4.044-2.965l5.7-3.168" transform="translate(-392.189 -273.359)" fill="#422025"/>
            </g>
          </g>
        </g>
      </g>
    </g>
    <g id="Group_204" data-name="Group 204" transform="translate(62.569 107.432)">
      <g id="Group_203" data-name="Group 203" clip-path="url(#clip-path)">
        <path id="Path_127" data-name="Path 127" d="M408.5,276.953a2.52,2.52,0,0,0-1.831-.852c-1.125-.083-2.936.438-3.26,1.964a2.739,2.739,0,0,0,1.864,3.01,2.947,2.947,0,0,0,3.573-1.868,2.551,2.551,0,0,0-.345-2.255" transform="translate(-244.982 -167.683)" fill="#f7a22f"/>
      </g>
    </g>
    <g id="Group_209" data-name="Group 209" transform="translate(220.952 215.841)">
      <g id="Group_208" data-name="Group 208" clip-path="url(#clip-path-83)">
        <g id="Group_207" data-name="Group 207" transform="translate(-3.685 -1.102)" opacity="0.07">
          <g id="Group_206" data-name="Group 206">
            <g id="Group_205" data-name="Group 205" clip-path="url(#clip-path-84)">
              <path id="Path_128" data-name="Path 128" d="M399.729,284.081l-5.749-7.913,3.967-2.882a5.311,5.311,0,0,0,1.289,4.463,5.4,5.4,0,0,0,4.8,1.44l-4.31,4.892" transform="translate(-393.98 -273.286)" fill="#422025"/>
            </g>
          </g>
        </g>
      </g>
    </g>
    <g id="Group_211" data-name="Group 211" transform="translate(62.569 107.432)">
      <g id="Group_210" data-name="Group 210" clip-path="url(#clip-path)">
        <path id="Path_130" data-name="Path 130" d="M26.012,74.938c-4.328,1.4-6.824,1.081-8.682,3.232-.247.286-1.251,1.447-.9,2.262.568,1.308,3.808,1.035,3.828,1.524.015.338-1.545.747-2.863.944-2.343.351-3.043-.1-3.966.559-.823.585-1.5,1.82-1.162,2.609.508,1.181,3.152,1.027,3.378,2.27,0,.012,0,.022.006.037.078.717-1.309,1.26-3.081,2.327-2.207,1.328-4.194,2.525-4.146,3.889A2.478,2.478,0,0,0,9.894,96.44c1.308.64,2.875.023,4.374-.567,1.7-.668,2.452-1.35,2.893-1.019.547.411-.274,1.717.412,2.45a2.24,2.24,0,0,0,2.27.2c.712-.277,1.056-.768,2.209-2.511,1.278-1.931,1.991-3.045,2.214-2.948.256.112-.564,1.638.149,2.535a1.586,1.586,0,0,0,1.392.538c1.07-.138,1.642-1.519,1.945-2.252a19.51,19.51,0,0,0,.826-3.923c.112-.708.254-1.654.454-1.655.231,0,.181,1.266.858,1.581.554.258,1.3-.26,1.4-.335,1.3-.936,1.136-3.39.929-5.407a76.967,76.967,0,0,0-1.732-10.064,29.47,29.47,0,0,1-4.474,1.876" transform="translate(-5.118 -44.374)" fill="#4ca07d"/>
      </g>
    </g>
    <g id="Group_219" data-name="Group 219" transform="translate(65.878 136.12)">
      <g id="Group_218" data-name="Group 218" clip-path="url(#clip-path-86)">
        <g id="Group_214" data-name="Group 214" transform="translate(7.532 -4.132)" opacity="0.3">
          <g id="Group_213" data-name="Group 213">
            <g id="Group_212" data-name="Group 212" clip-path="url(#clip-path-87)">
              <path id="Path_131" data-name="Path 131" d="M44.178,62.54a43.942,43.942,0,0,1-2.856,6.544l-.423.789c-.142.262-.3.517-.445.776-.294.519-.611,1.025-.918,1.537-.64,1.008-1.3,2-2,2.971-.346.487-.712.958-1.073,1.434s-.744.935-1.123,1.4c-.778.905-1.556,1.811-2.39,2.665a42.415,42.415,0,0,1-5.341,4.74c1.6-1.764,3.174-3.521,4.684-5.328s2.952-3.664,4.328-5.569,2.684-3.857,3.94-5.85,2.429-4.042,3.617-6.1" transform="translate(-27.609 -62.54)" fill="#422025"/>
            </g>
          </g>
        </g>
        <g id="Group_217" data-name="Group 217" transform="translate(-1.12 0)" opacity="0.07">
          <g id="Group_216" data-name="Group 216">
            <g id="Group_215" data-name="Group 215" clip-path="url(#clip-path-88)">
              <path id="Path_132" data-name="Path 132" d="M39.444,91.383,7.983,99.974l-2.409-.4a84.147,84.147,0,0,0,14.092-13.31,84.077,84.077,0,0,0,9.088-13.206l10.69,18.321" transform="translate(-5.574 -73.062)"/>
            </g>
          </g>
        </g>
      </g>
    </g>
    <g id="Group_221" data-name="Group 221" transform="translate(62.569 107.432)">
      <g id="Group_220" data-name="Group 220" clip-path="url(#clip-path)">
        <path id="Path_134" data-name="Path 134" d="M69.375,37.759c4.516-.55,6.9.244,9.139-1.513.3-.234,1.5-1.182,1.312-2.049-.307-1.393-3.539-1.744-3.466-2.228.051-.335,1.659-.437,2.991-.379,2.367.1,2.968.677,4,.21.92-.417,1.822-1.5,1.639-2.339-.274-1.256-2.9-1.611-2.882-2.873,0-.012,0-.022,0-.037.06-.719,1.525-.987,3.469-1.7,2.42-.882,4.6-1.677,4.812-3.025a2.478,2.478,0,0,0-1.086-2.1c-1.161-.878-2.818-.572-4.4-.279-1.791.331-2.665.857-3.034.447-.459-.508.6-1.633.064-2.483a2.241,2.241,0,0,0-2.19-.629c-.752.136-1.183.552-2.649,2.043-1.623,1.651-2.537,2.608-2.736,2.47-.23-.159.867-1.5.338-2.517a1.586,1.586,0,0,0-1.264-.794c-1.077-.069-1.9,1.177-2.339,1.838a19.5,19.5,0,0,0-1.561,3.693c-.245.673-.565,1.575-.761,1.538-.228-.042.064-1.277-.54-1.716-.494-.359-1.323.008-1.439.061-1.456.67-1.763,3.111-1.945,5.13a77.1,77.1,0,0,0-.223,10.21,29.465,29.465,0,0,1,4.751-.987" transform="translate(-39.205 -10.169)" fill="#68c49f"/>
      </g>
    </g>
    <g id="Group_229" data-name="Group 229" transform="translate(87.915 114.006)">
      <g id="Group_228" data-name="Group 228" clip-path="url(#clip-path-90)">
        <g id="Group_224" data-name="Group 224" transform="translate(-2.719 6.404)" opacity="0.3">
          <g id="Group_223" data-name="Group 223">
            <g id="Group_222" data-name="Group 222" clip-path="url(#clip-path-91)">
              <path id="Path_135" data-name="Path 135" d="M57.626,52.317A43.955,43.955,0,0,1,61.68,46.44l.566-.693c.189-.23.39-.451.585-.677.389-.453.8-.889,1.195-1.333.821-.867,1.662-1.715,2.531-2.534.433-.411.882-.8,1.328-1.2s.909-.775,1.369-1.155c.937-.74,1.874-1.48,2.856-2.159a42.376,42.376,0,0,1,6.149-3.631c-1.906,1.425-3.789,2.849-5.617,4.335s-3.6,3.032-5.313,4.638-3.372,3.273-4.986,4.989-3.157,3.5-4.717,5.3" transform="translate(-57.626 -33.054)" fill="#422025"/>
            </g>
          </g>
        </g>
        <g id="Group_227" data-name="Group 227" transform="translate(-6.917 -0.443)" opacity="0.07">
          <g id="Group_226" data-name="Group 226">
            <g id="Group_225" data-name="Group 225" clip-path="url(#clip-path-92)">
              <path id="Path_136" data-name="Path 136" d="M46.934,18.034l32.523-2.419,2.289.849a84.025,84.025,0,0,0-27.821,21.6L46.934,18.034" transform="translate(-46.934 -15.615)" fill="#422025"/>
            </g>
          </g>
        </g>
      </g>
    </g>
    <g id="Group_231" data-name="Group 231" transform="translate(62.569 107.432)">
      <g id="Group_230" data-name="Group 230" clip-path="url(#clip-path)">
        <path id="Path_138" data-name="Path 138" d="M27.166,32.741c-1.211-4.386-.778-6.864-2.844-8.816-.275-.26-1.391-1.313-2.22-1-1.332.509-1.2,3.758-1.692,3.757-.338,0-.678-1.577-.817-2.9-.247-2.356.232-3.035-.383-3.987-.548-.849-1.752-1.581-2.555-1.276-1.2.456-1.165,3.1-2.417,3.274l-.037,0c-.719.046-1.2-1.364-2.189-3.181-1.229-2.263-2.337-4.3-3.7-4.313A2.476,2.476,0,0,0,6.4,15.688c-.7,1.278-.15,2.871.373,4.395.592,1.723,1.24,2.509.89,2.935-.435.529-1.7-.349-2.466.3a2.24,2.24,0,0,0-.3,2.259c.245.724.72,1.089,2.411,2.319,1.873,1.362,2.954,2.124,2.847,2.342-.123.251-1.612-.636-2.539.037a1.586,1.586,0,0,0-.6,1.367c.09,1.075,1.445,1.707,2.164,2.043a19.489,19.489,0,0,0,3.882,1c.7.144,1.641.327,1.634.527-.009.231-1.273.124-1.618.787-.282.542.2,1.307.273,1.414.878,1.341,3.337,1.285,5.361,1.167a77.022,77.022,0,0,0,10.131-1.286,29.5,29.5,0,0,1-1.677-4.553" transform="translate(-2.875 -8.688)" fill="#64b895"/>
      </g>
    </g>
    <g id="Group_239" data-name="Group 239" transform="translate(64.428 113.049)">
      <g id="Group_238" data-name="Group 238" clip-path="url(#clip-path-94)">
        <g id="Group_234" data-name="Group 234" transform="translate(6.049 7.648)" opacity="0.3">
          <g id="Group_233" data-name="Group 233">
            <g id="Group_232" data-name="Group 232" clip-path="url(#clip-path-95)">
              <path id="Path_139" data-name="Path 139" d="M42.236,51.346A43.874,43.874,0,0,1,35.824,48.2l-.769-.457c-.256-.153-.5-.319-.756-.479-.505-.317-1-.655-1.5-.985-.978-.684-1.941-1.391-2.88-2.13-.471-.367-.926-.754-1.385-1.136s-.9-.784-1.344-1.183c-.87-.818-1.741-1.635-2.557-2.506a42.43,42.43,0,0,1-4.5-5.545c1.691,1.674,3.377,3.326,5.116,4.915s3.53,3.111,5.372,4.57,3.735,2.853,5.67,4.195,3.931,2.606,5.939,3.883" transform="translate(-20.139 -33.783)" fill="#422025"/>
            </g>
          </g>
        </g>
        <g id="Group_237" data-name="Group 237" transform="translate(-1.859 -1.341)" opacity="0.07">
          <g id="Group_236" data-name="Group 236">
            <g id="Group_235" data-name="Group 235" clip-path="url(#clip-path-96)">
              <path id="Path_140" data-name="Path 140" d="M7.192,45.091Q3.6,29.186,0,13.281l.5-2.39A84.148,84.148,0,0,0,13.176,25.558a84.091,84.091,0,0,0,12.791,9.663L7.192,45.091" transform="translate(0 -10.891)" fill="#422025"/>
            </g>
          </g>
        </g>
      </g>
    </g>
    <g id="Group_241" data-name="Group 241" transform="translate(62.569 107.432)">
      <g id="Group_240" data-name="Group 240" clip-path="url(#clip-path)">
        <path id="Path_142" data-name="Path 142" d="M56.911,41.55a4.927,4.927,0,0,0-3.471,1.882c-1.442,1.67-2.733,5.12-.714,7.407a5.355,5.355,0,0,0,6.9.581,5.761,5.761,0,0,0,1.23-7.785,4.988,4.988,0,0,0-3.942-2.085" transform="translate(-31.39 -25.233)" fill="#f7842f"/>
      </g>
    </g>
    <g id="Group_246" data-name="Group 246" transform="translate(82.863 123.745)">
      <g id="Group_245" data-name="Group 245" clip-path="url(#clip-path-98)">
        <g id="Group_244" data-name="Group 244" transform="translate(-3.61 2.657)" opacity="0.07">
          <g id="Group_243" data-name="Group 243">
            <g id="Group_242" data-name="Group 242" clip-path="url(#clip-path-99)">
              <path id="Path_143" data-name="Path 143" d="M61.61,60.778l-19.12-.194.1-9.586A10.385,10.385,0,0,0,51.1,54.174c5.435-.663,7.743-5.605,7.857-5.861L61.61,60.778" transform="translate(-42.49 -48.313)" fill="#422025"/>
            </g>
          </g>
        </g>
      </g>
    </g>
    <g id="Group_248" data-name="Group 248" transform="translate(62.569 107.432)">
      <g id="Group_247" data-name="Group 247" clip-path="url(#clip-path)">
        <path id="Path_145" data-name="Path 145" d="M73.119,71.005a4,4,0,0,0-1.1-3.01c-1.168-1.357-3.782-2.805-5.858-1.458A4.344,4.344,0,0,0,64.874,72a4.674,4.674,0,0,0,6.1,1.917,4.047,4.047,0,0,0,2.144-2.914" transform="translate(-39.123 -40.085)" fill="#f7842f"/>
      </g>
    </g>
    <g id="Group_253" data-name="Group 253" transform="translate(87.862 133.347)">
      <g id="Group_252" data-name="Group 252" clip-path="url(#clip-path-101)">
        <g id="Group_251" data-name="Group 251" transform="translate(-4.658 -3.869)" opacity="0.07">
          <g id="Group_250" data-name="Group 250">
            <g id="Group_249" data-name="Group 249" clip-path="url(#clip-path-102)">
              <path id="Path_146" data-name="Path 146" d="M52.553,71.467l2.44-15.32,7.681,1.224a8.424,8.424,0,0,0-3.565,6.447,8.563,8.563,0,0,0,3.764,7.005l-10.321.644" transform="translate(-52.553 -56.147)" fill="#422025"/>
            </g>
          </g>
        </g>
      </g>
    </g>
    <g id="Group_255" data-name="Group 255" transform="translate(62.569 107.432)">
      <g id="Group_254" data-name="Group 254" clip-path="url(#clip-path)">
        <path id="Path_148" data-name="Path 148" d="M41.821,73.946a4,4,0,0,0,2.04,2.47c1.554.888,4.5,1.378,6.009-.586a4.344,4.344,0,0,0-.612-5.582,4.674,4.674,0,0,0-6.39.234,4.047,4.047,0,0,0-1.046,3.464" transform="translate(-25.348 -41.963)" fill="#f7842f"/>
      </g>
    </g>
    <g id="Group_260" data-name="Group 260" transform="translate(78.957 134.561)">
      <g id="Group_259" data-name="Group 259" clip-path="url(#clip-path-104)">
        <g id="Group_258" data-name="Group 258" transform="translate(1.01 -5.691)" opacity="0.07">
          <g id="Group_257" data-name="Group 257">
            <g id="Group_256" data-name="Group 256" clip-path="url(#clip-path-105)">
              <path id="Path_149" data-name="Path 149" d="M53.818,54.6l2.826,15.253L49,71.269A8.424,8.424,0,0,0,50.2,64a8.561,8.561,0,0,0-5.891-5.342l9.51-4.06" transform="translate(-44.308 -54.599)" fill="#422025"/>
            </g>
          </g>
        </g>
      </g>
    </g>
    <rect id="Rectangle_70" data-name="Rectangle 70" width="180.133" height="183.058" transform="translate(62.569 107.432)" fill="none"/>
  </g>
</svg>
