<svg xmlns="http://www.w3.org/2000/svg" width="229.079" height="349.481" viewBox="0 0 229.079 349.481">
  <path id="Path_756" data-name="Path 756" d="M211.674,359.747s-11.58,21.747-26.709,33.327c0,0,3.069,2.129,8.747,1.893a117.194,117.194,0,0,1-37.586,30.264s5.435,3.063,10.87,2.123c0,0-2.36,3.543-9.93,6.382,0,0,10.167,2.832,23.64-2.129a77.862,77.862,0,0,1-28.365,27.774s3.549,1.065,11.113,0a55.481,55.481,0,0,1-23.876,22.575,33.316,33.316,0,0,0,15.839-2.129s-4.5,9.93-28.6,19.151c0,0,16.306,1.886,37.349-5.672,0,0-5.915,25.763-41.844,38.053,0,0,7.8,2.366,13.946,1.656A89.143,89.143,0,0,1,108.61,548.38s7.328,3.069,13.946,2.123c0,0-1.65,4.732-8.038,7.571,0,0,14.892,1.65,37.586-9.693a42.216,42.216,0,0,1-13.236,9.774s9.974,5.734,28.409-5.142c0,0-10.54,19.711-30.158,31.771S107.1,600.148,107.1,600.148s14.276,4.489,22.55,2.36a52.587,52.587,0,0,1-21.037,16.785s8.984,5.909,23.167,0a32.913,32.913,0,0,1-12.29,8.511s17.725.473,36.166-13.236a45.892,45.892,0,0,1-6.382,10.4s13.473-.947,27.892-15.839c0,0-13.236,29.312-48.93,41.371a72.233,72.233,0,0,0,21.037-1.183S135.562,667.04,108.61,677.68c0,0,36.166-1.656,60.753-13.709a39.792,39.792,0,0,1-16.548,19.381s26.006-1.183,45.623-16.312l5.287,41.453h38.444s-4.5-32.233,0-43.34c0,0,4.962,9.687,19.145,14.656a45.776,45.776,0,0,1,0-16.312s29.785,21.038,72.1,6.145c0,0-22.93-3.785-34.037-16.075,0,0,7.8,2.839,19.145-1.42,0,0-28.6-5.435-42.784-27.892,0,0,7.8,7.8,21.984,6.618,0,0-5.435-.7-10.4-12.29,0,0,9.694,9.457,39.715,6.618,0,0-5.672-1.42-11.35-10.161,0,0,5.678,2.833,18.678-1.656,0,0-15.789,0-30.918-14.183,0,0,4.725,1.183,11.113-2.366,0,0-34.846-8.274-53.281-40.892,0,0,9.787,8.511,28.459,8.748a94.609,94.609,0,0,1-11.58-12.769s9.4,8.038,27.606,7.564c0,0-2.839-1.656-5.908-7.8,0,0,9.214,4.5,23.87.473,0,0-12.526-2.6-20.8-11.817,0,0,4.259.71,11.823-1.893,0,0-26.479-9.687-50.112-36.4,0,0,19.381,3.076,35.93-4.015,0,0-15.129-1.183-27.189-12.054a15.938,15.938,0,0,0,12.3-.473s-12.533-.237-23.876-17.022c0,0,6.618.946,14.183-3.785a67.319,67.319,0,0,1-34.983-22.183,44.545,44.545,0,0,0,25.053-4.29s-9.687-3.543-15.833-10.4a15.551,15.551,0,0,0,13-.237s-21.747-6.625-34.043-32.387a14.881,14.881,0,0,0,10.4,0s-18.908-8.037-27.892-35.456" transform="translate(-105.44 -359.512)" fill="none" stroke="#dae1e9" stroke-width="1" opacity="0.602"/>
</svg>
