<svg xmlns="http://www.w3.org/2000/svg" xmlns:xlink="http://www.w3.org/1999/xlink" width="512.064" height="139.508" viewBox="0 0 512.064 139.508">
  <defs>
    <clipPath id="clip-path">
      <rect id="Rectangle_74" data-name="Rectangle 74" width="27.723" height="40.082" fill="#13406a"/>
    </clipPath>
    <clipPath id="clip-path-2">
      <rect id="Rectangle_75" data-name="Rectangle 75" width="16.604" height="24.005" fill="#13406a"/>
    </clipPath>
    <clipPath id="clip-path-3">
      <rect id="Rectangle_76" data-name="Rectangle 76" width="27.194" height="39.317" fill="#13406a"/>
    </clipPath>
    <clipPath id="clip-path-4">
      <rect id="Rectangle_101" data-name="Rectangle 101" width="23.015" height="33.276" fill="#13406a"/>
    </clipPath>
  </defs>
  <g id="Group_376" data-name="Group 376" transform="translate(0 -81.163)">
    <g id="Group_372" data-name="Group 372" transform="translate(0 81.163)">
      <g id="Group_365" data-name="Group 365" transform="translate(13.64 6.428)">
        <g id="Group_269" data-name="Group 269" transform="translate(19.745 10)" opacity="0.56">
          <g id="Group_268" data-name="Group 268">
            <g id="Group_267" data-name="Group 267" clip-path="url(#clip-path)">
              <path id="Path_152" data-name="Path 152" d="M134.44,331.144a14.682,14.682,0,0,1-3.258,4.066,1.847,1.847,0,0,0,1.067.231,14.285,14.285,0,0,1-4.585,3.692,2.282,2.282,0,0,0,1.326.259,2.554,2.554,0,0,1-1.211.778,5.081,5.081,0,0,0,2.884-.26,9.5,9.5,0,0,1-3.46,3.388,3.525,3.525,0,0,0,1.355,0,6.768,6.768,0,0,1-2.912,2.754,4.066,4.066,0,0,0,1.932-.259s-.548,1.211-3.489,2.336a11.034,11.034,0,0,0,4.556-.692s-.721,3.143-5.1,4.643a5.074,5.074,0,0,0,1.7.2,10.884,10.884,0,0,1-3.374,1.874,3.758,3.758,0,0,0,1.7.26,1.8,1.8,0,0,1-.981.923,9.064,9.064,0,0,0,4.585-1.183,5.152,5.152,0,0,1-1.615,1.192s1.216.7,3.466-.627a11.434,11.434,0,0,1-3.68,3.875,19.167,19.167,0,0,1-3.662,1.874,6.614,6.614,0,0,0,2.752.288,6.416,6.416,0,0,1-2.567,2.047,3.117,3.117,0,0,0,2.826,0,4.016,4.016,0,0,1-1.5,1.038,7.743,7.743,0,0,0,4.412-1.615,5.592,5.592,0,0,1-.778,1.269,5.828,5.828,0,0,0,3.4-1.932,10.476,10.476,0,0,1-5.969,5.047,8.781,8.781,0,0,0,2.567-.144,12.427,12.427,0,0,1-4.96,3.46,22.472,22.472,0,0,0,7.411-1.672,4.851,4.851,0,0,1-2.018,2.365,11.061,11.061,0,0,0,5.565-1.99,3.325,3.325,0,0,1,1.038,1.355,2.365,2.365,0,0,0,.577-1.528,3.85,3.85,0,0,0,1.3,1.7,5.849,5.849,0,0,1,.317-1.557,4.585,4.585,0,0,0,1.73,2.624,6.481,6.481,0,0,1,.374-2.826,4.214,4.214,0,0,0,2.336,1.788,5.583,5.583,0,0,1,0-1.99,10.072,10.072,0,0,0,8.795.749s-2.8-.461-4.152-1.961a3.611,3.611,0,0,0,2.336-.173,8.7,8.7,0,0,1-5.219-3.4,3.51,3.51,0,0,0,2.681.808s-.663-.087-1.269-1.5c0,0,1.183,1.153,4.844.808a2.71,2.71,0,0,1-1.384-1.24,3.207,3.207,0,0,0,2.278-.2,6.022,6.022,0,0,1-3.772-1.73,2.007,2.007,0,0,0,1.355-.289,11.11,11.11,0,0,1-6.5-4.988,5.637,5.637,0,0,0,3.472,1.067,11.51,11.51,0,0,1-1.413-1.557,5.191,5.191,0,0,0,3.368.923,2.312,2.312,0,0,1-.721-.952,4.4,4.4,0,0,0,2.913.058,5.234,5.234,0,0,1-2.538-1.442,3.257,3.257,0,0,0,1.442-.231,16.866,16.866,0,0,1-6.113-4.44,9.059,9.059,0,0,0,4.383-.49,6.2,6.2,0,0,1-3.316-1.471,1.941,1.941,0,0,0,1.5-.058s-1.528-.029-2.913-2.076a2.794,2.794,0,0,0,1.73-.461,8.212,8.212,0,0,1-4.267-2.706,5.433,5.433,0,0,0,3.056-.523,5.5,5.5,0,0,1-1.932-1.269,1.9,1.9,0,0,0,1.586-.029,7.542,7.542,0,0,1-4.152-3.951,1.815,1.815,0,0,0,1.269,0,7,7,0,0,1-3.4-4.325" transform="translate(-121.683 -331.144)" fill="#13406a"/>
            </g>
          </g>
        </g>
        <g id="Group_272" data-name="Group 272" transform="translate(459.006 19.249)" opacity="0.56">
          <g id="Group_271" data-name="Group 271">
            <g id="Group_270" data-name="Group 270" clip-path="url(#clip-path-2)">
              <path id="Path_153" data-name="Path 153" d="M759.634,368.207a8.787,8.787,0,0,1-1.952,2.435,1.107,1.107,0,0,0,.639.138,8.554,8.554,0,0,1-2.746,2.211,1.369,1.369,0,0,0,.795.155,1.524,1.524,0,0,1-.725.466,3.044,3.044,0,0,0,1.727-.155,5.692,5.692,0,0,1-2.072,2.029,2.119,2.119,0,0,0,.811,0,4.052,4.052,0,0,1-1.744,1.649,2.439,2.439,0,0,0,1.157-.155s-.328.725-2.09,1.4a6.608,6.608,0,0,0,2.729-.414,4.373,4.373,0,0,1-3.057,2.781,3.052,3.052,0,0,0,1.019.121,6.522,6.522,0,0,1-2.02,1.122,2.25,2.25,0,0,0,1.019.155,1.075,1.075,0,0,1-.587.553,5.431,5.431,0,0,0,2.746-.708,3.09,3.09,0,0,1-.967.714s.729.419,2.076-.375a6.854,6.854,0,0,1-2.2,2.321,11.484,11.484,0,0,1-2.193,1.123,3.961,3.961,0,0,0,1.648.172,3.844,3.844,0,0,1-1.537,1.226,1.865,1.865,0,0,0,1.692,0,2.4,2.4,0,0,1-.9.622,4.635,4.635,0,0,0,2.642-.967,3.334,3.334,0,0,1-.466.76,3.49,3.49,0,0,0,2.038-1.157,6.273,6.273,0,0,1-3.575,3.023,5.26,5.26,0,0,0,1.537-.087,7.45,7.45,0,0,1-2.97,2.073,13.458,13.458,0,0,0,4.438-1,2.907,2.907,0,0,1-1.209,1.416,6.625,6.625,0,0,0,3.333-1.192,2,2,0,0,1,.622.812,1.417,1.417,0,0,0,.345-.915,2.308,2.308,0,0,0,.777,1.019,3.521,3.521,0,0,1,.19-.933,2.746,2.746,0,0,0,1.036,1.571,3.885,3.885,0,0,1,.225-1.693,2.522,2.522,0,0,0,1.4,1.071,3.345,3.345,0,0,1,0-1.192,6.031,6.031,0,0,0,5.267.449,5.018,5.018,0,0,1-2.487-1.174,2.163,2.163,0,0,0,1.4-.1,5.21,5.21,0,0,1-3.126-2.038,2.1,2.1,0,0,0,1.606.484s-.4-.052-.76-.9c0,0,.708.691,2.9.484a1.628,1.628,0,0,1-.829-.743,1.921,1.921,0,0,0,1.364-.121,3.606,3.606,0,0,1-2.259-1.036,1.2,1.2,0,0,0,.812-.173,6.654,6.654,0,0,1-3.892-2.988,3.378,3.378,0,0,0,2.079.639,6.909,6.909,0,0,1-.846-.933,3.106,3.106,0,0,0,2.017.553,1.382,1.382,0,0,1-.432-.57,2.639,2.639,0,0,0,1.744.034,3.14,3.14,0,0,1-1.52-.863,1.957,1.957,0,0,0,.863-.139,10.1,10.1,0,0,1-3.661-2.66,5.417,5.417,0,0,0,2.625-.293,3.709,3.709,0,0,1-1.986-.881,1.163,1.163,0,0,0,.9-.034,2.413,2.413,0,0,1-1.744-1.244,1.671,1.671,0,0,0,1.036-.276,4.917,4.917,0,0,1-2.556-1.621,3.253,3.253,0,0,0,1.831-.313,3.3,3.3,0,0,1-1.157-.76,1.136,1.136,0,0,0,.95-.017,4.516,4.516,0,0,1-2.487-2.366,1.088,1.088,0,0,0,.76,0,4.2,4.2,0,0,1-2.038-2.59" transform="translate(-751.993 -368.207)" fill="#13406a"/>
            </g>
          </g>
        </g>
        <g id="Group_275" data-name="Group 275" transform="translate(0 16.239)" opacity="0.56">
          <g id="Group_274" data-name="Group 274">
            <g id="Group_273" data-name="Group 273" clip-path="url(#clip-path-3)">
              <path id="Path_154" data-name="Path 154" d="M12.514,343.157a14.4,14.4,0,0,1-3.2,3.988,1.811,1.811,0,0,0,1.046.226,14.017,14.017,0,0,1-4.5,3.621,2.239,2.239,0,0,0,1.3.254,2.5,2.5,0,0,1-1.188.764,4.979,4.979,0,0,0,2.828-.255,9.323,9.323,0,0,1-3.394,3.323,3.461,3.461,0,0,0,1.329,0,6.635,6.635,0,0,1-2.856,2.7,3.985,3.985,0,0,0,1.9-.254s-.538,1.188-3.422,2.291a10.829,10.829,0,0,0,4.469-.679s-.707,3.083-5.006,4.554a4.97,4.97,0,0,0,1.669.2,10.676,10.676,0,0,1-3.309,1.839,3.684,3.684,0,0,0,1.669.255,1.759,1.759,0,0,1-.961.905,8.888,8.888,0,0,0,4.5-1.16A5.045,5.045,0,0,1,3.8,366.9s1.193.686,3.4-.615a11.217,11.217,0,0,1-3.609,3.8A18.794,18.794,0,0,1,0,371.923a6.48,6.48,0,0,0,2.7.283,6.294,6.294,0,0,1-2.517,2.008,3.059,3.059,0,0,0,2.772,0,3.934,3.934,0,0,1-1.471,1.018,7.594,7.594,0,0,0,4.328-1.584,5.479,5.479,0,0,1-.763,1.245A5.717,5.717,0,0,0,8.384,373a10.275,10.275,0,0,1-5.855,4.95,8.626,8.626,0,0,0,2.518-.142A12.2,12.2,0,0,1,.181,381.2a22.035,22.035,0,0,0,7.269-1.641,4.758,4.758,0,0,1-1.98,2.319,10.843,10.843,0,0,0,5.459-1.952,3.268,3.268,0,0,1,1.018,1.33,2.324,2.324,0,0,0,.566-1.5,3.779,3.779,0,0,0,1.273,1.669A5.731,5.731,0,0,1,14.1,379.9a4.5,4.5,0,0,0,1.7,2.574,6.36,6.36,0,0,1,.368-2.772,4.132,4.132,0,0,0,2.291,1.754,5.484,5.484,0,0,1,0-1.952,9.88,9.88,0,0,0,8.627.735,8.218,8.218,0,0,1-4.073-1.923,3.543,3.543,0,0,0,2.291-.17,8.539,8.539,0,0,1-5.12-3.338,3.442,3.442,0,0,0,2.631.792s-.651-.085-1.245-1.471c0,0,1.16,1.132,4.752.792a2.66,2.66,0,0,1-1.358-1.216,3.143,3.143,0,0,0,2.234-.2,5.906,5.906,0,0,1-3.7-1.7,1.969,1.969,0,0,0,1.33-.283,10.9,10.9,0,0,1-6.375-4.893,5.529,5.529,0,0,0,3.405,1.046,11.293,11.293,0,0,1-1.386-1.527,5.094,5.094,0,0,0,3.3.9,2.265,2.265,0,0,1-.707-.933,4.318,4.318,0,0,0,2.856.057,5.138,5.138,0,0,1-2.489-1.414,3.2,3.2,0,0,0,1.414-.226,16.547,16.547,0,0,1-6-4.356,8.881,8.881,0,0,0,4.3-.481,6.074,6.074,0,0,1-3.253-1.443,1.9,1.9,0,0,0,1.471-.057s-1.5-.028-2.857-2.036a2.745,2.745,0,0,0,1.7-.452,8.06,8.06,0,0,1-4.186-2.655,5.332,5.332,0,0,0,3-.513,5.389,5.389,0,0,1-1.895-1.245,1.859,1.859,0,0,0,1.555-.028,7.4,7.4,0,0,1-4.073-3.875,1.779,1.779,0,0,0,1.245,0,6.868,6.868,0,0,1-3.338-4.242" transform="translate(0 -343.157)" fill="#13406a"/>
            </g>
          </g>
        </g>
        <g id="Group_296" data-name="Group 296" transform="translate(432.886 26.615)" opacity="0.56">
          <g id="Group_295" data-name="Group 295">
            <g id="Group_294" data-name="Group 294" clip-path="url(#clip-path-4)">
              <path id="Path_172" data-name="Path 172" d="M631.968,345.489a12.181,12.181,0,0,1-2.705,3.375,1.532,1.532,0,0,0,.886.192,11.862,11.862,0,0,1-3.806,3.065,1.891,1.891,0,0,0,1.1.215,2.117,2.117,0,0,1-1.005.647,4.215,4.215,0,0,0,2.394-.216,7.887,7.887,0,0,1-2.872,2.813,2.939,2.939,0,0,0,1.125,0,5.618,5.618,0,0,1-2.418,2.286,3.37,3.37,0,0,0,1.6-.216s-.454,1.005-2.9,1.939a9.157,9.157,0,0,0,3.782-.574s-.6,2.609-4.237,3.854a4.217,4.217,0,0,0,1.413.168,9.039,9.039,0,0,1-2.8,1.556,3.121,3.121,0,0,0,1.412.216,1.489,1.489,0,0,1-.814.766,7.52,7.52,0,0,0,3.806-.982,4.277,4.277,0,0,1-1.34.99s1.01.581,2.877-.52a9.495,9.495,0,0,1-3.055,3.217,15.927,15.927,0,0,1-3.04,1.556,5.484,5.484,0,0,0,2.284.239,5.331,5.331,0,0,1-2.13,1.7,2.588,2.588,0,0,0,2.346,0,3.334,3.334,0,0,1-1.245.862,6.431,6.431,0,0,0,3.663-1.34,4.645,4.645,0,0,1-.647,1.053,4.841,4.841,0,0,0,2.825-1.6,8.7,8.7,0,0,1-4.956,4.19,7.3,7.3,0,0,0,2.131-.119,10.324,10.324,0,0,1-4.117,2.872,18.651,18.651,0,0,0,6.152-1.389,4.029,4.029,0,0,1-1.676,1.963,9.18,9.18,0,0,0,4.621-1.652,2.761,2.761,0,0,1,.862,1.125,1.965,1.965,0,0,0,.479-1.269,3.2,3.2,0,0,0,1.077,1.413,4.853,4.853,0,0,1,.263-1.293,3.807,3.807,0,0,0,1.437,2.178,5.38,5.38,0,0,1,.311-2.346A3.5,3.5,0,0,0,637,377.9a4.636,4.636,0,0,1,0-1.652,8.361,8.361,0,0,0,7.3.623,6.959,6.959,0,0,1-3.447-1.628,3,3,0,0,0,1.939-.143,7.226,7.226,0,0,1-4.333-2.825,2.913,2.913,0,0,0,2.226.67s-.55-.072-1.054-1.245c0,0,.982.958,4.022.67a2.252,2.252,0,0,1-1.149-1.029,2.661,2.661,0,0,0,1.891-.168,5,5,0,0,1-3.131-1.437,1.662,1.662,0,0,0,1.125-.239,9.224,9.224,0,0,1-5.4-4.141,4.684,4.684,0,0,0,2.882.886,9.57,9.57,0,0,1-1.173-1.293,4.308,4.308,0,0,0,2.8.766,1.915,1.915,0,0,1-.6-.79,3.655,3.655,0,0,0,2.418.048,4.35,4.35,0,0,1-2.107-1.2,2.711,2.711,0,0,0,1.2-.192,14.007,14.007,0,0,1-5.076-3.687,7.514,7.514,0,0,0,3.639-.407,5.146,5.146,0,0,1-2.753-1.221,1.611,1.611,0,0,0,1.245-.048,3.346,3.346,0,0,1-2.418-1.724,2.324,2.324,0,0,0,1.436-.383,6.819,6.819,0,0,1-3.543-2.247,4.513,4.513,0,0,0,2.538-.434,4.566,4.566,0,0,1-1.6-1.054,1.573,1.573,0,0,0,1.317-.024,6.259,6.259,0,0,1-3.447-3.28,1.506,1.506,0,0,0,1.053,0,5.814,5.814,0,0,1-2.825-3.591" transform="translate(-621.377 -345.489)" fill="#13406a"/>
            </g>
          </g>
        </g>
      </g>
      <path id="Path_302" data-name="Path 302" d="M50.426,323.862a13.234,13.234,0,0,1-3.206,3.587,1.977,1.977,0,0,0,1.05.2,13.778,13.778,0,0,1-4.512,3.256,2.456,2.456,0,0,0,1.305.229,2.524,2.524,0,0,1-1.192.687,5.548,5.548,0,0,0,2.838-.229,8.859,8.859,0,0,1-3.405,2.988,3.861,3.861,0,0,0,1.334,0,6.335,6.335,0,0,1-2.866,2.429,4.433,4.433,0,0,0,1.9-.229s-.539,1.068-3.434,2.06a12.027,12.027,0,0,0,4.484-.611s-.71,2.773-5.022,4.1a5.535,5.535,0,0,0,1.674.178,11.041,11.041,0,0,1-3.32,1.654,4.075,4.075,0,0,0,1.674.229,1.67,1.67,0,0,1-.964.814,9.783,9.783,0,0,0,4.512-1.043,5.038,5.038,0,0,1-1.589,1.052s1.2.616,3.41-.553a10.556,10.556,0,0,1-3.621,3.418,19.82,19.82,0,0,1-3.6,1.653,7.2,7.2,0,0,0,2.707.254,6.176,6.176,0,0,1-2.525,1.806,3.378,3.378,0,0,0,2.781,0,3.945,3.945,0,0,1-1.475.916,8.234,8.234,0,0,0,4.341-1.424,4.841,4.841,0,0,1-.766,1.119,5.994,5.994,0,0,0,3.348-1.7,9.94,9.94,0,0,1-5.874,4.451,9.625,9.625,0,0,0,2.526-.127,12.212,12.212,0,0,1-4.881,3.052,24.326,24.326,0,0,0,7.292-1.475,4.388,4.388,0,0,1-1.986,2.085,11.765,11.765,0,0,0,5.477-1.755,3.03,3.03,0,0,1,1.022,1.2,1.992,1.992,0,0,0,.567-1.348,3.432,3.432,0,0,0,1.277,1.5,4.7,4.7,0,0,1,.312-1.374,3.984,3.984,0,0,0,1.7,2.315,5.162,5.162,0,0,1,.369-2.493,4.059,4.059,0,0,0,2.3,1.577,4.435,4.435,0,0,1,0-1.755,10.875,10.875,0,0,0,8.655.661,8.736,8.736,0,0,1-4.086-1.73,3.94,3.94,0,0,0,2.3-.153s-3.434-.585-5.136-3a3.694,3.694,0,0,0,2.639.712s-.652-.076-1.248-1.323c0,0,1.163,1.018,4.767.712a2.635,2.635,0,0,1-1.362-1.094,3.5,3.5,0,0,0,2.242-.178,6.311,6.311,0,0,1-3.712-1.526,2.173,2.173,0,0,0,1.334-.254,11.006,11.006,0,0,1-6.4-4.4,5.954,5.954,0,0,0,3.416.941,10.688,10.688,0,0,1-1.39-1.374,5.5,5.5,0,0,0,3.314.814,2.1,2.1,0,0,1-.71-.839,4.8,4.8,0,0,0,2.866.051,5.377,5.377,0,0,1-2.5-1.272,3.555,3.555,0,0,0,1.419-.2,16.794,16.794,0,0,1-6.015-3.917,9.888,9.888,0,0,0,4.313-.432,6.506,6.506,0,0,1-3.263-1.3,2.114,2.114,0,0,0,1.476-.051,4.047,4.047,0,0,1-2.866-1.831,3.013,3.013,0,0,0,1.7-.407,8.332,8.332,0,0,1-4.2-2.387,5.912,5.912,0,0,0,3.008-.462,5.534,5.534,0,0,1-1.9-1.119,2.06,2.06,0,0,0,1.561-.025,7.255,7.255,0,0,1-4.086-3.485,1.979,1.979,0,0,0,1.249,0,6.454,6.454,0,0,1-3.348-3.815" transform="translate(-37.872 -289.262)" fill="#fff"/>
      <path id="Path_303" data-name="Path 303" d="M130.009,359.747s-2.537,4.765-5.852,7.3a3.307,3.307,0,0,0,1.916.415,25.676,25.676,0,0,1-8.235,6.631,4.107,4.107,0,0,0,2.382.465,4.581,4.581,0,0,1-2.176,1.4,9.13,9.13,0,0,0,5.179-.467,17.059,17.059,0,0,1-6.215,6.085,6.339,6.339,0,0,0,2.435,0,12.155,12.155,0,0,1-5.231,4.946,7.3,7.3,0,0,0,3.47-.466s-.985,2.176-6.266,4.2a19.839,19.839,0,0,0,8.183-1.243s-1.3,5.644-9.168,8.337a9.107,9.107,0,0,0,3.055.363,19.531,19.531,0,0,1-6.059,3.366,6.753,6.753,0,0,0,3.055.465,3.217,3.217,0,0,1-1.761,1.659s3.263.362,8.235-2.124a9.249,9.249,0,0,1-2.9,2.141s2.185,1.256,6.224-1.127a20.541,20.541,0,0,1-6.607,6.961,34.455,34.455,0,0,1-6.577,3.366s3.128.984,4.941.517a11.522,11.522,0,0,1-4.609,3.677s1.968,1.294,5.076,0a7.211,7.211,0,0,1-2.693,1.865,13.909,13.909,0,0,0,7.924-2.9,10.055,10.055,0,0,1-1.4,2.278s2.952-.207,6.111-3.47a18.814,18.814,0,0,1-10.72,9.064,15.827,15.827,0,0,0,4.609-.259,22.334,22.334,0,0,1-8.909,6.215s7.924-.363,13.31-3a8.718,8.718,0,0,1-3.626,4.246,19.86,19.86,0,0,0,10-3.574,5.989,5.989,0,0,1,1.865,2.435,4.255,4.255,0,0,0,1.035-2.744,6.916,6.916,0,0,0,2.33,3.055,10.516,10.516,0,0,1,.57-2.8,8.234,8.234,0,0,0,3.107,4.713,11.63,11.63,0,0,1,.674-5.074,7.571,7.571,0,0,0,4.194,3.211,10.029,10.029,0,0,1,0-3.574s6.526,4.609,15.8,1.346c0,0-5.024-.829-7.457-3.522a6.479,6.479,0,0,0,4.194-.311s-6.266-1.191-9.374-6.111a6.3,6.3,0,0,0,4.816,1.45s-1.191-.154-2.279-2.693c0,0,2.124,2.072,8.7,1.45a4.875,4.875,0,0,1-2.487-2.226s1.244.621,4.092-.363a10.815,10.815,0,0,1-6.774-3.107,3.6,3.6,0,0,0,2.435-.518,19.955,19.955,0,0,1-11.673-8.959,10.124,10.124,0,0,0,6.235,1.917,20.729,20.729,0,0,1-2.537-2.8,9.316,9.316,0,0,0,6.048,1.657,4.143,4.143,0,0,1-1.294-1.709,7.9,7.9,0,0,0,5.23.1A9.4,9.4,0,0,1,150,399.314a5.855,5.855,0,0,0,2.59-.415,30.275,30.275,0,0,1-10.979-7.976,16.258,16.258,0,0,0,7.872-.88,11.134,11.134,0,0,1-5.957-2.641,3.492,3.492,0,0,0,2.694-.1s-2.746-.052-5.231-3.729a5.021,5.021,0,0,0,3.107-.829,14.749,14.749,0,0,1-7.665-4.86,9.76,9.76,0,0,0,5.489-.94,9.862,9.862,0,0,1-3.469-2.278,3.407,3.407,0,0,0,2.848-.052,13.554,13.554,0,0,1-7.459-7.1,3.26,3.26,0,0,0,2.279,0s-4.143-1.761-6.111-7.768" transform="translate(-53.593 -358.255)" fill="#fff"/>
      <path id="Path_304" data-name="Path 304" d="M727.942,322s-4.218,5.055-7.263,6.675a13.4,13.4,0,0,0,3.5,0,13.589,13.589,0,0,1-7.193,4.86,6.664,6.664,0,0,0,3.306.843,21.674,21.674,0,0,1-8.166,4.406,9.27,9.27,0,0,0,3.5.324,7.094,7.094,0,0,1-2.139,1.944,16.646,16.646,0,0,0,6.48-.843,25.263,25.263,0,0,1-8.359,5.638,5.6,5.6,0,0,0,2.592,0,32.576,32.576,0,0,1-8.425,4.666s4.083.583,6.8-.389a3.511,3.511,0,0,1-2.009,1.361,17.762,17.762,0,0,0,6.545-.648,25.469,25.469,0,0,1-10.045,7.388,7,7,0,0,0,2.722.454,19.077,19.077,0,0,1-7.971,4.471,21.368,21.368,0,0,0,6.286-.518,5.656,5.656,0,0,1-1.879,2.074,28.047,28.047,0,0,0,8.229-1.556,15.85,15.85,0,0,1-3.888,2.722,4.892,4.892,0,0,0,3.175,0s-3.24,4.6-11.924,5.962a11.209,11.209,0,0,0,6.286.324,6.492,6.492,0,0,1-2.786,2.074,15.571,15.571,0,0,0,9.137-.778s-3.758,5.573-13.544,9.85a16.13,16.13,0,0,0,6.221,0A15.8,15.8,0,0,1,700.914,387a14.668,14.668,0,0,0,8.23-2.01,6.363,6.363,0,0,1-2.592,2.851s3.563.519,8.878-2.4a13.535,13.535,0,0,1-5.12,3.693,9.739,9.739,0,0,0,5.184-.583s-2.722,2.981-11.794,4.147a7.563,7.563,0,0,0,3.629,1.685,32.879,32.879,0,0,1-9.137,1.426s2.916,3.758,9.915,2.592a4.826,4.826,0,0,1-2.333,1.49,16.917,16.917,0,0,0,9.915-1.1,7,7,0,0,1-1.849,2.534,23.11,23.11,0,0,0,9.166-3.253,4.7,4.7,0,0,1-1.479,3.844,17.98,17.98,0,0,0,7.491-3.548,11.329,11.329,0,0,0,5.618,4.435,15.157,15.157,0,0,1,0-3.942,16.467,16.467,0,0,0,11.531,3.942,6.863,6.863,0,0,1-2.661-2.858,12.871,12.871,0,0,0,9.265.788s-10.152-3.449-15.277-12.714a17.443,17.443,0,0,0,7.392,3.154,6.606,6.606,0,0,1-1.282-2.956,9.7,9.7,0,0,0,6.308,1.183,14.213,14.213,0,0,1-5.815-5.026,7.77,7.77,0,0,0,4.534.69s-8.673-4.731-11.137-10.644a6.04,6.04,0,0,0,6.209,2.069,7.882,7.882,0,0,1-3.745-3.055,10.792,10.792,0,0,0,5.618.394s-6.9-2.365-10.053-7c0,0,3.153,2.661,6.5,2.267a7.247,7.247,0,0,1-3.055-3.942,9.178,9.178,0,0,0,6.6,1.872s-5.914-5.421-7.491-11.433c0,0,1.873,3.844,5.519,4.042a9.482,9.482,0,0,1-1.971-3.844s1.774,1.183,5.815-.2c0,0-6.8-2.464-10.053-6.5a6.78,6.78,0,0,0,4.041.985,14.085,14.085,0,0,1-7-7.392s.985,1.38,4.534.788a8.535,8.535,0,0,1-3.745-3.942,6.654,6.654,0,0,0,3.647.789,17.817,17.817,0,0,1-6.111-6.21,5.183,5.183,0,0,0,3.745.691s-4.237-2.464-5.815-6.21a4.158,4.158,0,0,0,3.253.3s-4.38-3.024-6-6.884" transform="translate(-240.706 -322.003)" fill="#fff"/>
      <path id="Path_305" data-name="Path 305" d="M678.749,362.219s-3.675,4.4-6.328,5.815a11.738,11.738,0,0,0,3.049,0,11.833,11.833,0,0,1-6.266,4.234,5.794,5.794,0,0,0,2.88.734,18.886,18.886,0,0,1-7.114,3.838,8.055,8.055,0,0,0,3.049.282,6.17,6.17,0,0,1-1.863,1.694,14.509,14.509,0,0,0,5.646-.734,22,22,0,0,1-7.283,4.911,4.878,4.878,0,0,0,2.258,0,28.4,28.4,0,0,1-7.339,4.065,15.158,15.158,0,0,0,5.928-.338,3.058,3.058,0,0,1-1.75,1.185,15.484,15.484,0,0,0,5.7-.565,22.178,22.178,0,0,1-8.75,6.436,6.1,6.1,0,0,0,2.371.4,16.609,16.609,0,0,1-6.943,3.9,18.656,18.656,0,0,0,5.475-.451,4.936,4.936,0,0,1-1.637,1.806A24.438,24.438,0,0,0,667,398.067a13.843,13.843,0,0,1-3.387,2.371,4.266,4.266,0,0,0,2.766,0s-2.824,4.008-10.387,5.193a9.764,9.764,0,0,0,5.475.282,5.65,5.65,0,0,1-2.428,1.807,13.565,13.565,0,0,0,7.961-.678s-3.275,4.856-11.8,8.581a14.058,14.058,0,0,0,5.419,0,13.751,13.751,0,0,1-5.419,3.218,12.782,12.782,0,0,0,7.169-1.75,5.545,5.545,0,0,1-2.257,2.484s3.1.451,7.734-2.088a11.8,11.8,0,0,1-4.46,3.218,8.481,8.481,0,0,0,4.516-.509s-2.371,2.6-10.274,3.613a6.593,6.593,0,0,0,3.16,1.468,28.647,28.647,0,0,1-7.959,1.243s2.54,3.274,8.637,2.257a4.2,4.2,0,0,1-2.032,1.3,14.737,14.737,0,0,0,8.637-.96,6.1,6.1,0,0,1-1.611,2.208,20.135,20.135,0,0,0,7.985-2.833,4.09,4.09,0,0,1-1.288,3.349,15.664,15.664,0,0,0,6.526-3.092,9.87,9.87,0,0,0,4.894,3.864,13.175,13.175,0,0,1,0-3.435,14.342,14.342,0,0,0,10.046,3.435,5.991,5.991,0,0,1-2.319-2.489,11.218,11.218,0,0,0,8.071.686s-8.843-3.005-13.309-11.076a15.2,15.2,0,0,0,6.44,2.747,5.756,5.756,0,0,1-1.116-2.575,8.448,8.448,0,0,0,5.5,1.03,12.367,12.367,0,0,1-5.066-4.379,6.756,6.756,0,0,0,3.949.6s-7.555-4.122-9.7-9.273a5.262,5.262,0,0,0,5.41,1.8,6.859,6.859,0,0,1-3.263-2.661,9.4,9.4,0,0,0,4.894.344s-6.01-2.061-8.758-6.1c0,0,2.749,2.318,5.668,1.974a6.307,6.307,0,0,1-2.661-3.433,8,8,0,0,0,5.752,1.631s-5.152-4.722-6.526-9.96c0,0,1.631,3.349,4.808,3.521a8.273,8.273,0,0,1-1.717-3.349s1.545,1.03,5.066-.172c0,0-5.924-2.147-8.758-5.668a5.9,5.9,0,0,0,3.521.859,12.273,12.273,0,0,1-6.1-6.44s.859,1.2,3.95.686a7.434,7.434,0,0,1-3.263-3.433,5.8,5.8,0,0,0,3.177.686,15.528,15.528,0,0,1-5.324-5.408,4.518,4.518,0,0,0,3.263.6s-3.692-2.146-5.066-5.408a3.626,3.626,0,0,0,2.833.256s-3.815-2.634-5.23-6" transform="translate(-242.893 -345.778)" fill="#fff"/>
    </g>
    <path id="Path_754" data-name="Path 754" d="M539.4,496.635H27.365l-.032-41.775s.009-24.553.032-24.6c1.431-1.771,54.73-42.441,139.874-22.347,42.813,10.117,76.233,22.331,102.724,30.4,26.926,8.205,46.7,12.121,61.918,5.128,6.659-3.077,19.462-8.065,36.455-13.24h.024c55.121-16.777,103.292-13.457,171.037-3.981" transform="translate(-27.333 -275.964)" fill="#fff"/>
  </g>
</svg>
