<svg xmlns="http://www.w3.org/2000/svg" xmlns:xlink="http://www.w3.org/1999/xlink" width="229.412" height="233.137" viewBox="0 0 229.412 233.137">
  <defs>
    <clipPath id="clip-path">
      <rect id="Rectangle_5" data-name="Rectangle 5" width="229.412" height="233.137" fill="none"/>
    </clipPath>
    <clipPath id="clip-path-2">
      <path id="Path_3" data-name="Path 3" d="M1.9,106.521c0,58.554,47.131,106.021,105.269,106.021s105.269-47.467,105.269-106.021S165.307.5,107.168.5,1.9,47.967,1.9,106.521" transform="translate(-1.899 -0.5)" fill="none"/>
    </clipPath>
    <clipPath id="clip-path-3">
      <path id="Path_6" data-name="Path 6" d="M106.95,207.3a50.243,50.243,0,0,0-15.932,3.984c-20.148,9.177-32.415,35.088-36.069,68.809a104.747,104.747,0,0,0,146.945,10.393,99.46,99.46,0,0,0-15.475-39.525c-14.069-20.93-41.508-44.027-72.7-44.027a62.626,62.626,0,0,0-6.769.366" transform="translate(-54.948 -206.93)" fill="none"/>
    </clipPath>
    <clipPath id="clip-path-4">
      <rect id="Rectangle_7" data-name="Rectangle 7" width="128.621" height="134.254" fill="none"/>
    </clipPath>
    <clipPath id="clip-path-5">
      <rect id="Rectangle_8" data-name="Rectangle 8" width="40.952" height="113.48" fill="none"/>
    </clipPath>
    <clipPath id="clip-path-7">
      <path id="Path_11" data-name="Path 11" d="M263.862,285.511a52.3,52.3,0,0,0,7.449,7.009,105.917,105.917,0,0,0,46.483-40.14c-2.764-5.08-5.737-9.742-8.163-13.547-9.515-14.923-28.379-39.329-64.038-60.524l18.27,107.2" transform="translate(-245.592 -178.307)" fill="none"/>
    </clipPath>
    <clipPath id="clip-path-8">
      <rect id="Rectangle_9" data-name="Rectangle 9" width="51.011" height="66.324" fill="none"/>
    </clipPath>
    <clipPath id="clip-path-9">
      <rect id="Rectangle_10" data-name="Rectangle 10" width="70.242" height="105.287" fill="none"/>
    </clipPath>
    <clipPath id="clip-path-11">
      <path id="Path_16" data-name="Path 16" d="M144.63,135.106c-5.549,17.481.072,34.925,12.359,42.6.729.456,11.617,7.026,23.174,2.917,14.12-5.02,23.533-23.954,19.183-45.518Z" transform="translate(-142.488 -135.106)" fill="none"/>
    </clipPath>
    <clipPath id="clip-path-12">
      <rect id="Rectangle_11" data-name="Rectangle 11" width="68.461" height="16.245" fill="none"/>
    </clipPath>
    <clipPath id="clip-path-13">
      <rect id="Rectangle_12" data-name="Rectangle 12" width="67.109" height="35.002" fill="none"/>
    </clipPath>
    <clipPath id="clip-path-15">
      <path id="Path_22" data-name="Path 22" d="M191.471,144.162a32.693,32.693,0,0,1-3.833,19.193,29.26,29.26,0,0,1-7.725,8.947,26.341,26.341,0,0,1-13.132,5.187c-7.9.678-19.642-3.988-25.492-14.393a29.91,29.91,0,0,1-2.961-20.227l-4.892,1.037a154.143,154.143,0,0,1,.193,16.532c-1.094,26.109-8.76,35.757-2.768,46.485,5.2,9.314,14.749,12.888,18.154,14.133,13.868,5.072,33.427,3,43.258-10.244,6.132-8.26,6.108-18.737,6.057-20.775,0-.023,0-.07-.007-.23-.661-21.4-4.538-25.823-2.832-37.473.771-5.265,2.311-9.475.772-10.373a1.238,1.238,0,0,0-.636-.159c-1.164,0-2.827,1.219-4.157,2.36" transform="translate(-128.596 -141.802)" fill="none"/>
    </clipPath>
    <clipPath id="clip-path-16">
      <rect id="Rectangle_13" data-name="Rectangle 13" width="78.213" height="75.983" fill="none"/>
    </clipPath>
    <clipPath id="clip-path-17">
      <path id="Path_25" data-name="Path 25" d="M1.9,106.521c0,58.554,47.131,106.021,105.269,106.021s105.269-47.467,105.269-106.021S165.307.5,107.168.5,1.9,47.967,1.9,106.521" transform="translate(-1.899 -0.5)" fill="#a77969"/>
    </clipPath>
    <clipPath id="clip-path-18">
      <path id="Path_28" data-name="Path 28" d="M228.329,265.214c-10.637,1.541-16.29,11.29-17.188,12.837-3.049,5.259-3.192,11.026-3.477,22.561s-.356,17.394,3.09,21.006c1.133,1.187,5.519,2.931,14.291,6.418a108.268,108.268,0,0,0,10.235,3.7c6.867,2,10.3,2.994,12.745,2.139,2.652-.928,4.714-3.456,9.077-19.838,3.867-14.52,5.762-21.888,3.863-27.229-2.484-6.985-7.829-10.938-11.974-14-4.643-3.434-10.525-7.784-17.922-7.784a19.115,19.115,0,0,0-2.742.2" transform="translate(-207.543 -265.015)" fill="none"/>
    </clipPath>
    <clipPath id="clip-path-19">
      <rect id="Rectangle_14" data-name="Rectangle 14" width="11.429" height="39.898" fill="none"/>
    </clipPath>
    <clipPath id="clip-path-20">
      <rect id="Rectangle_15" data-name="Rectangle 15" width="60.179" height="75.332" fill="none"/>
    </clipPath>
    <clipPath id="clip-path-22">
      <path id="Path_33" data-name="Path 33" d="M202.64,193.172c-1.031,1.229-.378,3.7.773,5.186,1.878,2.429,5.305,2.523,7.854,2.593a15.652,15.652,0,0,0,10.428-3.5c1.758-1.416,3.35-3.307,3.09-3.631s-2.029,1.594-5.021,2.074c-2.227.358-4.045-.263-6.695-1.167-3.41-1.164-4.323-2.2-7.081-2.334-.3-.014-.6-.027-.9-.027a3.037,3.037,0,0,0-2.443.806" transform="translate(-202.126 -192.366)" fill="none"/>
    </clipPath>
    <clipPath id="clip-path-23">
      <rect id="Rectangle_16" data-name="Rectangle 16" width="24.981" height="15.738" fill="none"/>
    </clipPath>
    <clipPath id="clip-path-25">
      <path id="Path_37" data-name="Path 37" d="M175.585,192.393c-2.758.133-3.671,1.171-7.081,2.334-2.65.9-4.467,1.524-6.695,1.167-2.992-.48-4.752-2.408-5.021-2.074s1.332,2.215,3.089,3.631a15.652,15.652,0,0,0,10.429,3.5c2.548-.07,5.975-.164,7.853-2.593,1.151-1.487,1.8-3.958.773-5.186a3.037,3.037,0,0,0-2.443-.806c-.3,0-.607.013-.9.027" transform="translate(-156.76 -192.366)" fill="none"/>
    </clipPath>
    <clipPath id="clip-path-26">
      <rect id="Rectangle_17" data-name="Rectangle 17" width="24.982" height="15.738" fill="none"/>
    </clipPath>
    <clipPath id="clip-path-28">
      <path id="Path_41" data-name="Path 41" d="M190.9,169.734c-3.747,1.183-4.173,2.619-4.249,3.112-.4,2.611,4.737,6.426,9.3,5.867,1.776-.217,4.839-1.266,4.989-3.273.128-1.7-1.915-3.064-2.189-3.242l-7.725-12.707q-.064,5.123-.129,10.243" transform="translate(-186.632 -159.491)" fill="none"/>
    </clipPath>
    <clipPath id="clip-path-29">
      <rect id="Rectangle_18" data-name="Rectangle 18" width="18.703" height="8.364" fill="none"/>
    </clipPath>
    <clipPath id="clip-path-30">
      <rect id="Rectangle_20" data-name="Rectangle 20" width="64.115" height="14.272" fill="none"/>
    </clipPath>
    <clipPath id="clip-path-32">
      <path id="Path_45" data-name="Path 45" d="M214.559,156.154a6.4,6.4,0,0,0,.115,4.842,6.666,6.666,0,0,0,8.094,3.1c3.535-1.344,4.117-5.462,4.154-5.756.356-2.845-.923-6.44-3.777-7.494a4.659,4.659,0,0,0-1.619-.287c-3.016,0-5.994,2.792-6.966,5.59" transform="translate(-214.129 -150.564)" fill="none"/>
    </clipPath>
    <clipPath id="clip-path-33">
      <rect id="Rectangle_21" data-name="Rectangle 21" width="16.197" height="12.214" fill="none"/>
    </clipPath>
    <clipPath id="clip-path-35">
      <rect id="Rectangle_22" data-name="Rectangle 22" width="3.361" height="3.867" fill="none"/>
    </clipPath>
    <clipPath id="clip-path-36">
      <path id="Path_52" data-name="Path 52" d="M167.194,150.079c-2.854,1.053-4.133,4.648-3.778,7.494.036.294.619,4.412,4.154,5.755a6.666,6.666,0,0,0,8.095-3.1,6.4,6.4,0,0,0,.114-4.842c-.971-2.8-3.95-5.59-6.966-5.59a4.657,4.657,0,0,0-1.619.287" transform="translate(-163.358 -149.792)" fill="none"/>
    </clipPath>
    <clipPath id="clip-path-40">
      <rect id="Rectangle_25" data-name="Rectangle 25" width="15.302" height="19.895" fill="none"/>
    </clipPath>
    <clipPath id="clip-path-41">
      <path id="Path_62" data-name="Path 62" d="M127.649,152.621c-2.678.06-4.292,2.869-4.506,3.241-2.41,4.2.562,9.664,1.159,10.763a16.256,16.256,0,0,0,6.383,6.346,52.393,52.393,0,0,0-.468-19.553,4.552,4.552,0,0,0-2.479-.8h-.089" transform="translate(-122.214 -152.62)" fill="none"/>
    </clipPath>
    <clipPath id="clip-path-42">
      <rect id="Rectangle_26" data-name="Rectangle 26" width="6.503" height="26.228" fill="none"/>
    </clipPath>
    <clipPath id="clip-path-43">
      <rect id="Rectangle_27" data-name="Rectangle 27" width="8.826" height="12.138" fill="none"/>
    </clipPath>
    <clipPath id="clip-path-45">
      <path id="Path_73" data-name="Path 73" d="M163.11,46.091c-5.154,1.018-25.564,5.047-33.345,21.07a29.1,29.1,0,0,0-1.674,4.279,11.79,11.79,0,0,0-2.7,6.483c-.073,1.064.094,1.2.9,6.872a26.8,26.8,0,0,1,.515,5.187c-.115,2.436-.671,2.6-.9,5.186-.16,1.8-.472,5.308,1.288,6.483a3.354,3.354,0,0,0,2.575.259c6.015-1.314,17.085-6.42,20.843-7.886,4.487-1.749,7.955-1.976,13.79-2.357a63.192,63.192,0,0,1,30,5.724,79.829,79.829,0,0,0,12.353,16.189c1.91,1.929,3.814,3.651,5.665,5.187-.187-1.084-.445-2.674-.694-4.6a112.3,112.3,0,0,1-.916-12.835c-.239-14.69,1.369-15.9.386-23.145a39.461,39.461,0,0,0-7.338-19.255,36.75,36.75,0,0,0-16.029-12.059,34.248,34.248,0,0,0-12.484-2.3,61.658,61.658,0,0,0-12.235,1.518" transform="translate(-125.372 -44.573)" fill="none"/>
    </clipPath>
    <clipPath id="clip-path-46">
      <rect id="Rectangle_28" data-name="Rectangle 28" width="70.933" height="15.789" fill="none"/>
    </clipPath>
    <clipPath id="clip-path-47">
      <rect id="Rectangle_29" data-name="Rectangle 29" width="25.323" height="56.653" fill="none"/>
    </clipPath>
    <clipPath id="clip-path-48">
      <rect id="Rectangle_30" data-name="Rectangle 30" width="84.199" height="39.159" fill="none"/>
    </clipPath>
    <clipPath id="clip-path-49">
      <rect id="Rectangle_31" data-name="Rectangle 31" width="15.212" height="5.946" fill="none"/>
    </clipPath>
    <clipPath id="clip-path-50">
      <rect id="Rectangle_32" data-name="Rectangle 32" width="4.623" height="4.957" fill="none"/>
    </clipPath>
    <clipPath id="clip-path-51">
      <rect id="Rectangle_33" data-name="Rectangle 33" width="79.154" height="36.556" fill="none"/>
    </clipPath>
    <clipPath id="clip-path-52">
      <rect id="Rectangle_34" data-name="Rectangle 34" width="30.546" height="7.055" fill="none"/>
    </clipPath>
    <clipPath id="clip-path-54">
      <path id="Path_78" data-name="Path 78" d="M262.242,149.4a52.4,52.4,0,0,0-.468,19.553,16.256,16.256,0,0,0,6.383-6.346c.6-1.1,3.57-6.566,1.159-10.762-.214-.373-1.828-3.181-4.507-3.242h-.087a4.563,4.563,0,0,0-2.481.8" transform="translate(-261.073 -148.599)" fill="none"/>
    </clipPath>
    <clipPath id="clip-path-55">
      <rect id="Rectangle_35" data-name="Rectangle 35" width="6.503" height="26.229" fill="none"/>
    </clipPath>
    <clipPath id="clip-path-58">
      <path id="Path_82" data-name="Path 82" d="M279.116,195.007a11.447,11.447,0,0,0,5.408,11.475c5.379,2.993,11.425-.308,14.291-3.112.959-.938,4.161-4.072,3.862-8.752a10.876,10.876,0,0,0-4.442-7.78,10.763,10.763,0,0,0-5.793-1.945q-.219-.009-.442-.009c-5.2,0-11.93,3.629-12.883,10.123" transform="translate(-279.001 -184.884)" fill="none"/>
    </clipPath>
    <clipPath id="clip-path-59">
      <rect id="Rectangle_37" data-name="Rectangle 37" width="28.196" height="20.049" fill="none"/>
    </clipPath>
    <clipPath id="clip-path-61">
      <path id="Path_89" data-name="Path 89" d="M185.759,191.634c-1.219,1.083-1.914,2.993-1.287,10.114.173,1.965.472,4.627,1.03,7.78-8.006,2.548-13.4,6.924-13.261,11.151a5.356,5.356,0,0,0,.644,2.334c-.937.8-2.113,2.053-1.931,3.371.235,1.706,2.544,2.075,5.407,4.15,1.541,1.116,1.243,1.278,6.309,7.261,4.425,5.226,5.438,6.031,6.051,6.483a19.821,19.821,0,0,0,7.6,3.371l8.883,8.428,1.158-12.447a8.517,8.517,0,0,0,1.288-9.6c-6.232-14.529-6.386-15.829-8.883-18.024a19.755,19.755,0,0,1-3.991-3.89,17.92,17.92,0,0,1-2.7-6.353c-2.651-10.007-3-14.664-4.764-14.911a1.062,1.062,0,0,0-.143-.01,2.341,2.341,0,0,0-1.4.788" transform="translate(-170.935 -190.846)" fill="none"/>
    </clipPath>
    <clipPath id="clip-path-62">
      <rect id="Rectangle_38" data-name="Rectangle 38" width="20.519" height="18.694" fill="none"/>
    </clipPath>
    <clipPath id="clip-path-64">
      <rect id="Rectangle_39" data-name="Rectangle 39" width="192.503" height="142.557" fill="none"/>
    </clipPath>
    <clipPath id="clip-path-65">
      <path id="Path_112" data-name="Path 112" d="M403.581,243.013c-1,1.07-1.31,1.827-1.744,1.739-.539-.109-.4-1.339-1.146-1.634a1.8,1.8,0,0,0-1.713.642c-.42.447-.5.922-.733,2.584-.259,1.841-.391,2.895-.586,2.9-.224.008-.157-1.383-.984-1.786a1.276,1.276,0,0,0-1.2.092c-.728.47-.665,1.669-.631,2.3a15.654,15.654,0,0,0,.758,3.128c.163.552.388,1.286.244,1.357-.087.042-.237-.19-.445-.422a1.041,1.041,0,0,0-.723-.428c-.491,0-.85.637-.9.728-.62,1.128.349,2.849,1.2,4.24a61.783,61.783,0,0,0,4.735,6.694,23.673,23.673,0,0,1,2.593-2.907c2.651-2.513,4.572-3.142,5.175-5.343.081-.293.406-1.481-.133-1.949-.479-.417-1.384-.2-2.128.022-.6.176-1.092.353-1.174.2-.127-.24.862-1.075,1.749-1.674,1.577-1.064,2.239-.981,2.681-1.776a2.069,2.069,0,0,0-.06-2.293,2.156,2.156,0,0,0-1.608-.193c-.664.072-1.316.144-1.624-.284a.253.253,0,0,1-.017-.025c-.3-.492.513-1.366,1.429-2.752,1.14-1.726,2.167-3.28,1.659-4.252a1.99,1.99,0,0,0-1.7-.834h-.02c-1.159,0-2.076.983-2.953,1.923" transform="translate(-393.586 -241.09)" fill="none"/>
    </clipPath>
    <clipPath id="clip-path-66">
      <rect id="Rectangle_41" data-name="Rectangle 41" width="4.338" height="22.29" fill="none"/>
    </clipPath>
    <clipPath id="clip-path-67">
      <rect id="Rectangle_42" data-name="Rectangle 42" width="21.713" height="27.231" fill="none"/>
    </clipPath>
    <clipPath id="clip-path-69">
      <path id="Path_116" data-name="Path 116" d="M389.872,291.763c-3.083,1.96-5.088,2.21-6.1,4.256-.135.272-.682,1.376-.243,1.939.414.531,1.435.452,2.23.373.558-.056,1-.112,1.052.043.079.26-1.052.891-2.037,1.309-1.751.744-2.385.536-2.971,1.231a2.07,2.07,0,0,0-.379,2.262c.632.816,2.656.165,3.081,1.086a.285.285,0,0,1,.012.027c.205.541-.765,1.243-1.928,2.428-1.449,1.476-2.754,2.805-2.442,3.856a1.99,1.99,0,0,0,1.511,1.144c1.146.235,2.24-.56,3.287-1.319,1.184-.86,1.635-1.542,2.045-1.373.508.21.132,1.39.812,1.822a1.8,1.8,0,0,0,1.8-.3c.5-.359.667-.809,1.214-2.4.605-1.758.937-2.767,1.129-2.736.222.035-.11,1.387.625,1.941a1.274,1.274,0,0,0,1.191.139c.8-.323.971-1.511,1.059-2.141a15.6,15.6,0,0,0-.146-3.216c-.055-.573-.135-1.337.021-1.378.18-.047.395.948.984,1.057.483.09.956-.463,1.022-.542.824-.989.2-2.864-.364-4.39a61.847,61.847,0,0,0-3.368-7.477,23.726,23.726,0,0,1-3.1,2.358" transform="translate(-380.101 -289.405)" fill="none"/>
    </clipPath>
    <clipPath id="clip-path-70">
      <rect id="Rectangle_44" data-name="Rectangle 44" width="8.292" height="21.093" fill="none"/>
    </clipPath>
    <clipPath id="clip-path-71">
      <rect id="Rectangle_45" data-name="Rectangle 45" width="24.687" height="25.271" fill="none"/>
    </clipPath>
    <clipPath id="clip-path-73">
      <path id="Path_120" data-name="Path 120" d="M411.927,279.631a61.865,61.865,0,0,0-6.9,4.434,23.68,23.68,0,0,1,2.789,2.72c2.394,2.76,2.937,4.706,5.11,5.406.289.093,1.462.471,1.954-.046.789-.83-.428-3.139-.073-3.308.245-.117,1.036.908,1.595,1.821.994,1.622.882,2.28,1.656,2.757a2.07,2.07,0,0,0,2.293.042c.713-.746-.229-2.652.619-3.208l.025-.016c.505-.283,1.343.573,2.686,1.549,1.674,1.215,3.181,2.31,4.174,1.846a1.991,1.991,0,0,0,.908-1.664c.063-1.167-.884-2.133-1.79-3.056-1.025-1.044-1.766-1.389-1.66-1.819.133-.534,1.355-.336,1.682-1.072a1.8,1.8,0,0,0-.565-1.74c-.428-.44-.9-.54-2.549-.847-1.828-.34-2.875-.518-2.873-.713,0-.224,1.388-.1,1.828-.9a1.276,1.276,0,0,0-.039-1.2c-.438-.749-1.638-.738-2.274-.732a15.614,15.614,0,0,0-3.159.618c-.559.139-1.3.331-1.366.184-.074-.171.879-.531.9-1.13.017-.49-.6-.877-.687-.931a1.743,1.743,0,0,0-.92-.235,8.037,8.037,0,0,0-3.368,1.243" transform="translate(-405.03 -278.388)" fill="none"/>
    </clipPath>
    <clipPath id="clip-path-74">
      <rect id="Rectangle_47" data-name="Rectangle 47" width="22.086" height="5.178" fill="none"/>
    </clipPath>
    <clipPath id="clip-path-75">
      <rect id="Rectangle_48" data-name="Rectangle 48" width="26.867" height="22.472" fill="none"/>
    </clipPath>
    <clipPath id="clip-path-77">
      <path id="Path_123" data-name="Path 123" d="M402.9,292.57a4.625,4.625,0,0,0,1.8,6.067,4.005,4.005,0,0,0,3.578.149,3.956,3.956,0,0,0,1.864-2.564c.468-1.709.211-4.656-2.043-5.615a3.558,3.558,0,0,0-1.4-.281,4.5,4.5,0,0,0-3.8,2.244" transform="translate(-402.381 -290.326)" fill="none"/>
    </clipPath>
    <clipPath id="clip-path-78">
      <rect id="Rectangle_50" data-name="Rectangle 50" width="17.168" height="14.584" fill="none"/>
    </clipPath>
    <clipPath id="clip-path-80">
      <path id="Path_126" data-name="Path 126" d="M392.194,284.818a3.251,3.251,0,0,0-.547,2.853,3.214,3.214,0,0,0,1.835,1.8c1.315.58,3.711.725,4.75-.969a3.489,3.489,0,0,0-.954-4.407,3.343,3.343,0,0,0-2.078-.7,3.874,3.874,0,0,0-3.006,1.415" transform="translate(-391.503 -283.403)" fill="none"/>
    </clipPath>
    <clipPath id="clip-path-81">
      <rect id="Rectangle_52" data-name="Rectangle 52" width="10.786" height="13.716" fill="none"/>
    </clipPath>
    <clipPath id="clip-path-83">
      <path id="Path_129" data-name="Path 129" d="M403.426,278.605a3.488,3.488,0,0,0,2.374,3.834,3.753,3.753,0,0,0,4.55-2.38,3.248,3.248,0,0,0-.44-2.871,3.209,3.209,0,0,0-2.332-1.085q-.145-.011-.3-.011c-1.435,0-3.466.7-3.851,2.512" transform="translate(-403.365 -276.093)" fill="none"/>
    </clipPath>
    <clipPath id="clip-path-84">
      <rect id="Rectangle_54" data-name="Rectangle 54" width="12.811" height="13.749" fill="none"/>
    </clipPath>
    <clipPath id="clip-path-86">
      <path id="Path_133" data-name="Path 133" d="M30.823,75.453c-5.512,1.787-8.69,1.376-11.057,4.115-.315.365-1.593,1.843-1.142,2.881.723,1.666,4.849,1.318,4.876,1.941.018.43-1.968.951-3.647,1.2-2.983.447-3.875-.124-5.051.712-1.049.746-1.913,2.318-1.48,3.322.648,1.5,4.015,1.308,4.3,2.89,0,.016.006.029.007.047.1.913-1.667,1.605-3.925,2.964-2.81,1.692-5.341,3.216-5.279,4.953a3.158,3.158,0,0,0,1.867,2.355c1.666.816,3.662.03,5.571-.722,2.159-.851,3.122-1.72,3.685-1.3.7.524-.349,2.186.525,3.121.655.7,2.016.592,2.889.252.907-.353,1.345-.978,2.814-3.2,1.628-2.459,2.536-3.878,2.82-3.755.326.143-.719,2.087.19,3.229a2.02,2.02,0,0,0,1.773.686c1.363-.176,2.091-1.935,2.477-2.868a24.83,24.83,0,0,0,1.052-5c.144-.9.324-2.106.578-2.108.3,0,.23,1.613,1.092,2.014.706.329,1.652-.332,1.785-.427,1.657-1.192,1.446-4.318,1.182-6.887a98.018,98.018,0,0,0-2.206-12.817,37.637,37.637,0,0,1-5.7,2.39" transform="translate(-8.427 -73.063)" fill="none"/>
    </clipPath>
    <clipPath id="clip-path-87">
      <rect id="Rectangle_56" data-name="Rectangle 56" width="21.102" height="29.103" fill="none"/>
    </clipPath>
    <clipPath id="clip-path-88">
      <rect id="Rectangle_57" data-name="Rectangle 57" width="43.136" height="34.275" fill="none"/>
    </clipPath>
    <clipPath id="clip-path-90">
      <path id="Path_137" data-name="Path 137" d="M83.9,16.8c-.958.173-1.507.7-3.373,2.6-2.067,2.1-3.23,3.321-3.486,3.146-.293-.2,1.1-1.911.431-3.205a2.018,2.018,0,0,0-1.61-1.012c-1.371-.089-2.422,1.5-2.979,2.341a24.836,24.836,0,0,0-1.988,4.7c-.313.857-.72,2.005-.97,1.958-.29-.054.083-1.626-.687-2.185-.63-.457-1.685.01-1.833.078-1.854.853-2.245,3.962-2.477,6.533a98.109,98.109,0,0,0-.285,13,37.581,37.581,0,0,1,6.05-1.257c5.752-.7,8.793.311,11.639-1.926.379-.3,1.916-1.5,1.672-2.61-.392-1.773-4.508-2.221-4.415-2.837.065-.426,2.113-.557,3.809-.483,3.014.132,3.78.862,5.094.267,1.172-.531,2.321-1.909,2.088-2.979-.349-1.6-3.691-2.051-3.67-3.66,0-.015,0-.028,0-.047.077-.915,1.943-1.257,4.419-2.159,3.082-1.124,5.857-2.136,6.129-3.853a3.156,3.156,0,0,0-1.383-2.669c-1.479-1.119-3.589-.729-5.606-.356-2.282.422-3.393,1.091-3.865.569-.584-.647.76-2.08.082-3.163a2.45,2.45,0,0,0-2.093-.86,3.921,3.921,0,0,0-.7.06" transform="translate(-64.55 -16.744)" fill="none"/>
    </clipPath>
    <clipPath id="clip-path-91">
      <rect id="Rectangle_59" data-name="Rectangle 59" width="26.276" height="24.533" fill="none"/>
    </clipPath>
    <clipPath id="clip-path-92">
      <rect id="Rectangle_60" data-name="Rectangle 60" width="44.336" height="28.586" fill="none"/>
    </clipPath>
    <clipPath id="clip-path-94">
      <path id="Path_141" data-name="Path 141" d="M6.853,16.067c-.888,1.628-.191,3.657.476,5.6.754,2.194,1.58,3.195,1.134,3.738-.265.323-.774.235-1.339.146a2.143,2.143,0,0,0-1.8.241c-.729.623-.681,1.988-.38,2.876.313.921.917,1.386,3.07,2.952,2.385,1.734,3.762,2.705,3.626,2.983-.066.135-.442.012-.943-.111a2.774,2.774,0,0,0-2.291.158,2.019,2.019,0,0,0-.764,1.741c.115,1.37,1.84,2.174,2.755,2.6a24.785,24.785,0,0,0,4.944,1.272c.895.183,2.09.417,2.081.671-.011.295-1.621.159-2.06,1-.359.69.259,1.665.348,1.8,1.117,1.708,4.249,1.636,6.827,1.486a98.184,98.184,0,0,0,12.9-1.637,37.529,37.529,0,0,1-2.136-5.8c-1.542-5.585-.99-8.742-3.623-11.228-.35-.331-1.771-1.673-2.828-1.268-1.7.649-1.531,4.786-2.155,4.785-.431,0-.863-2.008-1.04-3.7-.315-3,.3-3.866-.488-5.078-.7-1.081-2.231-2.014-3.254-1.626-1.531.581-1.484,3.953-3.077,4.17l-.047,0c-.916.059-1.53-1.737-2.787-4.051-1.566-2.883-2.976-5.479-4.715-5.494H9.274a3.167,3.167,0,0,0-2.421,1.762" transform="translate(-4.735 -14.305)" fill="none"/>
    </clipPath>
    <clipPath id="clip-path-95">
      <rect id="Rectangle_62" data-name="Rectangle 62" width="28.141" height="22.368" fill="none"/>
    </clipPath>
    <clipPath id="clip-path-96">
      <rect id="Rectangle_63" data-name="Rectangle 63" width="33.071" height="43.556" fill="none"/>
    </clipPath>
    <clipPath id="clip-path-98">
      <path id="Path_144" data-name="Path 144" d="M58.34,41.55a6.276,6.276,0,0,0-4.42,2.4c-1.836,2.126-3.481,6.521-.91,9.433,2.151,2.437,6.15,2.586,8.783.741,3.3-2.314,3.547-7.13,1.566-9.915a6.41,6.41,0,0,0-4.833-2.659c-.062,0-.124,0-.187,0" transform="translate(-51.684 -41.547)" fill="none"/>
    </clipPath>
    <clipPath id="clip-path-99">
      <rect id="Rectangle_65" data-name="Rectangle 65" width="24.35" height="15.875" fill="none"/>
    </clipPath>
    <clipPath id="clip-path-101">
      <path id="Path_147" data-name="Path 147" d="M66.644,66.684A5.532,5.532,0,0,0,65,73.645a5.953,5.953,0,0,0,7.77,2.441A5.156,5.156,0,0,0,75.5,72.375a5.093,5.093,0,0,0-1.4-3.833A7.346,7.346,0,0,0,68.988,66a4.236,4.236,0,0,0-2.344.684" transform="translate(-64.416 -66)" fill="none"/>
    </clipPath>
    <clipPath id="clip-path-102">
      <rect id="Rectangle_67" data-name="Rectangle 67" width="13.144" height="19.511" fill="none"/>
    </clipPath>
    <clipPath id="clip-path-104">
      <path id="Path_150" data-name="Path 150" d="M43.177,70.863a5.152,5.152,0,0,0-1.332,4.411,5.089,5.089,0,0,0,2.6,3.145c1.98,1.131,5.734,1.755,7.653-.746a5.532,5.532,0,0,0-.78-7.109,5.4,5.4,0,0,0-3.794-1.472,6.091,6.091,0,0,0-4.345,1.77" transform="translate(-41.736 -69.093)" fill="none"/>
    </clipPath>
    <clipPath id="clip-path-105">
      <rect id="Rectangle_69" data-name="Rectangle 69" width="15.712" height="21.231" fill="none"/>
    </clipPath>
  </defs>
  <g id="Group_373" data-name="Group 373" transform="translate(-62.569 -107.432)">
    <g id="Group_2" data-name="Group 2" transform="translate(62.569 107.432)">
      <g id="Group_1" data-name="Group 1" clip-path="url(#clip-path)">
        <path id="Path_1" data-name="Path 1" d="M212.438,106.521c0,58.554-47.13,106.021-105.269,106.021S1.9,165.074,1.9,106.521,49.03.5,107.169.5,212.438,47.967,212.438,106.521" transform="translate(-0.95 -0.25)" fill="#aabee5"/>
        <ellipse id="Ellipse_1" data-name="Ellipse 1" cx="105.269" cy="106.021" rx="105.269" ry="106.021" transform="translate(0.95 0.25)" fill="none"/>
      </g>
    </g>
    <g id="Group_4" data-name="Group 4" transform="translate(63.519 107.682)">
      <g id="Group_3" data-name="Group 3" clip-path="url(#clip-path-2)">
        <path id="Path_2" data-name="Path 2" d="M105.794,207.3a50.257,50.257,0,0,0-15.932,3.984c-27.727,12.628-40.526,56.942-36.5,109.7L201.1,325.06c1.414-9.883,4.914-43.233-15.835-74.1-15.078-22.432-45.514-47.352-79.468-43.661" transform="translate(-27.264 -103.7)" fill="#d5415e"/>
      </g>
    </g>
    <g id="Group_12" data-name="Group 12" transform="translate(90.047 210.912)">
      <g id="Group_11" data-name="Group 11" clip-path="url(#clip-path-3)">
        <rect id="Rectangle_6" data-name="Rectangle 6" width="36.71" height="94.141" transform="translate(55.739 29.046)" fill="#efefee"/>
        <g id="Group_7" data-name="Group 7" transform="translate(32.782 -4.597)" opacity="0.09">
          <g id="Group_6" data-name="Group 6">
            <g id="Group_5" data-name="Group 5" clip-path="url(#clip-path-4)">
              <path id="Path_4" data-name="Path 4" d="M249.124,322.409c-22.1,12.37-47.623,12.971-65.274.584-15.925-11.176-21.337-30.042-22.595-34.426a71.093,71.093,0,0,1-2.1-28.7c-.988-.013-22.853-.691-33.628-19.732a39.852,39.852,0,0,1,2.317-42.4l52.462,2.723,68.816,121.949" transform="translate(-120.503 -197.737)" fill="#422025"/>
            </g>
          </g>
        </g>
        <g id="Group_10" data-name="Group 10" transform="translate(-8.797 6.401)" opacity="0.14">
          <g id="Group_9" data-name="Group 9">
            <g id="Group_8" data-name="Group 8" clip-path="url(#clip-path-5)">
              <path id="Path_5" data-name="Path 5" d="M56.152,331.848,41.088,333.21c-1.63-7.5-15.118-73.626,21.823-104.25a60.061,60.061,0,0,1,15.4-9.23,99.968,99.968,0,0,0-16.749,23.039c-19.787,37.619-9.19,76.976-5.407,89.08" transform="translate(-37.356 -219.73)" fill="#fff"/>
            </g>
          </g>
        </g>
      </g>
    </g>
    <g id="Group_14" data-name="Group 14" transform="translate(63.519 107.682)">
      <g id="Group_13" data-name="Group 13" clip-path="url(#clip-path-2)">
        <path id="Path_7" data-name="Path 7" d="M263.861,285.51a50.363,50.363,0,0,0,16.511,12.545c5.339,2.507,18.081,8.49,30.706,2.917,2.085-.92,9.049-4.311,12.746-11.086,8.465-15.516-5.988-38.184-14.194-51.055-9.515-14.923-28.379-39.329-64.038-60.525q9.134,53.6,18.269,107.2" transform="translate(-123.728 -89.39)" fill="#d5415e"/>
      </g>
    </g>
    <g id="Group_22" data-name="Group 22" transform="translate(185.383 196.598)">
      <g id="Group_21" data-name="Group 21" clip-path="url(#clip-path-7)">
        <g id="Group_17" data-name="Group 17" transform="translate(0.186 3.103)" opacity="0.09">
          <g id="Group_16" data-name="Group 16">
            <g id="Group_15" data-name="Group 15" clip-path="url(#clip-path-8)">
              <path id="Path_9" data-name="Path 9" d="M296.974,250.837,245.963,233.4q4.36-24.443,8.719-48.887l29.354,19.644c-.907.964-6.276,6.489-14.1,6.029a16.572,16.572,0,0,1-7.146-2.139c-1.821,3.554-3.832,9-2.124,14.393,1.775,5.6,6.561,7.975,16.415,14.393,4.878,3.177,11.76,7.842,19.891,14" transform="translate(-245.963 -184.514)" fill="#422025"/>
            </g>
          </g>
        </g>
        <g id="Group_20" data-name="Group 20" transform="translate(21.457 27.695)" opacity="0.1">
          <g id="Group_19" data-name="Group 19">
            <g id="Group_18" data-name="Group 18" clip-path="url(#clip-path-9)">
              <path id="Path_10" data-name="Path 10" d="M335.234,337.66c-14.415,4.807-32.842-3.979-46.734-19.45a55.881,55.881,0,0,0,25.3,9.53c6.909.755,19.336,2.113,26.264-5.446,4.654-5.077,4.772-11.937,4.828-15.171.472-27.373-35.212-67.075-41.01-73.435,3.812.461,34.018,4.6,47.769,30.062,14.075,26.064,6.485,66.273-16.415,73.909" transform="translate(-288.5 -233.689)" fill="#fff"/>
            </g>
          </g>
        </g>
      </g>
    </g>
    <g id="Group_24" data-name="Group 24" transform="translate(63.519 107.682)">
      <g id="Group_23" data-name="Group 23" clip-path="url(#clip-path-2)">
        <path id="Path_12" data-name="Path 12" d="M180.164,180.625c-11.557,4.109-22.446-2.462-23.174-2.917-12.287-7.676-17.908-25.12-12.359-42.6h54.717c4.351,21.564-5.063,40.5-19.183,45.518" transform="translate(-72.184 -67.794)" fill="#be8b7a"/>
      </g>
    </g>
    <g id="Group_32" data-name="Group 32" transform="translate(133.824 174.995)">
      <g id="Group_31" data-name="Group 31" clip-path="url(#clip-path-11)">
        <g id="Group_27" data-name="Group 27" transform="translate(-1.431 -1.55)" opacity="0.1">
          <g id="Group_26" data-name="Group 26">
            <g id="Group_25" data-name="Group 25" clip-path="url(#clip-path-12)">
              <path id="Path_14" data-name="Path 14" d="M201.007,147.437a52.751,52.751,0,0,0-61.38.816V132.007h68.461l-7.081,15.43" transform="translate(-139.627 -132.007)" fill="#a73e2b"/>
            </g>
          </g>
        </g>
        <g id="Group_30" data-name="Group 30" transform="translate(0.694 9.245)" opacity="0.05">
          <g id="Group_29" data-name="Group 29">
            <g id="Group_28" data-name="Group 28" clip-path="url(#clip-path-13)">
              <path id="Path_15" data-name="Path 15" d="M210.984,188.6H143.876q.754-16.24,1.509-32.48c.584,3.425,2.269,10.446,7.568,15.177a10.237,10.237,0,0,0,4.635,2.626c4.479,1.023,8.351-1.823,9.284-2.548l12.1,1.46c1.172.68,5.68,3.112,10.093,1.38,3.787-1.486,5.377-5.2,7.145-9.336a31.74,31.74,0,0,0,2.511-11.281l12.263,35" transform="translate(-143.876 -153.593)" fill="#a73e2b"/>
            </g>
          </g>
        </g>
      </g>
    </g>
    <g id="Group_34" data-name="Group 34" transform="translate(63.519 107.682)">
      <g id="Group_33" data-name="Group 33" clip-path="url(#clip-path-2)">
        <path id="Path_17" data-name="Path 17" d="M212.961,138.094c2.269-2.581,6.223-3.748,9.141-2.464.163.072,2.3,1.032,2.189,2.075-.106,1.007-2.153,1.2-5.665,2.464-5.062,1.823-6.729,3.557-7.467,2.852s.362-3.288,1.8-4.927" transform="translate(-106.396 -67.793)" fill="#efefee"/>
        <path id="Path_18" data-name="Path 18" d="M230.959,125.525c.144,5.619,2.225,8.658,3.347,9.984.712.842,2.522,2.982,3.862,2.464,1.009-.39,1.235-2.087,1.288-2.593-.765,3.216.576,6.033,2.575,6.742a4.465,4.465,0,0,0,4.249-1.167c1.941-1.784,2.319-5.193.773-8.428l-16.093-7" transform="translate(-116.412 -63.003)" fill="#efefee"/>
        <path id="Path_19" data-name="Path 19" d="M166.782,177.489a26.341,26.341,0,0,0,13.132-5.187,29.261,29.261,0,0,0,7.725-8.947,32.69,32.69,0,0,0,3.833-19.193c1.6-1.372,3.676-2.854,4.793-2.2,1.538.9,0,5.109-.773,10.374-1.706,11.65,2.172,16.074,2.832,37.473,0,.161.006.208.007.231.05,2.038.076,12.514-6.057,20.775-9.831,13.242-29.391,15.316-43.259,10.243-3.4-1.245-12.951-4.82-18.153-14.134-5.992-10.728,1.674-20.376,2.768-46.485a154.127,154.127,0,0,0-.193-16.532l4.892-1.038A29.911,29.911,0,0,0,141.29,163.1c5.849,10.4,17.59,15.071,25.492,14.393" transform="translate(-65.239 -71.141)" fill="#efefee"/>
      </g>
    </g>
    <g id="Group_39" data-name="Group 39" transform="translate(126.877 178.343)">
      <g id="Group_38" data-name="Group 38" clip-path="url(#clip-path-15)">
        <g id="Group_37" data-name="Group 37" transform="translate(-2.112 13.774)" opacity="0.03">
          <g id="Group_36" data-name="Group 36">
            <g id="Group_35" data-name="Group 35" clip-path="url(#clip-path-16)">
              <path id="Path_21" data-name="Path 21" d="M202.586,245.328H124.373V193.852c4.74,20.7,22.967,34.021,40.362,32.286,21.765-2.171,32.457-26.949,32.83-43.389a41.762,41.762,0,0,0-1.931-13.4l6.952,75.983" transform="translate(-124.373 -169.345)" fill="#422025"/>
            </g>
          </g>
        </g>
      </g>
    </g>
    <g id="Group_41" data-name="Group 41" transform="translate(63.519 107.682)">
      <g id="Group_40" data-name="Group 40" clip-path="url(#clip-path-17)">
        <path id="Path_23" data-name="Path 23" d="M187.707,208.968a8.583,8.583,0,0,0,9.012,5.3,8.48,8.48,0,0,0,6.582-5.64l-15.594.341" transform="translate(-94.789 -104.548)" fill="#be8b7a"/>
        <path id="Path_24" data-name="Path 24" d="M211.141,278.05c-3.049,5.259-3.192,11.026-3.476,22.562s-.357,17.394,3.089,21.006c1.134,1.187,5.519,2.931,14.291,6.418a107.8,107.8,0,0,0,10.235,3.7c6.868,2,10.3,2.995,12.746,2.14,2.652-.928,4.714-3.456,9.077-19.839,3.867-14.52,5.761-21.888,3.862-27.229-2.483-6.985-7.829-10.938-11.973-14-5.2-3.848-11.961-8.846-20.664-7.586-10.637,1.541-16.29,11.29-17.188,12.837" transform="translate(-104.706 -132.738)" fill="#efefee"/>
      </g>
    </g>
    <g id="Group_49" data-name="Group 49" transform="translate(166.356 239.959)">
      <g id="Group_48" data-name="Group 48" clip-path="url(#clip-path-18)">
        <g id="Group_44" data-name="Group 44" transform="translate(5.675 9.121)" opacity="0.19">
          <g id="Group_43" data-name="Group 43">
            <g id="Group_42" data-name="Group 42" clip-path="url(#clip-path-19)">
              <path id="Path_26" data-name="Path 26" d="M228.98,304.673c-1.14,7.009-4,18.656-6.566,18.477-2.062-.144-3.521-7.892-3.525-14-.008-13.642,7.228-26.526,9.9-25.868,2.618.645,1.326,14.434.193,21.395" transform="translate(-218.891 -283.255)" fill="#422025"/>
            </g>
          </g>
        </g>
        <g id="Group_47" data-name="Group 47" transform="translate(-3.74 14.98)" opacity="0.03">
          <g id="Group_46" data-name="Group 46">
            <g id="Group_45" data-name="Group 45" clip-path="url(#clip-path-20)">
              <path id="Path_27" data-name="Path 27" d="M258.965,294.971c3.542,60.366-.894,74.239-5.793,75.27-5.118,1.077-8.81-12.261-26.2-18.866-8.079-3.069-12.95-2.342-18.411-7.2-5.873-5.222-7.8-12.786-8.5-18.477,1.461,1.918,12.232,15.652,26.843,14.976,16.534-.765,33.122-19.755,32.058-45.707" transform="translate(-200.064 -294.971)" fill="#422025"/>
            </g>
          </g>
        </g>
      </g>
    </g>
    <g id="Group_51" data-name="Group 51" transform="translate(63.519 107.682)">
      <g id="Group_50" data-name="Group 50" clip-path="url(#clip-path-2)">
        <path id="Path_29" data-name="Path 29" d="M192.307,207.453a12.024,12.024,0,0,0,1.594-.341c2.44-.7,2.65-1.605,4.031-1.666,1.273-.056,1.437.7,3.651,1.082a10.7,10.7,0,0,0,2.222.146,8.34,8.34,0,0,1-2.029,1.7,8.256,8.256,0,0,1-3.767,1.152,7.473,7.473,0,0,1-3.577-.617,7.319,7.319,0,0,1-2.126-1.46" transform="translate(-97.089 -102.957)" fill="#422025"/>
        <path id="Path_30" data-name="Path 30" d="M202.64,193.171c.741-.884,2.11-.837,3.347-.778,2.757.132,3.671,1.171,7.081,2.334,2.65.9,4.467,1.524,6.694,1.167,2.992-.48,4.753-2.408,5.021-2.075s-1.332,2.215-3.09,3.631a15.648,15.648,0,0,1-10.429,3.5c-2.548-.07-5.975-.164-7.853-2.593-1.15-1.487-1.8-3.958-.773-5.187" transform="translate(-101.998 -96.419)" fill="#efefee"/>
      </g>
    </g>
    <g id="Group_56" data-name="Group 56" transform="translate(163.647 203.629)">
      <g id="Group_55" data-name="Group 55" clip-path="url(#clip-path-22)">
        <g id="Group_54" data-name="Group 54" transform="translate(-0.858 -1.058)" opacity="0.03">
          <g id="Group_53" data-name="Group 53">
            <g id="Group_52" data-name="Group 52" clip-path="url(#clip-path-23)">
              <path id="Path_32" data-name="Path 32" d="M224.21,205.988h-23.8V193.8q11.269,6.686,12.853,4.86a1.577,1.577,0,0,0,.2-1.362,1.844,1.844,0,0,0,2.414,1.021,1.771,1.771,0,0,0,.579-1.459,2.338,2.338,0,0,0,1.3.632c.536.064,1.455-.035,1.593-.535.1-.358-.252-.748-.367-.867a9.776,9.776,0,0,0,1.863-.786,10.929,10.929,0,0,0,4.538-5.057l-1.179,15.738" transform="translate(-200.408 -190.25)" fill="#422025"/>
            </g>
          </g>
        </g>
      </g>
    </g>
    <g id="Group_58" data-name="Group 58" transform="translate(63.519 107.682)">
      <g id="Group_57" data-name="Group 57" clip-path="url(#clip-path-2)">
        <path id="Path_34" data-name="Path 34" d="M178.932,193.171c-.741-.884-2.11-.837-3.348-.778-2.757.132-3.671,1.171-7.081,2.334-2.65.9-4.467,1.524-6.694,1.167-2.992-.48-4.753-2.408-5.021-2.075s1.332,2.215,3.09,3.631a15.648,15.648,0,0,0,10.428,3.5c2.548-.07,5.975-.164,7.854-2.593,1.15-1.487,1.8-3.958.773-5.187" transform="translate(-79.318 -96.419)" fill="#efefee"/>
      </g>
    </g>
    <g id="Group_63" data-name="Group 63" transform="translate(140.961 203.629)">
      <g id="Group_62" data-name="Group 62" clip-path="url(#clip-path-25)">
        <g id="Group_61" data-name="Group 61" transform="translate(-1.437 -1.058)" opacity="0.03">
          <g id="Group_60" data-name="Group 60">
            <g id="Group_59" data-name="Group 59" clip-path="url(#clip-path-26)">
              <path id="Path_36" data-name="Path 36" d="M155.066,205.988h23.8V193.8q-11.269,6.686-12.853,4.86a1.577,1.577,0,0,1-.2-1.362,1.844,1.844,0,0,1-2.414,1.021,1.771,1.771,0,0,1-.579-1.459,2.338,2.338,0,0,1-1.3.632c-.536.064-1.455-.035-1.593-.535-.1-.358.252-.748.367-.867a9.775,9.775,0,0,1-1.863-.786,10.929,10.929,0,0,1-4.538-5.057l1.179,15.738" transform="translate(-153.887 -190.25)" fill="#422025"/>
            </g>
          </g>
        </g>
      </g>
    </g>
    <g id="Group_65" data-name="Group 65" transform="translate(63.519 107.682)">
      <g id="Group_64" data-name="Group 64" clip-path="url(#clip-path-2)">
        <path id="Path_38" data-name="Path 38" d="M191.032,159.492q-.064,5.122-.129,10.243c-3.747,1.183-4.173,2.619-4.249,3.112-.4,2.611,4.737,6.426,9.3,5.867,1.776-.218,4.839-1.266,4.989-3.274.128-1.7-1.915-3.064-2.189-3.242" transform="translate(-94.252 -79.984)" fill="#be8b7a"/>
      </g>
    </g>
    <g id="Group_73" data-name="Group 73" transform="translate(155.899 187.189)">
      <g id="Group_72" data-name="Group 72" clip-path="url(#clip-path-28)">
        <g id="Group_68" data-name="Group 68" transform="translate(-0.592 13.777)" opacity="0.1">
          <g id="Group_67" data-name="Group 67">
            <g id="Group_66" data-name="Group 66" clip-path="url(#clip-path-29)">
              <path id="Path_40" data-name="Path 40" d="M204.151,195.405h-18.7v-8.363a19.175,19.175,0,0,0,18.7,0Z" transform="translate(-185.448 -187.041)" fill="#a73e2b"/>
            </g>
          </g>
        </g>
        <g id="Group_71" data-name="Group 71" transform="translate(-22.637 -12.884)" opacity="0.1">
          <g id="Group_70" data-name="Group 70">
            <g id="Group_69" data-name="Group 69" clip-path="url(#clip-path-30)">
              <rect id="Rectangle_19" data-name="Rectangle 19" width="64.115" height="14.272" transform="translate(0)" fill="#a73e2b"/>
            </g>
          </g>
        </g>
      </g>
    </g>
    <g id="Group_75" data-name="Group 75" transform="translate(63.519 107.682)">
      <g id="Group_74" data-name="Group 74" clip-path="url(#clip-path-2)">
        <path id="Path_42" data-name="Path 42" d="M214.674,161a6.4,6.4,0,0,1-.115-4.842c1.146-3.3,5.086-6.594,8.585-5.3,2.854,1.053,4.133,4.648,3.778,7.494-.037.294-.619,4.411-4.154,5.755a6.667,6.667,0,0,1-8.094-3.1" transform="translate(-107.999 -75.521)" fill="#fff"/>
      </g>
    </g>
    <g id="Group_80" data-name="Group 80" transform="translate(169.649 182.725)">
      <g id="Group_79" data-name="Group 79" clip-path="url(#clip-path-32)">
        <g id="Group_78" data-name="Group 78" transform="translate(-2.779 -0.782)" opacity="0.03">
          <g id="Group_77" data-name="Group 77">
            <g id="Group_76" data-name="Group 76" clip-path="url(#clip-path-33)">
              <path id="Path_44" data-name="Path 44" d="M224.769,157.295c-.167-.526-1.465-4.453-4.35-5.159-3.247-.8-8.05,2.6-9.272,9.078q-1.288-4.98-2.575-9.96c.964-.6,5.76-3.421,11.16-1.712a12.139,12.139,0,0,1,4.15,2.305q.443,2.724.887,5.447" transform="translate(-208.572 -149)" fill="#422025"/>
            </g>
          </g>
        </g>
      </g>
    </g>
    <g id="Group_85" data-name="Group 85" transform="translate(63.519 107.682)">
      <g id="Group_84" data-name="Group 84" clip-path="url(#clip-path-2)">
        <path id="Path_46" data-name="Path 46" d="M226.979,160.114c0,2.42-1.486,4.381-3.319,4.381s-3.319-1.961-3.319-4.381,1.486-4.38,3.319-4.38,3.319,1.961,3.319,4.38" transform="translate(-111.103 -78.106)" fill="#422025"/>
        <g id="Group_83" data-name="Group 83" transform="translate(105.841 74.861)" opacity="0.09">
          <g id="Group_82" data-name="Group 82">
            <g id="Group_81" data-name="Group 81" clip-path="url(#clip-path-35)">
              <path id="Path_47" data-name="Path 47" d="M213.63,154.068a3.1,3.1,0,0,1,.007-1.439,3.245,3.245,0,0,1,.643-1.334,3.025,3.025,0,0,1,1.2-.886,2.7,2.7,0,0,1,1.434-.177,4.414,4.414,0,0,0-2.215,1.4,5.757,5.757,0,0,0-1.065,2.434" transform="translate(-213.549 -150.201)" fill="#a73e2b"/>
            </g>
          </g>
        </g>
        <path id="Path_48" data-name="Path 48" d="M214.567,160.473a7.631,7.631,0,0,1-.59-4.011,7.913,7.913,0,0,1,1.679-3.793,8.736,8.736,0,0,1,3.291-2.613,6.759,6.759,0,0,1,2.11-.529,5.741,5.741,0,0,1,2.2.311,6.018,6.018,0,0,1,3.129,2.953,8.6,8.6,0,0,1,.9,4.107,7.511,7.511,0,0,1-1.242,3.964,8.408,8.408,0,0,1-3,2.725,9.434,9.434,0,0,0,2.551-2.995,7.327,7.327,0,0,0,.858-3.694,8.2,8.2,0,0,0-.963-3.634,5.053,5.053,0,0,0-2.608-2.422,4.69,4.69,0,0,0-1.755-.269,6.183,6.183,0,0,0-1.779.417A8.357,8.357,0,0,0,216.3,153.2a9.431,9.431,0,0,0-.6.749c-.168.271-.363.531-.5.817a6.607,6.607,0,0,0-.7,1.788,8.4,8.4,0,0,0,.075,3.917" transform="translate(-107.892 -74.998)" fill="#422025"/>
        <path id="Path_49" data-name="Path 49" d="M175.665,160.224a6.4,6.4,0,0,0,.114-4.842c-1.146-3.3-5.086-6.594-8.584-5.3-2.855,1.053-4.133,4.648-3.778,7.494.036.294.619,4.412,4.154,5.755a6.667,6.667,0,0,0,8.094-3.1" transform="translate(-82.617 -75.135)" fill="#fff"/>
      </g>
    </g>
    <g id="Group_90" data-name="Group 90" transform="translate(144.26 182.339)">
      <g id="Group_89" data-name="Group 89" clip-path="url(#clip-path-36)">
        <g id="Group_88" data-name="Group 88" transform="translate(-0.567 -0.782)" opacity="0.03">
          <g id="Group_87" data-name="Group 87">
            <g id="Group_86" data-name="Group 86" clip-path="url(#clip-path-33)">
              <path id="Path_51" data-name="Path 51" d="M162.224,156.523c.167-.526,1.465-4.453,4.35-5.159,3.247-.8,8.05,2.6,9.272,9.078q1.288-4.98,2.575-9.96c-.964-.6-5.76-3.421-11.16-1.712a12.139,12.139,0,0,0-4.15,2.305q-.443,2.724-.887,5.447" transform="translate(-162.224 -148.228)" fill="#422025"/>
            </g>
          </g>
        </g>
      </g>
    </g>
    <g id="Group_98" data-name="Group 98" transform="translate(63.519 107.682)">
      <g id="Group_97" data-name="Group 97" clip-path="url(#clip-path-2)">
        <path id="Path_53" data-name="Path 53" d="M170.59,159.076c0,2.419,1.486,4.381,3.319,4.381s3.319-1.961,3.319-4.381-1.486-4.381-3.319-4.381-3.319,1.961-3.319,4.381" transform="translate(-86.232 -77.586)" fill="#422025"/>
        <g id="Group_93" data-name="Group 93" transform="translate(90.521 74.475)" opacity="0.09">
          <g id="Group_92" data-name="Group 92">
            <g id="Group_91" data-name="Group 91" clip-path="url(#clip-path-35)">
              <path id="Path_54" data-name="Path 54" d="M186.195,153.3a5.757,5.757,0,0,0-1.065-2.434,4.418,4.418,0,0,0-2.215-1.4,2.7,2.7,0,0,1,1.434.177,3.025,3.025,0,0,1,1.2.886,3.245,3.245,0,0,1,.643,1.334,3.1,3.1,0,0,1,.007,1.439" transform="translate(-182.914 -149.429)" fill="#a73e2b"/>
            </g>
          </g>
        </g>
        <path id="Path_55" data-name="Path 55" d="M175.25,159.7a8.4,8.4,0,0,0,.074-3.917,6.606,6.606,0,0,0-.7-1.788c-.142-.287-.337-.546-.5-.817a9.332,9.332,0,0,0-.6-.749,8.357,8.357,0,0,0-3.043-2.212,6.2,6.2,0,0,0-1.779-.417,4.7,4.7,0,0,0-1.755.269,5.053,5.053,0,0,0-2.608,2.422,8.2,8.2,0,0,0-.963,3.634,7.329,7.329,0,0,0,.858,3.694,9.426,9.426,0,0,0,2.551,2.994,8.4,8.4,0,0,1-3-2.724,7.513,7.513,0,0,1-1.242-3.964,8.6,8.6,0,0,1,.9-4.107,6.022,6.022,0,0,1,3.129-2.953,5.751,5.751,0,0,1,2.2-.311,6.772,6.772,0,0,1,2.11.528,8.737,8.737,0,0,1,3.291,2.614,7.914,7.914,0,0,1,1.679,3.793,7.632,7.632,0,0,1-.59,4.011" transform="translate(-82.203 -74.612)" fill="#422025"/>
        <path id="Path_56" data-name="Path 56" d="M177.744,136.715c-2.269-2.581-6.223-3.748-9.141-2.464-.163.072-2.3,1.032-2.189,2.075.106,1.007,2.153,1.2,5.665,2.464,5.062,1.823,6.729,3.557,7.467,2.852s-.362-3.288-1.8-4.927" transform="translate(-84.142 -67.103)" fill="#efefee"/>
        <g id="Group_96" data-name="Group 96" transform="translate(91.814 78.969)" opacity="0.24">
          <g id="Group_95" data-name="Group 95">
            <g id="Group_94" data-name="Group 94" clip-path="url(#clip-path-40)">
              <path id="Path_57" data-name="Path 57" d="M190.588,158.414q.105,1.282.176,2.563l.125,2.563.09,2.562.057,2.562.009.395-.413.152a10.18,10.18,0,0,0-2.907,1.477,2.377,2.377,0,0,0-.8,1.047,1.749,1.749,0,0,0,.2,1.2,6.751,6.751,0,0,0,2.131,2.27,10.787,10.787,0,0,0,2.932,1.445,8.318,8.318,0,0,0,3.2.4,8.9,8.9,0,0,0,3.152-.868,3.776,3.776,0,0,0,1.246-.944,1.813,1.813,0,0,0,.415-1.395,3.276,3.276,0,0,0-.671-1.482,7.219,7.219,0,0,0-1.212-1.242,6.107,6.107,0,0,1,1.437,1.042,3.45,3.45,0,0,1,.979,1.576,2.418,2.418,0,0,1-.337,1.938,4.583,4.583,0,0,1-1.4,1.312,8.07,8.07,0,0,1-1.677.792,9.812,9.812,0,0,1-1.8.453,9.281,9.281,0,0,1-3.712-.29,11.287,11.287,0,0,1-3.354-1.574,7.466,7.466,0,0,1-2.592-2.823,3.111,3.111,0,0,1-.252-2.212,3.476,3.476,0,0,1,1.306-1.694,8.155,8.155,0,0,1,1.655-.933,13.219,13.219,0,0,1,1.72-.6l-.4.547.121-2.559.155-2.559.19-2.559q.1-1.28.241-2.558" transform="translate(-185.5 -158.414)" fill="#a73e2b"/>
            </g>
          </g>
        </g>
        <path id="Path_58" data-name="Path 58" d="M130.218,153.417a4.529,4.529,0,0,0-2.568-.8c-2.678.061-4.292,2.869-4.506,3.241-2.41,4.2.562,9.664,1.159,10.762a16.256,16.256,0,0,0,6.383,6.346,52.393,52.393,0,0,0-.468-19.553" transform="translate(-62.048 -76.548)" fill="#be8b7a"/>
      </g>
    </g>
    <g id="Group_106" data-name="Group 106" transform="translate(123.685 183.753)">
      <g id="Group_105" data-name="Group 105" clip-path="url(#clip-path-41)">
        <g id="Group_101" data-name="Group 101" transform="translate(4.587 -0.49)" opacity="0.1">
          <g id="Group_100" data-name="Group 100">
            <g id="Group_99" data-name="Group 99" clip-path="url(#clip-path-42)">
              <path id="Path_60" data-name="Path 60" d="M131.386,177.87h6.5V151.642h-6.5a50.4,50.4,0,0,1,0,26.228" transform="translate(-131.386 -151.641)" fill="#a73e2b"/>
            </g>
          </g>
        </g>
        <g id="Group_104" data-name="Group 104" transform="translate(2.024 3.973)" opacity="0.17">
          <g id="Group_103" data-name="Group 103">
            <g id="Group_102" data-name="Group 102" clip-path="url(#clip-path-43)">
              <path id="Path_61" data-name="Path 61" d="M126.261,162.3a4.913,4.913,0,0,1,1.748-1.407,3.717,3.717,0,0,1,1.178-.313,2.255,2.255,0,0,1,.638.022,2.756,2.756,0,0,1,.626.135,4.79,4.79,0,0,1,2.046,1.349,8.216,8.216,0,0,1,1.317,1.927,12.264,12.264,0,0,1,1.2,4.315,13.491,13.491,0,0,1-.259,4.378c-.337-1.428-.613-2.81-.987-4.149a20.309,20.309,0,0,0-1.4-3.82,6.245,6.245,0,0,0-2.384-2.825c-1-.61-2.419-.231-3.731.388" transform="translate(-126.261 -160.565)" fill="#a73e2b"/>
            </g>
          </g>
        </g>
      </g>
    </g>
    <g id="Group_108" data-name="Group 108" transform="translate(63.519 107.682)">
      <g id="Group_107" data-name="Group 107" clip-path="url(#clip-path-2)">
        <path id="Path_63" data-name="Path 63" d="M212.419,118.767c-1.851-1.536-3.755-3.258-5.665-5.187A79.842,79.842,0,0,1,194.4,97.391a63.188,63.188,0,0,0-30-5.724c-5.834.381-9.3.608-13.79,2.357-3.757,1.465-14.827,6.572-20.843,7.886a3.354,3.354,0,0,1-2.575-.259c-1.76-1.176-1.447-4.687-1.287-6.483.23-2.583.786-2.75.9-5.187a26.89,26.89,0,0,0-.515-5.186c-.808-5.669-.974-5.808-.9-6.873a11.788,11.788,0,0,1,2.7-6.483,29.187,29.187,0,0,1,1.674-4.279c7.781-16.023,28.191-20.052,33.345-21.071,6.621-1.307,15-2.962,24.719.778a36.752,36.752,0,0,1,16.029,12.059A39.466,39.466,0,0,1,211.2,78.182c.983,7.245-.625,8.455-.386,23.145a112.384,112.384,0,0,0,.915,12.836c.25,1.93.508,3.521.694,4.6" transform="translate(-63.626 -22.533)" fill="#d5415e"/>
      </g>
    </g>
    <g id="Group_131" data-name="Group 131" transform="translate(125.264 129.721)">
      <g id="Group_130" data-name="Group 130" clip-path="url(#clip-path-45)">
        <g id="Group_111" data-name="Group 111" transform="translate(0 20.154)" opacity="0.08">
          <g id="Group_110" data-name="Group 110">
            <g id="Group_109" data-name="Group 109" clip-path="url(#clip-path-46)">
              <path id="Path_65" data-name="Path 65" d="M191.86,100.665H125.372V90.681a154.528,154.528,0,0,1,35.678-5.705c13.023-.509,20,.969,26.007,3.5a48.152,48.152,0,0,1,9.248,5.172l-4.444,7.016" transform="translate(-125.372 -84.876)" fill="#422025"/>
            </g>
          </g>
        </g>
        <g id="Group_114" data-name="Group 114" transform="translate(66.488 21.551)" opacity="0.15">
          <g id="Group_113" data-name="Group 113">
            <g id="Group_112" data-name="Group 112" clip-path="url(#clip-path-47)">
              <path id="Path_66" data-name="Path 66" d="M283.652,143.165l-25.323,1.156c4.885-18.712,5.351-33.094,4.723-43.167,0,0-.836-13.418.129-13.485.442-.03.387,7.3,3.991,8.817a4.754,4.754,0,0,0,3.476-.13,35.15,35.15,0,0,0-3.862,15.689c-.061,18.188,14.818,29.6,16.865,31.12" transform="translate(-258.329 -87.668)" fill="#422025"/>
            </g>
          </g>
        </g>
        <path id="Path_67" data-name="Path 67" d="M194.8,123.565c-.8,5.047-17.431,9.108-77.376,7.581l3.517-34.852a250.658,250.658,0,0,1,28.155-2.682c9.5-.369,43.57-1.689,46.091,7.65.635,2.353-1.3,3.267-1.8,9.336-.6,7.235,1.757,10.811,1.416,12.966" transform="translate(-121.398 -68.95)" fill="#efefee"/>
        <g id="Group_117" data-name="Group 117" transform="translate(3.621 -5.679)" opacity="0.05">
          <g id="Group_116" data-name="Group 116">
            <g id="Group_115" data-name="Group 115" clip-path="url(#clip-path-48)">
              <path id="Path_68" data-name="Path 68" d="M216.811,72.376c-1.356-2.9-10.85-22.4-33.087-28.4C165.645,39.1,146.01,44.991,132.612,59.15V33.217h74.543l9.656,39.159" transform="translate(-132.612 -33.217)" fill="#fff"/>
            </g>
          </g>
        </g>
        <g id="Group_120" data-name="Group 120" transform="translate(18.684 9.222)" opacity="0.05">
          <g id="Group_119" data-name="Group 119">
            <g id="Group_118" data-name="Group 118" clip-path="url(#clip-path-49)">
              <path id="Path_69" data-name="Path 69" d="M171.617,63.025c-3.925.143-8.911,1.653-8.883,3.242.026,1.477,4.381,3.119,8.24,2.593,3.682-.5,7.271-3.026,6.952-4.409-.371-1.609-5.983-1.438-6.308-1.427" transform="translate(-162.734 -63.014)" fill="#fff"/>
            </g>
          </g>
        </g>
        <g id="Group_123" data-name="Group 123" transform="translate(40.182 7.005)" opacity="0.05">
          <g id="Group_122" data-name="Group 122">
            <g id="Group_121" data-name="Group 121" clip-path="url(#clip-path-50)">
              <path id="Path_70" data-name="Path 70" d="M207.4,58.6c-1.318.28-2.332,3.25-1.159,4.409a2.821,2.821,0,0,0,3.991-.778c.633-1.5-1.488-3.916-2.832-3.631" transform="translate(-205.725 -58.581)" fill="#fff"/>
            </g>
          </g>
        </g>
        <g id="Group_126" data-name="Group 126" transform="translate(-4.466 25.64)" opacity="0.03">
          <g id="Group_125" data-name="Group 125">
            <g id="Group_124" data-name="Group 124" clip-path="url(#clip-path-51)">
              <path id="Path_71" data-name="Path 71" d="M188,132.4H117.7a57.6,57.6,0,0,1,.772-27.16,54.853,54.853,0,0,1,3.589-9.4c4.071,10.934,3.985,15.752,3.75,18.213a35.9,35.9,0,0,0-.874,5.079c-.229,2.6-.343,3.9.1,4.516,1.954,2.73,15.263-4.6,21.836-6.971,9.685-3.5,25.009-4.942,48.717,6.193L188,132.4" transform="translate(-116.441 -95.846)" fill="#422025"/>
            </g>
          </g>
        </g>
        <g id="Group_129" data-name="Group 129" transform="translate(34.777 32.385)" opacity="0.03">
          <g id="Group_128" data-name="Group 128">
            <g id="Group_127" data-name="Group 127" clip-path="url(#clip-path-52)">
              <path id="Path_72" data-name="Path 72" d="M220.921,111.725c-5.542-3.368-12.01-2.466-18.539-1.556-3.226.45-7.515,1.312-7.468,1.815.083.866,12.737-2.376,25.106,2.593,1.968.791,5.061,2.244,5.407,1.686.336-.542-1.918-2.965-4.506-4.538" transform="translate(-194.915 -109.333)" fill="#422025"/>
            </g>
          </g>
        </g>
      </g>
    </g>
    <g id="Group_133" data-name="Group 133" transform="translate(63.519 107.682)">
      <g id="Group_132" data-name="Group 132" clip-path="url(#clip-path-2)">
        <path id="Path_74" data-name="Path 74" d="M262.242,149.4a4.525,4.525,0,0,1,2.568-.8c2.678.061,4.292,2.869,4.506,3.241,2.41,4.2-.562,9.664-1.159,10.762a16.256,16.256,0,0,1-6.383,6.346,52.394,52.394,0,0,1,.468-19.553" transform="translate(-131.467 -74.539)" fill="#be8b7a"/>
      </g>
    </g>
    <g id="Group_141" data-name="Group 141" transform="translate(193.125 181.742)">
      <g id="Group_140" data-name="Group 140" clip-path="url(#clip-path-54)">
        <g id="Group_136" data-name="Group 136" transform="translate(-1.917 -0.489)" opacity="0.1">
          <g id="Group_135" data-name="Group 135">
            <g id="Group_134" data-name="Group 134" clip-path="url(#clip-path-55)">
              <path id="Path_76" data-name="Path 76" d="M263.743,173.85h-6.5V147.622h6.5a50.4,50.4,0,0,0,0,26.228" transform="translate(-257.24 -147.621)" fill="#a73e2b"/>
            </g>
          </g>
        </g>
        <g id="Group_139" data-name="Group 139" transform="translate(-1.677 3.974)" opacity="0.17">
          <g id="Group_138" data-name="Group 138">
            <g id="Group_137" data-name="Group 137" clip-path="url(#clip-path-43)">
              <path id="Path_77" data-name="Path 77" d="M266.546,158.278c-1.312-.619-2.731-1-3.731-.388a6.245,6.245,0,0,0-2.384,2.825,20.308,20.308,0,0,0-1.4,3.82c-.374,1.339-.65,2.721-.987,4.149a13.492,13.492,0,0,1-.259-4.378,12.265,12.265,0,0,1,1.2-4.315,8.244,8.244,0,0,1,1.317-1.927,4.8,4.8,0,0,1,2.046-1.349,2.755,2.755,0,0,1,.626-.135,2.255,2.255,0,0,1,.638-.022,3.718,3.718,0,0,1,1.178.313,4.913,4.913,0,0,1,1.748,1.407" transform="translate(-257.72 -156.545)" fill="#a73e2b"/>
            </g>
          </g>
        </g>
      </g>
    </g>
    <g id="Group_143" data-name="Group 143" transform="translate(63.519 107.682)">
      <g id="Group_142" data-name="Group 142" clip-path="url(#clip-path-2)">
        <path id="Path_79" data-name="Path 79" d="M292.442,184.893a10.608,10.608,0,0,1,10.236,9.725c.3,4.68-2.9,7.814-3.863,8.752-2.865,2.8-8.911,6.1-14.291,3.112a11.447,11.447,0,0,1-5.407-11.475c.98-6.679,8.07-10.328,13.325-10.114" transform="translate(-140.43 -92.679)" fill="#efefee"/>
      </g>
    </g>
    <g id="Group_148" data-name="Group 148" transform="translate(202.09 199.887)">
      <g id="Group_147" data-name="Group 147" clip-path="url(#clip-path-58)">
        <g id="Group_146" data-name="Group 146" transform="translate(-1.366 2.732)" opacity="0.03">
          <g id="Group_145" data-name="Group 145">
            <g id="Group_144" data-name="Group 144" clip-path="url(#clip-path-59)">
              <path id="Path_81" data-name="Path 81" d="M304.466,210.4h-28.2q.955-8.218,1.911-16.436c-.145,6.665,1.254,11.349,3.5,11.818.514.108,1.437.07,2.832-1.167-.647,2.4.387,4.468,1.545,4.8,1.23.35,3.381-1.038,3.863-3.761.121.5.574,2.3,1.674,2.593,1.34.355,3.435-1.584,4.77-5.178a3.183,3.183,0,0,0,1.8.38c2.973-.313,5.432-5.608,6.308-13.1Z" transform="translate(-276.27 -190.347)" fill="#422025"/>
            </g>
          </g>
        </g>
      </g>
    </g>
    <g id="Group_150" data-name="Group 150" transform="translate(63.519 107.682)">
      <g id="Group_149" data-name="Group 149" clip-path="url(#clip-path-2)">
        <path id="Path_83" data-name="Path 83" d="M187.3,190.856c1.76.248,2.113,4.9,4.764,14.911a17.925,17.925,0,0,0,2.7,6.354,19.779,19.779,0,0,0,3.992,3.89c2.5,2.194,2.65,3.5,8.883,18.024a8.516,8.516,0,0,1-1.288,9.595q-.579,6.224-1.159,12.448l-8.883-8.428a19.817,19.817,0,0,1-7.6-3.371c-.613-.452-1.626-1.257-6.051-6.483-5.066-5.983-4.768-6.145-6.309-7.261-2.863-2.074-5.172-2.443-5.407-4.149-.182-1.318.994-2.569,1.931-3.371a5.374,5.374,0,0,1-.644-2.334c-.136-4.227,5.255-8.6,13.261-11.151-.558-3.153-.857-5.815-1.03-7.78-.627-7.121.069-9.031,1.288-10.113.486-.431.968-.859,1.545-.778" transform="translate(-86.405 -95.659)" fill="#422025"/>
      </g>
    </g>
    <g id="Group_155" data-name="Group 155" transform="translate(148.049 202.869)">
      <g id="Group_154" data-name="Group 154" clip-path="url(#clip-path-61)">
        <g id="Group_153" data-name="Group 153" transform="translate(1.995 20.362)" opacity="0.31">
          <g id="Group_152" data-name="Group 152">
            <g id="Group_151" data-name="Group 151" clip-path="url(#clip-path-62)">
              <path id="Path_85" data-name="Path 85" d="M193.017,231.975a12.354,12.354,0,0,0-6.644.615,17.587,17.587,0,0,0-5.474,3.831,12.911,12.911,0,0,0-2.1,2.591,9.238,9.238,0,0,0-.727,1.491,8.254,8.254,0,0,0-.4,1.6,5.86,5.86,0,0,0-.039,1.647,1.8,1.8,0,0,0,.778,1.316,2.454,2.454,0,0,0,1.574.316,5.315,5.315,0,0,0,1.625-.45,4.8,4.8,0,0,1-1.607.591,2.654,2.654,0,0,1-1.728-.231,2.091,2.091,0,0,1-.976-1.482,6.2,6.2,0,0,1-.037-1.753,7.828,7.828,0,0,1,1.115-3.294,13.313,13.313,0,0,1,2.145-2.726,27.414,27.414,0,0,1,2.655-2.2,11.326,11.326,0,0,1,6.442-2.273,11.562,11.562,0,0,1,3.4.407" transform="translate(-176.071 -231.564)" fill="#fff"/>
              <path id="Path_86" data-name="Path 86" d="M176.476,255.332a.65.65,0,0,1-.277.454.842.842,0,0,1-.54.157.749.749,0,0,1-.734-.707,2.662,2.662,0,0,0,.767.171,2.632,2.632,0,0,0,.784-.075" transform="translate(-174.924 -243.398)" fill="#fff"/>
              <path id="Path_87" data-name="Path 87" d="M196.767,260.755a3.63,3.63,0,0,0,1.519.968,1.66,1.66,0,0,0,1.549-.233,2.742,2.742,0,0,0,.856-1.441,3.6,3.6,0,0,0-.074-1.8,2.7,2.7,0,0,1,.486,1.87,2.741,2.741,0,0,1-.937,1.791,1.96,1.96,0,0,1-2.025.2,2.721,2.721,0,0,1-1.375-1.36" transform="translate(-185.844 -244.905)" fill="#fff"/>
              <path id="Path_88" data-name="Path 88" d="M200.612,245.648a11.5,11.5,0,0,0-3.571-.779,10.307,10.307,0,0,0-3.586.46c-2.33.732-4.16,2.43-5.95,4.083a9.033,9.033,0,0,0-1.2,1.324,2.24,2.24,0,0,0-.5,1.538,2.188,2.188,0,0,0,.809,1.383,2.708,2.708,0,0,0,1.517.678,5.677,5.677,0,0,0,3.346-.916,13.7,13.7,0,0,0,2.816-2.263l.136-.139.134.126a2.894,2.894,0,0,0,2.775.639l.267-.079-.088.262a4.236,4.236,0,0,0,1.5,4.818,4.232,4.232,0,0,1-1.708-2.131,4.381,4.381,0,0,1-.07-2.776l.179.183a3.292,3.292,0,0,1-1.633.1,3.223,3.223,0,0,1-1.481-.725l.269-.013a12.676,12.676,0,0,1-2.86,2.4,6.139,6.139,0,0,1-3.641,1.015,3.236,3.236,0,0,1-1.8-.782,2.624,2.624,0,0,1-.995-1.727,2.755,2.755,0,0,1,.608-1.889,9.531,9.531,0,0,1,1.285-1.388,34.669,34.669,0,0,1,2.839-2.393,10.963,10.963,0,0,1,3.346-1.66,10.332,10.332,0,0,1,7.257.648" transform="translate(-180.093 -238.09)" fill="#fff"/>
            </g>
          </g>
        </g>
      </g>
    </g>
    <g id="Group_160" data-name="Group 160" transform="translate(62.569 107.432)">
      <g id="Group_159" data-name="Group 159" clip-path="url(#clip-path)">
        <g id="Group_158" data-name="Group 158" transform="translate(9.967 8.895)" opacity="0.17">
          <g id="Group_157" data-name="Group 157">
            <g id="Group_156" data-name="Group 156" clip-path="url(#clip-path-64)">
              <path id="Path_94" data-name="Path 94" d="M24.339,221.506c-5.871,0-5.881,9.124,0,9.124s5.881-9.124,0-9.124" transform="translate(-19.932 -119.632)" fill="#fff"/>
              <path id="Path_95" data-name="Path 95" d="M96.387,204.075c-5.871,0-5.881,9.124,0,9.124s5.881-9.124,0-9.124" transform="translate(-55.951 -110.917)" fill="#fff"/>
              <path id="Path_99" data-name="Path 99" d="M47.329,293.2c-3.108,0-3.113,4.831,0,4.831s3.113-4.831,0-4.831" transform="translate(-32.462 -155.473)" fill="#fff"/>
              <path id="Path_100" data-name="Path 100" d="M355.279,207.206c-3.108,0-3.113,4.831,0,4.831s3.113-4.831,0-4.831" transform="translate(-186.415 -112.483)" fill="#fff"/>
              <path id="Path_101" data-name="Path 101" d="M387.818,153.75c-3.108,0-3.114,4.831,0,4.831s3.113-4.831,0-4.831" transform="translate(-202.682 -85.759)" fill="#fff"/>
              <path id="Path_102" data-name="Path 102" d="M296.013,51.487c-3.108,0-3.113,4.831,0,4.831s3.113-4.831,0-4.831" transform="translate(-156.786 -34.635)" fill="#fff"/>
              <path id="Path_103" data-name="Path 103" d="M228.613,17.787c-3.108,0-3.113,4.831,0,4.831s3.113-4.831,0-4.831" transform="translate(-123.091 -17.787)" fill="#fff"/>
              <path id="Path_104" data-name="Path 104" d="M371.164,270.406a1.611,1.611,0,0,0,0,3.22,1.611,1.611,0,0,0,0-3.22" transform="translate(-194.744 -144.078)" fill="#fff"/>
              <path id="Path_105" data-name="Path 105" d="M400.216,199.519a1.611,1.611,0,0,0,0,3.22,1.611,1.611,0,0,0,0-3.22" transform="translate(-209.268 -108.64)" fill="#fff"/>
              <path id="Path_106" data-name="Path 106" d="M86.455,105.391a1.611,1.611,0,0,0,0,3.22,1.611,1.611,0,0,0,0-3.22" transform="translate(-52.411 -61.583)" fill="#fff"/>
              <path id="Path_107" data-name="Path 107" d="M79.483,236.706a1.611,1.611,0,0,0,0,3.22,1.611,1.611,0,0,0,0-3.22" transform="translate(-48.925 -127.23)" fill="#fff"/>
            </g>
          </g>
        </g>
        <path id="Path_109" data-name="Path 109" d="M402.308,262.245c2.651-2.513,4.572-3.142,5.175-5.344.08-.293.406-1.481-.133-1.949-.864-.752-3.117.566-3.3.219-.127-.24.862-1.075,1.749-1.674,1.576-1.064,2.239-.982,2.681-1.776a2.07,2.07,0,0,0-.059-2.293c-.777-.679-2.64.346-3.233-.477-.006-.008-.011-.014-.017-.025-.3-.492.513-1.366,1.428-2.752,1.14-1.726,2.167-3.28,1.66-4.252a1.989,1.989,0,0,0-1.7-.833c-1.169-.012-2.091.977-2.973,1.923-1,1.07-1.31,1.826-1.745,1.739-.539-.109-.4-1.339-1.146-1.634a1.8,1.8,0,0,0-1.713.642c-.421.447-.5.921-.734,2.583-.258,1.841-.39,2.9-.585,2.9-.224.008-.158-1.383-.985-1.786a1.273,1.273,0,0,0-1.2.092c-.728.47-.665,1.668-.631,2.3a15.583,15.583,0,0,0,.758,3.128c.163.552.388,1.286.243,1.356-.167.081-.569-.855-1.168-.849-.491,0-.85.637-.9.727-.62,1.128.349,2.85,1.2,4.24a61.8,61.8,0,0,0,4.735,6.695,23.676,23.676,0,0,1,2.594-2.907" transform="translate(-196.764 -120.527)" fill="#64b895"/>
      </g>
    </g>
    <g id="Group_168" data-name="Group 168" transform="translate(259.391 227.994)">
      <g id="Group_167" data-name="Group 167" clip-path="url(#clip-path-65)">
        <g id="Group_163" data-name="Group 163" transform="translate(5.846 5.473)" opacity="0.3">
          <g id="Group_162" data-name="Group 162">
            <g id="Group_161" data-name="Group 161" clip-path="url(#clip-path-66)">
              <path id="Path_110" data-name="Path 110" d="M405.508,274.324a35.242,35.242,0,0,1-.193-5.73l.033-.718c.012-.24.037-.478.054-.717.034-.478.088-.954.134-1.431.115-.952.253-1.9.423-2.845.083-.473.185-.941.282-1.411s.216-.934.332-1.4c.251-.925.5-1.851.811-2.758a34.1,34.1,0,0,1,2.232-5.281c-.549,1.831-1.083,3.649-1.552,5.481s-.873,3.676-1.212,5.532-.612,3.724-.833,5.6-.363,3.769-.511,5.675" transform="translate(-405.277 -252.034)" fill="#422025"/>
            </g>
          </g>
        </g>
        <g id="Group_166" data-name="Group 166" transform="translate(-7.954 -3.169)" opacity="0.07">
          <g id="Group_165" data-name="Group 165">
            <g id="Group_164" data-name="Group 164" clip-path="url(#clip-path-67)">
              <path id="Path_111" data-name="Path 111" d="M377.681,252.4l14.082,9.581a67.451,67.451,0,0,1,7.632-27.232l-1.883.547-19.83,17.1" transform="translate(-377.681 -234.753)" fill="#422025"/>
            </g>
          </g>
        </g>
      </g>
    </g>
    <g id="Group_170" data-name="Group 170" transform="translate(62.569 107.432)">
      <g id="Group_169" data-name="Group 169" clip-path="url(#clip-path)">
        <path id="Path_113" data-name="Path 113" d="M389.872,291.763c-3.083,1.96-5.088,2.211-6.1,4.256-.135.272-.681,1.376-.243,1.939.7.9,3.168.04,3.282.416.079.26-1.051.891-2.036,1.31-1.751.743-2.385.535-2.971,1.231a2.069,2.069,0,0,0-.38,2.261c.633.816,2.657.165,3.082,1.086l.012.027c.2.542-.765,1.243-1.928,2.428-1.449,1.476-2.754,2.805-2.442,3.856a1.989,1.989,0,0,0,1.511,1.144c1.146.236,2.24-.56,3.286-1.32,1.184-.859,1.635-1.542,2.045-1.373.508.21.132,1.391.813,1.823a1.8,1.8,0,0,0,1.8-.3c.5-.358.667-.809,1.214-2.4.606-1.758.937-2.767,1.129-2.736.222.035-.109,1.388.625,1.942a1.274,1.274,0,0,0,1.191.138c.8-.322.971-1.511,1.06-2.14a15.642,15.642,0,0,0-.146-3.216c-.055-.573-.135-1.337.02-1.378.18-.048.4.948.985,1.057.482.089.956-.463,1.022-.542.824-.989.2-2.864-.364-4.39a61.89,61.89,0,0,0-3.368-7.477,23.608,23.608,0,0,1-3.1,2.357" transform="translate(-190.023 -144.682)" fill="#4ca07d"/>
      </g>
    </g>
    <g id="Group_178" data-name="Group 178" transform="translate(252.647 252.155)">
      <g id="Group_177" data-name="Group 177" clip-path="url(#clip-path-69)">
        <g id="Group_173" data-name="Group 173" transform="translate(5.338 -3.622)" opacity="0.3">
          <g id="Group_172" data-name="Group 172">
            <g id="Group_171" data-name="Group 171" clip-path="url(#clip-path-70)">
              <path id="Path_114" data-name="Path 114" d="M399.067,282.163a35.253,35.253,0,0,1-.906,5.661l-.171.7c-.057.233-.127.462-.19.693-.125.463-.269.92-.405,1.379-.295.912-.612,1.818-.958,2.712-.172.448-.362.888-.547,1.331s-.391.876-.593,1.31c-.424.861-.846,1.721-1.323,2.552a34.067,34.067,0,0,1-3.2,4.757c.889-1.692,1.761-3.375,2.572-5.083s1.559-3.441,2.246-5.2,1.312-3.538,1.888-5.34,1.076-3.63,1.586-5.472" transform="translate(-390.775 -282.163)" fill="#422025"/>
            </g>
          </g>
        </g>
        <g id="Group_176" data-name="Group 176" transform="translate(0.177 0)" opacity="0.07">
          <g id="Group_175" data-name="Group 175">
            <g id="Group_174" data-name="Group 174" clip-path="url(#clip-path-71)">
              <path id="Path_115" data-name="Path 115" d="M388.737,301.5a67.538,67.538,0,0,1-8.283,13.178l1.953-.176,22.734-13L393.15,289.4a67.532,67.532,0,0,1-4.414,12.092" transform="translate(-380.454 -289.405)" fill="#422025"/>
            </g>
          </g>
        </g>
      </g>
    </g>
    <g id="Group_180" data-name="Group 180" transform="translate(62.569 107.432)">
      <g id="Group_179" data-name="Group 179" clip-path="url(#clip-path)">
        <path id="Path_117" data-name="Path 117" d="M407.818,286.785c2.393,2.76,2.937,4.706,5.11,5.406.289.093,1.462.471,1.953-.046.789-.83-.428-3.139-.073-3.308.246-.117,1.036.909,1.6,1.821.994,1.622.882,2.28,1.656,2.757a2.069,2.069,0,0,0,2.293.042c.713-.746-.229-2.652.62-3.208l.025-.016c.505-.283,1.342.573,2.686,1.549,1.673,1.215,3.18,2.31,4.174,1.846a1.99,1.99,0,0,0,.908-1.664c.064-1.168-.884-2.133-1.79-3.056-1.025-1.044-1.766-1.389-1.66-1.82.132-.534,1.355-.336,1.682-1.072a1.8,1.8,0,0,0-.565-1.74c-.428-.44-.9-.54-2.549-.847-1.828-.34-2.875-.518-2.873-.713,0-.225,1.388-.1,1.828-.9a1.273,1.273,0,0,0-.039-1.2c-.437-.748-1.637-.738-2.274-.732a15.625,15.625,0,0,0-3.159.619c-.559.139-1.3.331-1.366.183-.073-.171.88-.53.9-1.13.017-.49-.6-.877-.687-.931-1.1-.669-2.862.223-4.289,1.008a61.885,61.885,0,0,0-6.9,4.435,23.656,23.656,0,0,1,2.789,2.72" transform="translate(-202.485 -139.174)" fill="#68c49f"/>
      </g>
    </g>
    <g id="Group_188" data-name="Group 188" transform="translate(265.114 246.646)">
      <g id="Group_187" data-name="Group 187" clip-path="url(#clip-path-73)">
        <g id="Group_183" data-name="Group 183" transform="translate(-3.694 5.374)" opacity="0.3">
          <g id="Group_182" data-name="Group 182">
            <g id="Group_181" data-name="Group 181" clip-path="url(#clip-path-74)">
              <path id="Path_118" data-name="Path 118" d="M411.832,290.916c-.46-.136-.921-.269-1.384-.393s-.928-.24-1.4-.344c-.935-.211-1.878-.391-2.823-.547-.475-.067-.948-.142-1.424-.2-.238-.028-.475-.063-.714-.086l-.716-.065a35.229,35.229,0,0,0-5.733-.06c1.9.232,3.779.463,5.647.76s3.724.646,5.56,1.08,3.662.908,5.473,1.455,3.6,1.165,5.407,1.794a34.1,34.1,0,0,0-5.177-2.464c-.893-.349-1.806-.64-2.719-.932" transform="translate(-397.642 -289.134)" fill="#422025"/>
            </g>
          </g>
        </g>
        <g id="Group_186" data-name="Group 186" transform="translate(-0.001 -7.967)" opacity="0.07">
          <g id="Group_185" data-name="Group 185">
            <g id="Group_184" data-name="Group 184" clip-path="url(#clip-path-75)">
              <path id="Path_119" data-name="Path 119" d="M415.224,262.456,405.029,276.1a67.466,67.466,0,0,1,26.867,8.828q-.231-.953-.463-1.905l-16.21-20.568" transform="translate(-405.029 -262.456)" fill="#422025"/>
            </g>
          </g>
        </g>
      </g>
    </g>
    <g id="Group_190" data-name="Group 190" transform="translate(62.569 107.432)">
      <g id="Group_189" data-name="Group 189" clip-path="url(#clip-path)">
        <path id="Path_121" data-name="Path 121" d="M408.278,298.786a3.956,3.956,0,0,0,1.864-2.564c.468-1.709.211-4.656-2.043-5.615a4.3,4.3,0,0,0-5.2,1.963,4.625,4.625,0,0,0,1.8,6.067,4.006,4.006,0,0,0,3.578.148" transform="translate(-201.161 -145.142)" fill="#f7a22f"/>
      </g>
    </g>
    <g id="Group_195" data-name="Group 195" transform="translate(263.789 252.616)">
      <g id="Group_194" data-name="Group 194" clip-path="url(#clip-path-77)">
        <g id="Group_193" data-name="Group 193" transform="translate(-6.782 -5.412)" opacity="0.07">
          <g id="Group_192" data-name="Group 192">
            <g id="Group_191" data-name="Group 191" clip-path="url(#clip-path-78)">
              <path id="Path_122" data-name="Path 122" d="M388.818,285.973l6.236,8.115a8.473,8.473,0,0,1,3.668-6.964,8.336,8.336,0,0,1,7.264-.64l-3.243-6.981Z" transform="translate(-388.818 -279.504)" fill="#422025"/>
            </g>
          </g>
        </g>
      </g>
    </g>
    <g id="Group_197" data-name="Group 197" transform="translate(62.569 107.432)">
      <g id="Group_196" data-name="Group 196" clip-path="url(#clip-path)">
        <path id="Path_124" data-name="Path 124" d="M391.648,287.671a3.212,3.212,0,0,0,1.835,1.8c1.315.579,3.711.725,4.75-.969a3.489,3.489,0,0,0-.954-4.407,3.753,3.753,0,0,0-5.084.72,3.251,3.251,0,0,0-.547,2.853" transform="translate(-195.723 -141.681)" fill="#f0526a"/>
      </g>
    </g>
    <g id="Group_202" data-name="Group 202" transform="translate(258.349 249.154)">
      <g id="Group_201" data-name="Group 201" clip-path="url(#clip-path-80)">
        <g id="Group_200" data-name="Group 200" transform="translate(0.342 -5.023)" opacity="0.07">
          <g id="Group_199" data-name="Group 199">
            <g id="Group_198" data-name="Group 198" clip-path="url(#clip-path-81)">
              <path id="Path_125" data-name="Path 125" d="M399.446,273.359l3.528,11.946-5.99,1.769a6.765,6.765,0,0,0,.355-5.905,6.876,6.876,0,0,0-5.15-3.776l7.257-4.035" transform="translate(-392.188 -273.359)" fill="#422025"/>
            </g>
          </g>
        </g>
      </g>
    </g>
    <g id="Group_204" data-name="Group 204" transform="translate(62.569 107.432)">
      <g id="Group_203" data-name="Group 203" clip-path="url(#clip-path)">
        <path id="Path_127" data-name="Path 127" d="M409.91,277.188a3.21,3.21,0,0,0-2.332-1.085c-1.433-.106-3.74.558-4.152,2.5a3.489,3.489,0,0,0,2.374,3.834,3.753,3.753,0,0,0,4.55-2.379,3.249,3.249,0,0,0-.44-2.872" transform="translate(-201.653 -138.026)" fill="#f7a22f"/>
      </g>
    </g>
    <g id="Group_209" data-name="Group 209" transform="translate(264.281 245.498)">
      <g id="Group_208" data-name="Group 208" clip-path="url(#clip-path-83)">
        <g id="Group_207" data-name="Group 207" transform="translate(-4.693 -1.404)" opacity="0.07">
          <g id="Group_206" data-name="Group 206">
            <g id="Group_205" data-name="Group 205" clip-path="url(#clip-path-84)">
              <path id="Path_128" data-name="Path 128" d="M401.3,287.035l-7.322-10.077,5.053-3.671a6.764,6.764,0,0,0,1.641,5.684,6.873,6.873,0,0,0,6.116,1.834l-5.489,6.23" transform="translate(-393.98 -273.286)" fill="#422025"/>
            </g>
          </g>
        </g>
      </g>
    </g>
    <g id="Group_211" data-name="Group 211" transform="translate(62.569 107.432)">
      <g id="Group_210" data-name="Group 210" clip-path="url(#clip-path)">
        <path id="Path_130" data-name="Path 130" d="M30.823,75.452c-5.512,1.787-8.69,1.376-11.057,4.116-.315.365-1.593,1.843-1.142,2.881.724,1.666,4.849,1.319,4.876,1.941.019.43-1.968.951-3.647,1.2-2.983.447-3.875-.124-5.051.712-1.049.745-1.913,2.318-1.48,3.322.648,1.5,4.015,1.308,4.3,2.89,0,.015.006.028.007.047.1.913-1.667,1.605-3.924,2.964-2.81,1.692-5.342,3.215-5.28,4.953a3.156,3.156,0,0,0,1.868,2.355c1.665.815,3.662.03,5.57-.722,2.159-.85,3.122-1.72,3.685-1.3.7.523-.349,2.186.525,3.12.655.7,2.016.592,2.89.252.907-.353,1.345-.978,2.814-3.2,1.627-2.459,2.536-3.878,2.819-3.754.326.142-.719,2.086.19,3.228a2.02,2.02,0,0,0,1.773.686c1.363-.176,2.091-1.935,2.477-2.868a24.847,24.847,0,0,0,1.052-5c.143-.9.323-2.106.578-2.108.295,0,.23,1.612,1.092,2.014.706.329,1.652-.332,1.784-.427,1.657-1.192,1.447-4.318,1.183-6.886a98.024,98.024,0,0,0-2.206-12.817,37.533,37.533,0,0,1-5.7,2.39" transform="translate(-4.213 -36.526)" fill="#4ca07d"/>
      </g>
    </g>
    <g id="Group_219" data-name="Group 219" transform="translate(66.783 143.969)">
      <g id="Group_218" data-name="Group 218" clip-path="url(#clip-path-86)">
        <g id="Group_214" data-name="Group 214" transform="translate(9.592 -5.262)" opacity="0.3">
          <g id="Group_213" data-name="Group 213">
            <g id="Group_212" data-name="Group 212" clip-path="url(#clip-path-87)">
              <path id="Path_131" data-name="Path 131" d="M48.711,62.54a55.962,55.962,0,0,1-3.637,8.334l-.539,1c-.181.334-.378.659-.567.989-.375.661-.778,1.306-1.169,1.958-.815,1.284-1.66,2.549-2.548,3.784-.441.62-.907,1.221-1.367,1.827s-.947,1.19-1.43,1.777c-.991,1.153-1.982,2.307-3.044,3.394a54.018,54.018,0,0,1-6.8,6.036c2.036-2.246,4.043-4.484,5.966-6.786s3.76-4.666,5.512-7.092c1.77-2.413,3.418-4.912,5.018-7.451s3.093-5.148,4.606-7.775" transform="translate(-27.609 -62.54)" fill="#422025"/>
            </g>
          </g>
        </g>
        <g id="Group_217" data-name="Group 217" transform="translate(-1.427 -0.001)" opacity="0.07">
          <g id="Group_216" data-name="Group 216">
            <g id="Group_215" data-name="Group 215" clip-path="url(#clip-path-88)">
              <path id="Path_132" data-name="Path 132" d="M48.71,96.395,8.642,107.337l-3.068-.5A107.168,107.168,0,0,0,23.521,89.881,107.078,107.078,0,0,0,35.1,73.062L48.71,96.395" transform="translate(-5.574 -73.062)"/>
            </g>
          </g>
        </g>
      </g>
    </g>
    <g id="Group_221" data-name="Group 221" transform="translate(62.569 107.432)">
      <g id="Group_220" data-name="Group 220" clip-path="url(#clip-path)">
        <path id="Path_134" data-name="Path 134" d="M70.7,43.508c5.752-.7,8.793.311,11.64-1.926.379-.3,1.915-1.5,1.671-2.609-.392-1.774-4.508-2.221-4.415-2.837.065-.426,2.113-.557,3.81-.483,3.014.131,3.78.862,5.094.267,1.172-.532,2.321-1.91,2.088-2.979-.349-1.6-3.691-2.051-3.67-3.66,0-.015,0-.029,0-.047.077-.915,1.943-1.257,4.418-2.159,3.082-1.124,5.858-2.135,6.129-3.853a3.156,3.156,0,0,0-1.383-2.669c-1.479-1.118-3.589-.729-5.606-.356-2.281.422-3.394,1.091-3.865.569-.584-.647.76-2.079.082-3.162-.509-.813-1.866-.967-2.789-.8-.958.174-1.507.7-3.374,2.6-2.067,2.1-3.23,3.321-3.485,3.146-.293-.2,1.1-1.911.431-3.205a2.02,2.02,0,0,0-1.61-1.012c-1.372-.089-2.422,1.5-2.979,2.341a24.836,24.836,0,0,0-1.988,4.7c-.313.858-.72,2.006-.97,1.959-.29-.054.082-1.627-.688-2.185-.63-.457-1.685.01-1.833.078-1.854.853-2.245,3.962-2.477,6.533a98.2,98.2,0,0,0-.285,13,37.525,37.525,0,0,1,6.05-1.257" transform="translate(-32.271 -8.37)" fill="#68c49f"/>
      </g>
    </g>
    <g id="Group_229" data-name="Group 229" transform="translate(94.849 115.805)">
      <g id="Group_228" data-name="Group 228" clip-path="url(#clip-path-90)">
        <g id="Group_224" data-name="Group 224" transform="translate(-3.463 8.156)" opacity="0.3">
          <g id="Group_223" data-name="Group 223">
            <g id="Group_222" data-name="Group 222" clip-path="url(#clip-path-91)">
              <path id="Path_135" data-name="Path 135" d="M57.626,57.587A55.979,55.979,0,0,1,62.789,50.1l.721-.883c.241-.294.5-.575.745-.863.5-.577,1.013-1.133,1.522-1.7,1.045-1.1,2.117-2.184,3.224-3.227.552-.524,1.124-1.025,1.691-1.532s1.157-.987,1.743-1.471c1.194-.943,2.386-1.885,3.637-2.75A53.968,53.968,0,0,1,83.9,33.054c-2.428,1.815-4.825,3.628-7.153,5.52s-4.583,3.861-6.766,5.907c-2.2,2.03-4.295,4.169-6.349,6.354s-4.02,4.462-6.007,6.751" transform="translate(-57.626 -33.054)" fill="#422025"/>
            </g>
          </g>
        </g>
        <g id="Group_227" data-name="Group 227" transform="translate(-8.809 -0.565)" opacity="0.07">
          <g id="Group_226" data-name="Group 226">
            <g id="Group_225" data-name="Group 225" clip-path="url(#clip-path-92)">
              <path id="Path_136" data-name="Path 136" d="M46.934,18.7l41.421-3.08L91.27,16.7A107.012,107.012,0,0,0,55.838,44.2L46.934,18.7" transform="translate(-46.934 -15.615)" fill="#422025"/>
            </g>
          </g>
        </g>
      </g>
    </g>
    <g id="Group_231" data-name="Group 231" transform="translate(62.569 107.432)">
      <g id="Group_230" data-name="Group 230" clip-path="url(#clip-path)">
        <path id="Path_138" data-name="Path 138" d="M33.3,37.785c-1.542-5.585-.991-8.742-3.623-11.228-.35-.331-1.771-1.672-2.828-1.268-1.7.649-1.532,4.786-2.155,4.785-.431,0-.863-2.008-1.04-3.7-.315-3,.3-3.866-.488-5.078-.7-1.081-2.231-2.014-3.254-1.625-1.531.581-1.484,3.953-3.078,4.17l-.047.005c-.916.059-1.53-1.737-2.788-4.052-1.566-2.882-2.976-5.479-4.715-5.493a3.154,3.154,0,0,0-2.435,1.761c-.888,1.628-.192,3.657.475,5.6.754,2.195,1.58,3.2,1.133,3.739-.554.674-2.169-.445-3.14.386-.729.624-.681,1.988-.38,2.876.313.922.917,1.387,3.07,2.953,2.385,1.734,3.762,2.7,3.626,2.982-.157.32-2.053-.81-3.234.047a2.02,2.02,0,0,0-.763,1.741c.115,1.37,1.84,2.174,2.755,2.6a24.821,24.821,0,0,0,4.944,1.272c.895.183,2.09.416,2.081.671-.011.295-1.621.159-2.06,1-.359.69.259,1.665.348,1.8,1.118,1.708,4.25,1.636,6.827,1.486a98.094,98.094,0,0,0,12.9-1.638,37.567,37.567,0,0,1-2.135-5.8" transform="translate(-2.367 -7.151)" fill="#64b895"/>
      </g>
    </g>
    <g id="Group_239" data-name="Group 239" transform="translate(64.937 114.585)">
      <g id="Group_238" data-name="Group 238" clip-path="url(#clip-path-94)">
        <g id="Group_234" data-name="Group 234" transform="translate(7.704 9.74)" opacity="0.3">
          <g id="Group_233" data-name="Group 233">
            <g id="Group_232" data-name="Group 232" clip-path="url(#clip-path-95)">
              <path id="Path_139" data-name="Path 139" d="M48.281,56.15a55.877,55.877,0,0,1-8.165-4l-.979-.583c-.326-.2-.642-.407-.963-.61-.644-.4-1.27-.835-1.9-1.254-1.246-.871-2.472-1.771-3.668-2.712-.6-.468-1.179-.96-1.764-1.446s-1.147-1-1.712-1.507c-1.108-1.041-2.217-2.082-3.256-3.191a54.037,54.037,0,0,1-5.729-7.062c2.154,2.132,4.3,4.236,6.515,6.259S31.15,44,33.5,45.862c2.333,1.875,4.757,3.633,7.222,5.342s5.006,3.318,7.564,4.946" transform="translate(-20.139 -33.782)" fill="#422025"/>
            </g>
          </g>
        </g>
        <g id="Group_237" data-name="Group 237" transform="translate(-2.368 -1.707)" opacity="0.07">
          <g id="Group_236" data-name="Group 236">
            <g id="Group_235" data-name="Group 235" clip-path="url(#clip-path-96)">
              <path id="Path_140" data-name="Path 140" d="M9.159,54.447Q4.58,34.191,0,13.934l.64-3.043A107.168,107.168,0,0,0,16.781,29.57a107.1,107.1,0,0,0,16.29,12.307L9.159,54.447" transform="translate(0 -10.891)" fill="#422025"/>
            </g>
          </g>
        </g>
      </g>
    </g>
    <g id="Group_241" data-name="Group 241" transform="translate(62.569 107.432)">
      <g id="Group_240" data-name="Group 240" clip-path="url(#clip-path)">
        <path id="Path_142" data-name="Path 142" d="M58.341,41.551a6.275,6.275,0,0,0-4.42,2.4c-1.836,2.126-3.481,6.52-.91,9.433,2.152,2.437,6.151,2.586,8.784.74,3.3-2.315,3.546-7.129,1.566-9.915a6.353,6.353,0,0,0-5.02-2.656" transform="translate(-25.838 -20.771)" fill="#f7842f"/>
      </g>
    </g>
    <g id="Group_246" data-name="Group 246" transform="translate(88.415 128.208)">
      <g id="Group_245" data-name="Group 245" clip-path="url(#clip-path-98)">
        <g id="Group_244" data-name="Group 244" transform="translate(-4.597 3.383)" opacity="0.07">
          <g id="Group_243" data-name="Group 243">
            <g id="Group_242" data-name="Group 242" clip-path="url(#clip-path-99)">
              <path id="Path_143" data-name="Path 143" d="M66.84,64.188l-24.35-.248.124-12.208a13.226,13.226,0,0,0,10.835,4.045c6.922-.844,9.861-7.139,10.006-7.464L66.84,64.188" transform="translate(-42.49 -48.313)" fill="#422025"/>
            </g>
          </g>
        </g>
      </g>
    </g>
    <g id="Group_248" data-name="Group 248" transform="translate(62.569 107.432)">
      <g id="Group_247" data-name="Group 247" clip-path="url(#clip-path)">
        <path id="Path_145" data-name="Path 145" d="M75.5,72.375a5.093,5.093,0,0,0-1.4-3.834c-1.487-1.728-4.817-3.573-7.461-1.857A5.532,5.532,0,0,0,65,73.644a5.952,5.952,0,0,0,7.77,2.441A5.154,5.154,0,0,0,75.5,72.375" transform="translate(-32.203 -32.995)" fill="#f7842f"/>
      </g>
    </g>
    <g id="Group_253" data-name="Group 253" transform="translate(94.782 140.437)">
      <g id="Group_252" data-name="Group 252" clip-path="url(#clip-path-101)">
        <g id="Group_251" data-name="Group 251" transform="translate(-5.932 -4.927)" opacity="0.07">
          <g id="Group_250" data-name="Group 250">
            <g id="Group_249" data-name="Group 249" clip-path="url(#clip-path-102)">
              <path id="Path_146" data-name="Path 146" d="M52.553,75.658l3.108-19.511,9.782,1.558A10.728,10.728,0,0,0,60.9,65.916c-.15,5.656,4.551,8.766,4.794,8.922l-13.144.82" transform="translate(-52.553 -56.147)" fill="#422025"/>
            </g>
          </g>
        </g>
      </g>
    </g>
    <g id="Group_255" data-name="Group 255" transform="translate(62.569 107.432)">
      <g id="Group_254" data-name="Group 254" clip-path="url(#clip-path)">
        <path id="Path_148" data-name="Path 148" d="M41.844,75.274a5.092,5.092,0,0,0,2.6,3.145c1.979,1.131,5.734,1.755,7.653-.746a5.533,5.533,0,0,0-.78-7.109,5.953,5.953,0,0,0-8.139.3,5.154,5.154,0,0,0-1.332,4.411" transform="translate(-20.865 -34.541)" fill="#f7842f"/>
      </g>
    </g>
    <g id="Group_260" data-name="Group 260" transform="translate(83.44 141.983)">
      <g id="Group_259" data-name="Group 259" clip-path="url(#clip-path-104)">
        <g id="Group_258" data-name="Group 258" transform="translate(1.286 -7.248)" opacity="0.07">
          <g id="Group_257" data-name="Group 257">
            <g id="Group_256" data-name="Group 256" clip-path="url(#clip-path-105)">
              <path id="Path_149" data-name="Path 149" d="M56.42,54.6l3.6,19.426-9.74,1.8a10.729,10.729,0,0,0,1.532-9.257c-1.752-5.38-7.221-6.738-7.5-6.8L56.42,54.6" transform="translate(-44.308 -54.599)" fill="#422025"/>
            </g>
          </g>
        </g>
      </g>
    </g>
    <rect id="Rectangle_70" data-name="Rectangle 70" width="229.412" height="233.137" transform="translate(62.569 107.432)" fill="none"/>
  </g>
</svg>
