<svg xmlns="http://www.w3.org/2000/svg" xmlns:xlink="http://www.w3.org/1999/xlink" width="375.087" height="99.837" viewBox="0 0 375.087 99.837">
  <defs>
    <clipPath id="clip-path">
      <rect id="Rectangle_74" data-name="Rectangle 74" width="20.324" height="29.385" fill="#13406a"/>
    </clipPath>
    <clipPath id="clip-path-2">
      <rect id="Rectangle_75" data-name="Rectangle 75" width="12.172" height="17.599" fill="#13406a"/>
    </clipPath>
    <clipPath id="clip-path-3">
      <rect id="Rectangle_76" data-name="Rectangle 76" width="19.936" height="28.824" fill="#13406a"/>
    </clipPath>
    <clipPath id="clip-path-4">
      <rect id="Rectangle_101" data-name="Rectangle 101" width="16.873" height="24.395" fill="#13406a"/>
    </clipPath>
  </defs>
  <g id="Group_374" data-name="Group 374" transform="translate(0 -78.163)">
    <g id="Group_372" data-name="Group 372">
      <g id="Group_365" data-name="Group 365" transform="translate(-323.685 2551.396)">
        <g id="Group_269" data-name="Group 269" transform="translate(348.16 -2465.521)" opacity="0.56">
          <g id="Group_268" data-name="Group 268">
            <g id="Group_267" data-name="Group 267" clip-path="url(#clip-path)">
              <path id="Path_152" data-name="Path 152" d="M131.036,331.144a10.764,10.764,0,0,1-2.389,2.981,1.354,1.354,0,0,0,.782.169A10.473,10.473,0,0,1,126.068,337a1.673,1.673,0,0,0,.972.19,1.872,1.872,0,0,1-.888.571,3.725,3.725,0,0,0,2.114-.19,6.967,6.967,0,0,1-2.537,2.484,2.584,2.584,0,0,0,.993,0,4.962,4.962,0,0,1-2.135,2.019,2.981,2.981,0,0,0,1.416-.19s-.4.888-2.558,1.712a8.089,8.089,0,0,0,3.34-.508s-.528,2.3-3.742,3.4a3.72,3.72,0,0,0,1.247.148,7.979,7.979,0,0,1-2.473,1.374,2.755,2.755,0,0,0,1.247.19,1.316,1.316,0,0,1-.719.677,6.645,6.645,0,0,0,3.361-.867,3.777,3.777,0,0,1-1.184.874s.892.513,2.541-.46a8.382,8.382,0,0,1-2.7,2.841,14.051,14.051,0,0,1-2.685,1.374,4.849,4.849,0,0,0,2.017.211,4.7,4.7,0,0,1-1.882,1.5,2.285,2.285,0,0,0,2.072,0,2.944,2.944,0,0,1-1.1.761,5.676,5.676,0,0,0,3.234-1.184,4.1,4.1,0,0,1-.571.93,4.273,4.273,0,0,0,2.495-1.416,7.68,7.68,0,0,1-4.376,3.7,6.437,6.437,0,0,0,1.882-.106,9.11,9.11,0,0,1-3.636,2.537,16.475,16.475,0,0,0,5.433-1.226,3.557,3.557,0,0,1-1.48,1.734,8.109,8.109,0,0,0,4.08-1.459,2.437,2.437,0,0,1,.761.993,1.734,1.734,0,0,0,.423-1.121,2.822,2.822,0,0,0,.951,1.247,4.288,4.288,0,0,1,.232-1.141,3.361,3.361,0,0,0,1.269,1.924,4.752,4.752,0,0,1,.275-2.072,3.089,3.089,0,0,0,1.713,1.311,4.093,4.093,0,0,1,0-1.459,7.384,7.384,0,0,0,6.447.549,6.142,6.142,0,0,1-3.044-1.437,2.648,2.648,0,0,0,1.712-.127,6.38,6.38,0,0,1-3.826-2.495,2.573,2.573,0,0,0,1.966.592s-.486-.064-.93-1.1c0,0,.867.846,3.552.592a1.986,1.986,0,0,1-1.015-.909,2.351,2.351,0,0,0,1.67-.148,4.415,4.415,0,0,1-2.765-1.268,1.472,1.472,0,0,0,.994-.212,8.145,8.145,0,0,1-4.765-3.657,4.132,4.132,0,0,0,2.545.782,8.438,8.438,0,0,1-1.036-1.141,3.806,3.806,0,0,0,2.469.677,1.7,1.7,0,0,1-.528-.7,3.228,3.228,0,0,0,2.135.042,3.838,3.838,0,0,1-1.86-1.057,2.388,2.388,0,0,0,1.057-.169,12.365,12.365,0,0,1-4.482-3.255,6.641,6.641,0,0,0,3.213-.359,4.543,4.543,0,0,1-2.431-1.078,1.423,1.423,0,0,0,1.1-.042,2.954,2.954,0,0,1-2.135-1.522,2.048,2.048,0,0,0,1.268-.338,6.02,6.02,0,0,1-3.129-1.984,3.983,3.983,0,0,0,2.241-.383,4.031,4.031,0,0,1-1.416-.93,1.391,1.391,0,0,0,1.163-.021,5.529,5.529,0,0,1-3.044-2.9,1.33,1.33,0,0,0,.93,0,5.133,5.133,0,0,1-2.495-3.171" transform="translate(-121.683 -331.144)" fill="#13406a"/>
            </g>
          </g>
        </g>
        <g id="Group_272" data-name="Group 272" transform="translate(676.872 -2451.409)" opacity="0.56">
          <g id="Group_271" data-name="Group 271">
            <g id="Group_270" data-name="Group 270" clip-path="url(#clip-path-2)">
              <path id="Path_153" data-name="Path 153" d="M757.594,368.207a6.443,6.443,0,0,1-1.431,1.785.812.812,0,0,0,.469.1,6.271,6.271,0,0,1-2.013,1.621,1,1,0,0,0,.583.113,1.118,1.118,0,0,1-.532.342,2.231,2.231,0,0,0,1.266-.114,4.173,4.173,0,0,1-1.519,1.488,1.553,1.553,0,0,0,.595,0,2.971,2.971,0,0,1-1.279,1.209,1.788,1.788,0,0,0,.848-.114s-.241.532-1.532,1.025a4.845,4.845,0,0,0,2-.3,3.206,3.206,0,0,1-2.241,2.038,2.237,2.237,0,0,0,.747.089,4.781,4.781,0,0,1-1.481.823,1.65,1.65,0,0,0,.747.114.788.788,0,0,1-.431.405,3.981,3.981,0,0,0,2.013-.519,2.264,2.264,0,0,1-.709.524s.534.307,1.522-.275a5.025,5.025,0,0,1-1.616,1.7,8.417,8.417,0,0,1-1.608.823,2.9,2.9,0,0,0,1.208.126,2.817,2.817,0,0,1-1.127.9,1.367,1.367,0,0,0,1.241,0,1.758,1.758,0,0,1-.658.456,3.4,3.4,0,0,0,1.937-.709,2.444,2.444,0,0,1-.342.557,2.559,2.559,0,0,0,1.494-.848,4.6,4.6,0,0,1-2.621,2.216,3.856,3.856,0,0,0,1.127-.064,5.462,5.462,0,0,1-2.177,1.52,9.867,9.867,0,0,0,3.254-.734,2.132,2.132,0,0,1-.886,1.038,4.857,4.857,0,0,0,2.444-.874,1.464,1.464,0,0,1,.456.6,1.039,1.039,0,0,0,.253-.671,1.691,1.691,0,0,0,.57.747,2.58,2.58,0,0,1,.139-.684,2.014,2.014,0,0,0,.76,1.152,2.849,2.849,0,0,1,.165-1.241,1.849,1.849,0,0,0,1.025.785,2.453,2.453,0,0,1,0-.874,4.422,4.422,0,0,0,3.862.329,3.679,3.679,0,0,1-1.823-.861,1.586,1.586,0,0,0,1.026-.076,3.82,3.82,0,0,1-2.292-1.494,1.54,1.54,0,0,0,1.177.355s-.291-.038-.557-.659c0,0,.519.506,2.127.355a1.193,1.193,0,0,1-.608-.544,1.408,1.408,0,0,0,1-.089,2.643,2.643,0,0,1-1.656-.76.881.881,0,0,0,.6-.127,4.879,4.879,0,0,1-2.854-2.19,2.476,2.476,0,0,0,1.524.469,5.07,5.07,0,0,1-.62-.684,2.278,2.278,0,0,0,1.479.405,1.013,1.013,0,0,1-.316-.418,1.934,1.934,0,0,0,1.279.025,2.3,2.3,0,0,1-1.114-.633,1.434,1.434,0,0,0,.633-.1,7.4,7.4,0,0,1-2.684-1.95,3.971,3.971,0,0,0,1.924-.215,2.719,2.719,0,0,1-1.456-.646.852.852,0,0,0,.658-.025,1.769,1.769,0,0,1-1.279-.912,1.225,1.225,0,0,0,.76-.2,3.6,3.6,0,0,1-1.874-1.188,2.385,2.385,0,0,0,1.342-.23,2.416,2.416,0,0,1-.848-.557.833.833,0,0,0,.7-.013,3.311,3.311,0,0,1-1.823-1.735.8.8,0,0,0,.557,0,3.076,3.076,0,0,1-1.494-1.9" transform="translate(-751.993 -368.207)" fill="#13406a"/>
            </g>
          </g>
        </g>
        <g id="Group_275" data-name="Group 275" transform="translate(333.685 -2460.947)" opacity="0.56">
          <g id="Group_274" data-name="Group 274">
            <g id="Group_273" data-name="Group 273" clip-path="url(#clip-path-3)">
              <path id="Path_154" data-name="Path 154" d="M9.174,343.157a10.553,10.553,0,0,1-2.343,2.924,1.327,1.327,0,0,0,.767.166A10.276,10.276,0,0,1,4.3,348.9a1.641,1.641,0,0,0,.954.186,1.833,1.833,0,0,1-.871.56,3.65,3.65,0,0,0,2.074-.187A6.835,6.835,0,0,1,3.969,351.9a2.537,2.537,0,0,0,.974,0,4.865,4.865,0,0,1-2.094,1.98,2.921,2.921,0,0,0,1.389-.187s-.394.871-2.509,1.68a7.939,7.939,0,0,0,3.276-.5s-.519,2.26-3.67,3.338a3.643,3.643,0,0,0,1.223.145A7.826,7.826,0,0,1,.133,359.7a2.7,2.7,0,0,0,1.223.187,1.29,1.29,0,0,1-.7.664,6.516,6.516,0,0,0,3.3-.85,3.7,3.7,0,0,1-1.161.857s.875.5,2.492-.451A8.223,8.223,0,0,1,2.633,362.9,13.779,13.779,0,0,1,0,364.246a4.751,4.751,0,0,0,1.978.208,4.615,4.615,0,0,1-1.845,1.472,2.242,2.242,0,0,0,2.032,0,2.884,2.884,0,0,1-1.078.746,5.568,5.568,0,0,0,3.173-1.161,4.016,4.016,0,0,1-.56.913,4.191,4.191,0,0,0,2.447-1.389,7.533,7.533,0,0,1-4.292,3.629,6.323,6.323,0,0,0,1.846-.1,8.941,8.941,0,0,1-3.567,2.489,16.154,16.154,0,0,0,5.329-1.2,3.488,3.488,0,0,1-1.451,1.7,7.949,7.949,0,0,0,4-1.431,2.4,2.4,0,0,1,.747.975,1.7,1.7,0,0,0,.415-1.1,2.771,2.771,0,0,0,.933,1.224,4.2,4.2,0,0,1,.228-1.12,3.3,3.3,0,0,0,1.244,1.887,4.662,4.662,0,0,1,.27-2.032,3.029,3.029,0,0,0,1.679,1.286,4.021,4.021,0,0,1,0-1.431,7.243,7.243,0,0,0,6.325.539,6.025,6.025,0,0,1-2.986-1.41,2.6,2.6,0,0,0,1.679-.125,6.26,6.26,0,0,1-3.753-2.447,2.524,2.524,0,0,0,1.929.581s-.477-.062-.913-1.078c0,0,.85.83,3.484.581a1.95,1.95,0,0,1-1-.892,2.3,2.3,0,0,0,1.638-.145,4.33,4.33,0,0,1-2.712-1.244,1.443,1.443,0,0,0,.975-.208,7.99,7.99,0,0,1-4.674-3.587,4.053,4.053,0,0,0,2.5.767,8.277,8.277,0,0,1-1.016-1.119,3.734,3.734,0,0,0,2.422.663,1.66,1.66,0,0,1-.518-.684,3.166,3.166,0,0,0,2.094.042A3.767,3.767,0,0,1,17.178,359a2.347,2.347,0,0,0,1.037-.166,12.131,12.131,0,0,1-4.4-3.193,6.511,6.511,0,0,0,3.152-.353,4.453,4.453,0,0,1-2.385-1.058,1.4,1.4,0,0,0,1.078-.041A2.9,2.9,0,0,1,13.57,352.7a2.012,2.012,0,0,0,1.244-.332,5.909,5.909,0,0,1-3.069-1.946,3.909,3.909,0,0,0,2.2-.376,3.951,3.951,0,0,1-1.389-.913,1.363,1.363,0,0,0,1.14-.021,5.423,5.423,0,0,1-2.986-2.841,1.3,1.3,0,0,0,.913,0,5.035,5.035,0,0,1-2.447-3.11" transform="translate(0 -343.157)" fill="#13406a"/>
            </g>
          </g>
        </g>
        <g id="Group_296" data-name="Group 296" transform="translate(657.723 -2460.059)" opacity="0.56">
          <g id="Group_295" data-name="Group 295">
            <g id="Group_294" data-name="Group 294" transform="translate(-7 -3)" clip-path="url(#clip-path-4)">
              <path id="Path_172" data-name="Path 172" d="M629.141,345.489a8.93,8.93,0,0,1-1.983,2.474,1.123,1.123,0,0,0,.65.14,8.7,8.7,0,0,1-2.79,2.247,1.387,1.387,0,0,0,.807.158,1.552,1.552,0,0,1-.737.474,3.09,3.09,0,0,0,1.755-.158,5.782,5.782,0,0,1-2.106,2.062,2.154,2.154,0,0,0,.825,0,4.119,4.119,0,0,1-1.773,1.676,2.471,2.471,0,0,0,1.176-.158s-.333.737-2.123,1.422a6.713,6.713,0,0,0,2.773-.421,4.444,4.444,0,0,1-3.106,2.826,3.091,3.091,0,0,0,1.036.123,6.626,6.626,0,0,1-2.053,1.141,2.288,2.288,0,0,0,1.035.158,1.092,1.092,0,0,1-.6.562,5.513,5.513,0,0,0,2.79-.72,3.135,3.135,0,0,1-.983.726s.74.426,2.109-.381a6.961,6.961,0,0,1-2.24,2.359,11.675,11.675,0,0,1-2.229,1.141,4.021,4.021,0,0,0,1.674.176,3.908,3.908,0,0,1-1.562,1.246,1.9,1.9,0,0,0,1.72,0,2.445,2.445,0,0,1-.913.632,4.715,4.715,0,0,0,2.685-.983,3.4,3.4,0,0,1-.474.772A3.549,3.549,0,0,0,626.579,364a6.374,6.374,0,0,1-3.633,3.071,5.347,5.347,0,0,0,1.562-.088,7.569,7.569,0,0,1-3.019,2.106,13.674,13.674,0,0,0,4.51-1.018,2.953,2.953,0,0,1-1.229,1.439,6.73,6.73,0,0,0,3.387-1.211,2.024,2.024,0,0,1,.632.825,1.44,1.44,0,0,0,.351-.93,2.343,2.343,0,0,0,.79,1.036,3.559,3.559,0,0,1,.193-.948,2.791,2.791,0,0,0,1.053,1.6,3.944,3.944,0,0,1,.228-1.72,2.565,2.565,0,0,0,1.422,1.088,3.4,3.4,0,0,1,0-1.211,6.13,6.13,0,0,0,5.353.457,5.1,5.1,0,0,1-2.527-1.194,2.2,2.2,0,0,0,1.422-.105,5.3,5.3,0,0,1-3.177-2.071,2.136,2.136,0,0,0,1.632.491s-.4-.053-.773-.913c0,0,.72.7,2.948.492a1.65,1.65,0,0,1-.842-.755,1.951,1.951,0,0,0,1.386-.123,3.664,3.664,0,0,1-2.3-1.053,1.218,1.218,0,0,0,.825-.176,6.763,6.763,0,0,1-3.956-3.036,3.434,3.434,0,0,0,2.113.65,7.016,7.016,0,0,1-.86-.948,3.158,3.158,0,0,0,2.05.562,1.4,1.4,0,0,1-.439-.579,2.68,2.68,0,0,0,1.773.035,3.189,3.189,0,0,1-1.544-.877,1.987,1.987,0,0,0,.878-.14,10.269,10.269,0,0,1-3.721-2.7,5.509,5.509,0,0,0,2.668-.3,3.772,3.772,0,0,1-2.018-.9,1.181,1.181,0,0,0,.913-.035,2.453,2.453,0,0,1-1.773-1.264,1.7,1.7,0,0,0,1.053-.281,5,5,0,0,1-2.6-1.647,3.309,3.309,0,0,0,1.86-.318,3.348,3.348,0,0,1-1.176-.772,1.153,1.153,0,0,0,.966-.018,4.589,4.589,0,0,1-2.527-2.4,1.1,1.1,0,0,0,.772,0,4.263,4.263,0,0,1-2.071-2.632" transform="translate(-621.377 -345.489)" fill="#13406a"/>
            </g>
          </g>
        </g>
      </g>
      <path id="Path_302" data-name="Path 302" d="M47.075,323.862a9.7,9.7,0,0,1-2.351,2.629,1.449,1.449,0,0,0,.769.149,10.1,10.1,0,0,1-3.308,2.387,1.8,1.8,0,0,0,.957.168,1.85,1.85,0,0,1-.874.5,4.067,4.067,0,0,0,2.08-.168,6.5,6.5,0,0,1-2.5,2.191,2.83,2.83,0,0,0,.978,0,4.644,4.644,0,0,1-2.1,1.781,3.25,3.25,0,0,0,1.394-.168s-.4.783-2.517,1.51a8.817,8.817,0,0,0,3.287-.448s-.52,2.033-3.682,3a4.059,4.059,0,0,0,1.227.13,8.094,8.094,0,0,1-2.434,1.212,2.987,2.987,0,0,0,1.227.168,1.224,1.224,0,0,1-.707.6,7.172,7.172,0,0,0,3.308-.764,3.694,3.694,0,0,1-1.165.771,2.864,2.864,0,0,0,2.5-.406,7.739,7.739,0,0,1-2.654,2.506,14.531,14.531,0,0,1-2.642,1.212,5.281,5.281,0,0,0,1.985.187,4.528,4.528,0,0,1-1.851,1.324,2.476,2.476,0,0,0,2.039,0,2.892,2.892,0,0,1-1.082.671,6.037,6.037,0,0,0,3.183-1.044,3.55,3.55,0,0,1-.562.82,4.394,4.394,0,0,0,2.454-1.249,7.287,7.287,0,0,1-4.306,3.263,7.057,7.057,0,0,0,1.852-.093,8.953,8.953,0,0,1-3.578,2.238,17.834,17.834,0,0,0,5.346-1.081,3.217,3.217,0,0,1-1.456,1.529A8.625,8.625,0,0,0,45.91,348.1a2.221,2.221,0,0,1,.749.877,1.46,1.46,0,0,0,.416-.988,2.516,2.516,0,0,0,.936,1.1,3.445,3.445,0,0,1,.229-1.007,2.92,2.92,0,0,0,1.248,1.7,3.784,3.784,0,0,1,.271-1.827,2.976,2.976,0,0,0,1.685,1.156,3.251,3.251,0,0,1,0-1.287,7.973,7.973,0,0,0,6.345.485,6.4,6.4,0,0,1-3-1.268,2.889,2.889,0,0,0,1.685-.112,6.447,6.447,0,0,1-3.765-2.2,2.708,2.708,0,0,0,1.935.522s-.478-.056-.915-.97c0,0,.853.746,3.495.522a1.931,1.931,0,0,1-1-.8,2.563,2.563,0,0,0,1.643-.13,4.627,4.627,0,0,1-2.721-1.119,1.593,1.593,0,0,0,.978-.187,8.069,8.069,0,0,1-4.689-3.226,4.365,4.365,0,0,0,2.5.69,7.834,7.834,0,0,1-1.019-1.007,4.034,4.034,0,0,0,2.43.6,1.543,1.543,0,0,1-.52-.615,3.519,3.519,0,0,0,2.1.037,3.942,3.942,0,0,1-1.831-.933,2.606,2.606,0,0,0,1.04-.149,12.312,12.312,0,0,1-4.41-2.872,7.249,7.249,0,0,0,3.162-.317,4.77,4.77,0,0,1-2.392-.951,1.55,1.55,0,0,0,1.082-.037,2.967,2.967,0,0,1-2.1-1.343,2.209,2.209,0,0,0,1.248-.3,6.109,6.109,0,0,1-3.079-1.75,4.334,4.334,0,0,0,2.205-.338,4.057,4.057,0,0,1-1.394-.821,1.511,1.511,0,0,0,1.144-.018,5.319,5.319,0,0,1-3-2.555,1.451,1.451,0,0,0,.916,0,4.731,4.731,0,0,1-2.455-2.8" transform="translate(-37.872 -222.465)" fill="#fff"/>
      <path id="Path_303" data-name="Path 303" d="M123.894,359.747a19.312,19.312,0,0,1-4.29,5.353,2.425,2.425,0,0,0,1.405.3,18.824,18.824,0,0,1-6.037,4.861,3.011,3.011,0,0,0,1.746.341,3.358,3.358,0,0,1-1.6,1.025,6.694,6.694,0,0,0,3.8-.342,12.506,12.506,0,0,1-4.556,4.461,4.647,4.647,0,0,0,1.785,0,8.911,8.911,0,0,1-3.835,3.626,5.351,5.351,0,0,0,2.544-.342s-.722,1.6-4.594,3.076a14.544,14.544,0,0,0,6-.911s-.95,4.138-6.721,6.112a6.677,6.677,0,0,0,2.24.266,14.319,14.319,0,0,1-4.442,2.468,4.95,4.95,0,0,0,2.24.341,2.359,2.359,0,0,1-1.291,1.216,11.94,11.94,0,0,0,6.037-1.557,6.781,6.781,0,0,1-2.126,1.57s1.6.921,4.563-.826a15.059,15.059,0,0,1-4.844,5.1,25.259,25.259,0,0,1-4.822,2.468,8.7,8.7,0,0,0,3.622.379,8.447,8.447,0,0,1-3.379,2.7,4.106,4.106,0,0,0,3.721,0,5.286,5.286,0,0,1-1.974,1.367,10.2,10.2,0,0,0,5.809-2.126,7.372,7.372,0,0,1-1.025,1.67,7.674,7.674,0,0,0,4.48-2.544,13.793,13.793,0,0,1-7.859,6.645,11.6,11.6,0,0,0,3.379-.19,16.374,16.374,0,0,1-6.531,4.556s5.809-.266,9.758-2.2a6.391,6.391,0,0,1-2.658,3.113,14.559,14.559,0,0,0,7.328-2.62,4.391,4.391,0,0,1,1.367,1.785,3.119,3.119,0,0,0,.759-2.012,5.071,5.071,0,0,0,1.708,2.24,7.71,7.71,0,0,1,.418-2.051,6.036,6.036,0,0,0,2.278,3.455,8.527,8.527,0,0,1,.494-3.72,5.55,5.55,0,0,0,3.075,2.354,7.352,7.352,0,0,1,0-2.62,13.261,13.261,0,0,0,11.58.987s-3.683-.608-5.467-2.582a4.749,4.749,0,0,0,3.075-.228s-4.594-.873-6.872-4.48a4.621,4.621,0,0,0,3.531,1.063s-.873-.113-1.671-1.974c0,0,1.557,1.519,6.379,1.063a3.574,3.574,0,0,1-1.823-1.632s.912.455,3-.266a7.929,7.929,0,0,1-4.966-2.278,2.64,2.64,0,0,0,1.785-.38,14.629,14.629,0,0,1-8.558-6.568,7.422,7.422,0,0,0,4.571,1.4,15.2,15.2,0,0,1-1.86-2.051,6.83,6.83,0,0,0,4.434,1.215,3.037,3.037,0,0,1-.949-1.253,5.791,5.791,0,0,0,3.834.076,6.894,6.894,0,0,1-3.341-1.9,4.293,4.293,0,0,0,1.9-.3A22.2,22.2,0,0,1,132.4,382.6a11.919,11.919,0,0,0,5.771-.645,8.163,8.163,0,0,1-4.367-1.936,2.56,2.56,0,0,0,1.975-.076s-2.013-.038-3.835-2.734a3.681,3.681,0,0,0,2.278-.608,10.813,10.813,0,0,1-5.619-3.563,7.155,7.155,0,0,0,4.024-.689,7.23,7.23,0,0,1-2.543-1.67,2.5,2.5,0,0,0,2.088-.038,9.936,9.936,0,0,1-5.468-5.2,2.39,2.39,0,0,0,1.671,0s-3.037-1.291-4.48-5.695" transform="translate(-67.872 -277.491)" fill="#fff"/>
      <path id="Path_304" data-name="Path 304" d="M720,322s-3.092,3.706-5.325,4.893a9.827,9.827,0,0,0,2.565,0,9.962,9.962,0,0,1-5.273,3.563,4.886,4.886,0,0,0,2.423.618,15.89,15.89,0,0,1-5.986,3.23,6.8,6.8,0,0,0,2.566.238,5.2,5.2,0,0,1-1.568,1.425,12.2,12.2,0,0,0,4.751-.618,18.521,18.521,0,0,1-6.128,4.133,4.1,4.1,0,0,0,1.9,0,23.882,23.882,0,0,1-6.176,3.421,12.768,12.768,0,0,0,4.989-.285,2.574,2.574,0,0,1-1.473,1,13.022,13.022,0,0,0,4.8-.475,18.672,18.672,0,0,1-7.364,5.416,5.135,5.135,0,0,0,2,.333,13.986,13.986,0,0,1-5.844,3.278,15.664,15.664,0,0,0,4.608-.38,4.147,4.147,0,0,1-1.377,1.521,20.562,20.562,0,0,0,6.033-1.14,11.619,11.619,0,0,1-2.85,2,3.586,3.586,0,0,0,2.328,0s-2.375,3.373-8.741,4.371a8.218,8.218,0,0,0,4.608.238,4.76,4.76,0,0,1-2.043,1.521,11.415,11.415,0,0,0,6.7-.571s-2.755,4.086-9.929,7.221a11.825,11.825,0,0,0,4.561,0,11.583,11.583,0,0,1-4.561,2.708,10.753,10.753,0,0,0,6.034-1.473,4.665,4.665,0,0,1-1.9,2.09s2.612.38,6.508-1.758a9.922,9.922,0,0,1-3.754,2.708,7.14,7.14,0,0,0,3.8-.427s-2,2.186-8.646,3.04a5.545,5.545,0,0,0,2.66,1.236,24.1,24.1,0,0,1-6.7,1.045s2.138,2.755,7.269,1.9a3.538,3.538,0,0,1-1.71,1.093,12.4,12.4,0,0,0,7.269-.808,5.13,5.13,0,0,1-1.356,1.858,16.943,16.943,0,0,0,6.72-2.384,3.443,3.443,0,0,1-1.084,2.818,13.181,13.181,0,0,0,5.492-2.6,8.305,8.305,0,0,0,4.118,3.251,11.11,11.11,0,0,1,0-2.89,12.073,12.073,0,0,0,8.454,2.89,5.031,5.031,0,0,1-1.951-2.1,9.436,9.436,0,0,0,6.792.578S730.762,377.2,727,370.4a12.788,12.788,0,0,0,5.42,2.312,4.843,4.843,0,0,1-.94-2.167,7.11,7.11,0,0,0,4.625.867,10.42,10.42,0,0,1-4.263-3.685,5.7,5.7,0,0,0,3.324.506s-6.358-3.469-8.165-7.8a4.428,4.428,0,0,0,4.552,1.517,5.778,5.778,0,0,1-2.745-2.24,7.911,7.911,0,0,0,4.118.289s-5.058-1.734-7.37-5.13c0,0,2.312,1.951,4.768,1.662a5.313,5.313,0,0,1-2.24-2.89,6.729,6.729,0,0,0,4.841,1.373s-4.336-3.974-5.492-8.382c0,0,1.373,2.818,4.046,2.963a6.952,6.952,0,0,1-1.445-2.818s1.3.867,4.263-.145c0,0-4.985-1.806-7.37-4.768a4.971,4.971,0,0,0,2.962.722,10.326,10.326,0,0,1-5.13-5.419s.722,1.012,3.324.578a6.257,6.257,0,0,1-2.746-2.89,4.878,4.878,0,0,0,2.674.578,13.061,13.061,0,0,1-4.48-4.553,3.8,3.8,0,0,0,2.745.506,11.379,11.379,0,0,1-4.263-4.553,3.048,3.048,0,0,0,2.385.217A14.1,14.1,0,0,1,720,322" transform="translate(-363.12 -243.84)" fill="#fff"/>
      <path id="Path_305" data-name="Path 305" d="M671.832,362.219s-2.694,3.228-4.639,4.263a8.606,8.606,0,0,0,2.235,0,8.675,8.675,0,0,1-4.594,3.1,4.248,4.248,0,0,0,2.111.538,13.846,13.846,0,0,1-5.215,2.814,5.905,5.905,0,0,0,2.235.207,4.523,4.523,0,0,1-1.366,1.242,10.636,10.636,0,0,0,4.139-.538,16.128,16.128,0,0,1-5.339,3.6,3.576,3.576,0,0,0,1.655,0,20.821,20.821,0,0,1-5.38,2.98,11.113,11.113,0,0,0,4.346-.248,2.242,2.242,0,0,1-1.283.869,11.352,11.352,0,0,0,4.18-.414,16.259,16.259,0,0,1-6.415,4.718,4.474,4.474,0,0,0,1.738.29,12.177,12.177,0,0,1-5.09,2.856,13.678,13.678,0,0,0,4.014-.331,3.619,3.619,0,0,1-1.2,1.324,17.916,17.916,0,0,0,5.256-.993,10.15,10.15,0,0,1-2.483,1.738,3.127,3.127,0,0,0,2.028,0s-2.07,2.938-7.615,3.807a7.158,7.158,0,0,0,4.014.207,4.142,4.142,0,0,1-1.78,1.325,9.944,9.944,0,0,0,5.836-.5s-2.4,3.56-8.65,6.291a10.306,10.306,0,0,0,3.973,0,10.081,10.081,0,0,1-3.973,2.359,9.371,9.371,0,0,0,5.256-1.283,4.065,4.065,0,0,1-1.655,1.821s2.276.331,5.67-1.531a8.649,8.649,0,0,1-3.27,2.359,6.218,6.218,0,0,0,3.311-.373s-1.738,1.9-7.532,2.649a4.833,4.833,0,0,0,2.317,1.076,21,21,0,0,1-5.835.911s1.862,2.4,6.332,1.655a3.079,3.079,0,0,1-1.49.952,10.8,10.8,0,0,0,6.332-.7,4.469,4.469,0,0,1-1.181,1.619,14.761,14.761,0,0,0,5.854-2.077,3,3,0,0,1-.944,2.455,11.483,11.483,0,0,0,4.784-2.267,7.235,7.235,0,0,0,3.588,2.833,9.659,9.659,0,0,1,0-2.518,10.514,10.514,0,0,0,7.365,2.518,4.392,4.392,0,0,1-1.7-1.825,8.224,8.224,0,0,0,5.917.5s-6.483-2.2-9.757-8.12a11.139,11.139,0,0,0,4.721,2.014,4.219,4.219,0,0,1-.818-1.888,6.193,6.193,0,0,0,4.029.755,9.066,9.066,0,0,1-3.714-3.21,4.953,4.953,0,0,0,2.895.441s-5.539-3.022-7.113-6.8a3.858,3.858,0,0,0,3.966,1.321,5.029,5.029,0,0,1-2.392-1.951,6.892,6.892,0,0,0,3.588.252s-4.406-1.511-6.421-4.469a6.322,6.322,0,0,0,4.155,1.447,4.624,4.624,0,0,1-1.951-2.517,5.864,5.864,0,0,0,4.217,1.2s-3.777-3.462-4.784-7.3c0,0,1.2,2.455,3.525,2.581a6.065,6.065,0,0,1-1.259-2.455s1.133.755,3.714-.126c0,0-4.343-1.574-6.421-4.155a4.328,4.328,0,0,0,2.581.63,9,9,0,0,1-4.469-4.721s.63.881,2.9.5a5.45,5.45,0,0,1-2.392-2.517,4.251,4.251,0,0,0,2.329.5,11.384,11.384,0,0,1-3.9-3.965,3.312,3.312,0,0,0,2.392.44,9.9,9.9,0,0,1-3.714-3.965,2.658,2.658,0,0,0,2.077.188,12.276,12.276,0,0,1-3.834-4.4" transform="translate(-352.617 -272.003)" fill="#fff"/>
    </g>
    <path id="Path_754" data-name="Path 754" d="M402.42,471.361l-375.064.111-.023-30.626s.006-18,.023-18.034c1.05-1.3,40.158-31.114,102.632-16.383,31.414,7.417,55.935,16.371,75.373,22.284,19.756,6.015,34.269,8.886,45.432,3.76a227.193,227.193,0,0,1,26.749-9.707h.017c40.444-12.3,75.155-9.9,124.861-2.951" transform="translate(-27.333 -293.473)" fill="#fff"/>
  </g>
</svg>
